<?xml version="1.0" encoding="utf-8" standalone="no"?>
<!DOCTYPE svg PUBLIC "-//W3C//DTD SVG 1.1//EN"
  "http://www.w3.org/Graphics/SVG/1.1/DTD/svg11.dtd">
<svg xmlns:xlink="http://www.w3.org/1999/xlink" width="414pt" height="180pt" viewBox="0 0 414 180" xmlns="http://www.w3.org/2000/svg" version="1.1">
 <metadata>
  <rdf:RDF xmlns:dc="http://purl.org/dc/elements/1.1/" xmlns:cc="http://creativecommons.org/ns#" xmlns:rdf="http://www.w3.org/1999/02/22-rdf-syntax-ns#">
   <cc:Work>
    <dc:type rdf:resource="http://purl.org/dc/dcmitype/StillImage"/>
    <dc:date>2026-03-28T17:07:54.763158</dc:date>
    <dc:format>image/svg+xml</dc:format>
    <dc:creator>
     <cc:Agent>
      <dc:title>Matplotlib v3.10.7, https://matplotlib.org/</dc:title>
     </cc:Agent>
    </dc:creator>
   </cc:Work>
  </rdf:RDF>
 </metadata>
 <defs>
  <style type="text/css">*{stroke-linejoin: round; stroke-linecap: butt}</style>
 </defs>
 <g id="figure_1">
  <g id="patch_1">
   <path d="M 0 180 
L 414 180 
L 414 0 
L 0 0 
L 0 180 
z
" style="fill: none"/>
  </g>
  <g id="axes_1">
   <g id="patch_2">
    <path d="M 60.080781 139.811563 
L 403.2 139.811563 
L 403.2 10.8 
L 60.080781 10.8 
L 60.080781 139.811563 
z
" style="fill: none"/>
   </g>
   <g id="matplotlib.axis_1">
    <g id="xtick_1">
     <g id="line2d_1">
      <defs>
       <path id="mb7ffce5494" d="M 0 0 
L 0 3.5 
" style="stroke: #000000; stroke-width: 0.8"/>
      </defs>
      <g>
       <use xlink:href="#mb7ffce5494" x="75.677109" y="139.811563" style="stroke: #000000; stroke-width: 0.8"/>
      </g>
     </g>
     <g id="text_1">
      <!-- 0 -->
      <g transform="translate(72.813984 153.650156) scale(0.09 -0.09)">
       <defs>
        <path id="DejaVuSans-30" d="M 2034 4250 
Q 1547 4250 1301 3770 
Q 1056 3291 1056 2328 
Q 1056 1369 1301 889 
Q 1547 409 2034 409 
Q 2525 409 2770 889 
Q 3016 1369 3016 2328 
Q 3016 3291 2770 3770 
Q 2525 4250 2034 4250 
z
M 2034 4750 
Q 2819 4750 3233 4129 
Q 3647 3509 3647 2328 
Q 3647 1150 3233 529 
Q 2819 -91 2034 -91 
Q 1250 -91 836 529 
Q 422 1150 422 2328 
Q 422 3509 836 4129 
Q 1250 4750 2034 4750 
z
" transform="scale(0.015625)"/>
       </defs>
       <use xlink:href="#DejaVuSans-30"/>
      </g>
     </g>
    </g>
    <g id="xtick_2">
     <g id="line2d_2">
      <g>
       <use xlink:href="#mb7ffce5494" x="134.592934" y="139.811563" style="stroke: #000000; stroke-width: 0.8"/>
      </g>
     </g>
     <g id="text_2">
      <!-- 2 -->
      <g transform="translate(131.729809 153.650156) scale(0.09 -0.09)">
       <defs>
        <path id="DejaVuSans-32" d="M 1228 531 
L 3431 531 
L 3431 0 
L 469 0 
L 469 531 
Q 828 903 1448 1529 
Q 2069 2156 2228 2338 
Q 2531 2678 2651 2914 
Q 2772 3150 2772 3378 
Q 2772 3750 2511 3984 
Q 2250 4219 1831 4219 
Q 1534 4219 1204 4116 
Q 875 4013 500 3803 
L 500 4441 
Q 881 4594 1212 4672 
Q 1544 4750 1819 4750 
Q 2544 4750 2975 4387 
Q 3406 4025 3406 3419 
Q 3406 3131 3298 2873 
Q 3191 2616 2906 2266 
Q 2828 2175 2409 1742 
Q 1991 1309 1228 531 
z
" transform="scale(0.015625)"/>
       </defs>
       <use xlink:href="#DejaVuSans-32"/>
      </g>
     </g>
    </g>
    <g id="xtick_3">
     <g id="line2d_3">
      <g>
       <use xlink:href="#mb7ffce5494" x="193.508759" y="139.811563" style="stroke: #000000; stroke-width: 0.8"/>
      </g>
     </g>
     <g id="text_3">
      <!-- 4 -->
      <g transform="translate(190.645634 153.650156) scale(0.09 -0.09)">
       <defs>
        <path id="DejaVuSans-34" d="M 2419 4116 
L 825 1625 
L 2419 1625 
L 2419 4116 
z
M 2253 4666 
L 3047 4666 
L 3047 1625 
L 3713 1625 
L 3713 1100 
L 3047 1100 
L 3047 0 
L 2419 0 
L 2419 1100 
L 313 1100 
L 313 1709 
L 2253 4666 
z
" transform="scale(0.015625)"/>
       </defs>
       <use xlink:href="#DejaVuSans-34"/>
      </g>
     </g>
    </g>
    <g id="xtick_4">
     <g id="line2d_4">
      <g>
       <use xlink:href="#mb7ffce5494" x="252.424584" y="139.811563" style="stroke: #000000; stroke-width: 0.8"/>
      </g>
     </g>
     <g id="text_4">
      <!-- 6 -->
      <g transform="translate(249.561459 153.650156) scale(0.09 -0.09)">
       <defs>
        <path id="DejaVuSans-36" d="M 2113 2584 
Q 1688 2584 1439 2293 
Q 1191 2003 1191 1497 
Q 1191 994 1439 701 
Q 1688 409 2113 409 
Q 2538 409 2786 701 
Q 3034 994 3034 1497 
Q 3034 2003 2786 2293 
Q 2538 2584 2113 2584 
z
M 3366 4563 
L 3366 3988 
Q 3128 4100 2886 4159 
Q 2644 4219 2406 4219 
Q 1781 4219 1451 3797 
Q 1122 3375 1075 2522 
Q 1259 2794 1537 2939 
Q 1816 3084 2150 3084 
Q 2853 3084 3261 2657 
Q 3669 2231 3669 1497 
Q 3669 778 3244 343 
Q 2819 -91 2113 -91 
Q 1303 -91 875 529 
Q 447 1150 447 2328 
Q 447 3434 972 4092 
Q 1497 4750 2381 4750 
Q 2619 4750 2861 4703 
Q 3103 4656 3366 4563 
z
" transform="scale(0.015625)"/>
       </defs>
       <use xlink:href="#DejaVuSans-36"/>
      </g>
     </g>
    </g>
    <g id="xtick_5">
     <g id="line2d_5">
      <g>
       <use xlink:href="#mb7ffce5494" x="311.340409" y="139.811563" style="stroke: #000000; stroke-width: 0.8"/>
      </g>
     </g>
     <g id="text_5">
      <!-- 8 -->
      <g transform="translate(308.477284 153.650156) scale(0.09 -0.09)">
       <defs>
        <path id="DejaVuSans-38" d="M 2034 2216 
Q 1584 2216 1326 1975 
Q 1069 1734 1069 1313 
Q 1069 891 1326 650 
Q 1584 409 2034 409 
Q 2484 409 2743 651 
Q 3003 894 3003 1313 
Q 3003 1734 2745 1975 
Q 2488 2216 2034 2216 
z
M 1403 2484 
Q 997 2584 770 2862 
Q 544 3141 544 3541 
Q 544 4100 942 4425 
Q 1341 4750 2034 4750 
Q 2731 4750 3128 4425 
Q 3525 4100 3525 3541 
Q 3525 3141 3298 2862 
Q 3072 2584 2669 2484 
Q 3125 2378 3379 2068 
Q 3634 1759 3634 1313 
Q 3634 634 3220 271 
Q 2806 -91 2034 -91 
Q 1263 -91 848 271 
Q 434 634 434 1313 
Q 434 1759 690 2068 
Q 947 2378 1403 2484 
z
M 1172 3481 
Q 1172 3119 1398 2916 
Q 1625 2713 2034 2713 
Q 2441 2713 2670 2916 
Q 2900 3119 2900 3481 
Q 2900 3844 2670 4047 
Q 2441 4250 2034 4250 
Q 1625 4250 1398 4047 
Q 1172 3844 1172 3481 
z
" transform="scale(0.015625)"/>
       </defs>
       <use xlink:href="#DejaVuSans-38"/>
      </g>
     </g>
    </g>
    <g id="xtick_6">
     <g id="line2d_6">
      <g>
       <use xlink:href="#mb7ffce5494" x="370.256235" y="139.811563" style="stroke: #000000; stroke-width: 0.8"/>
      </g>
     </g>
     <g id="text_6">
      <!-- 10 -->
      <g transform="translate(364.529985 153.650156) scale(0.09 -0.09)">
       <defs>
        <path id="DejaVuSans-31" d="M 794 531 
L 1825 531 
L 1825 4091 
L 703 3866 
L 703 4441 
L 1819 4666 
L 2450 4666 
L 2450 531 
L 3481 531 
L 3481 0 
L 794 0 
L 794 531 
z
" transform="scale(0.015625)"/>
       </defs>
       <use xlink:href="#DejaVuSans-31"/>
       <use xlink:href="#DejaVuSans-30" transform="translate(63.623047 0)"/>
      </g>
     </g>
    </g>
    <g id="text_7">
     <!-- Time [hr] -->
     <g transform="translate(208.691953 167.120313) scale(0.1 -0.1)">
      <defs>
       <path id="DejaVuSans-54" d="M -19 4666 
L 3928 4666 
L 3928 4134 
L 2272 4134 
L 2272 0 
L 1638 0 
L 1638 4134 
L -19 4134 
L -19 4666 
z
" transform="scale(0.015625)"/>
       <path id="DejaVuSans-69" d="M 603 3500 
L 1178 3500 
L 1178 0 
L 603 0 
L 603 3500 
z
M 603 4863 
L 1178 4863 
L 1178 4134 
L 603 4134 
L 603 4863 
z
" transform="scale(0.015625)"/>
       <path id="DejaVuSans-6d" d="M 3328 2828 
Q 3544 3216 3844 3400 
Q 4144 3584 4550 3584 
Q 5097 3584 5394 3201 
Q 5691 2819 5691 2113 
L 5691 0 
L 5113 0 
L 5113 2094 
Q 5113 2597 4934 2840 
Q 4756 3084 4391 3084 
Q 3944 3084 3684 2787 
Q 3425 2491 3425 1978 
L 3425 0 
L 2847 0 
L 2847 2094 
Q 2847 2600 2669 2842 
Q 2491 3084 2119 3084 
Q 1678 3084 1418 2786 
Q 1159 2488 1159 1978 
L 1159 0 
L 581 0 
L 581 3500 
L 1159 3500 
L 1159 2956 
Q 1356 3278 1631 3431 
Q 1906 3584 2284 3584 
Q 2666 3584 2933 3390 
Q 3200 3197 3328 2828 
z
" transform="scale(0.015625)"/>
       <path id="DejaVuSans-65" d="M 3597 1894 
L 3597 1613 
L 953 1613 
Q 991 1019 1311 708 
Q 1631 397 2203 397 
Q 2534 397 2845 478 
Q 3156 559 3463 722 
L 3463 178 
Q 3153 47 2828 -22 
Q 2503 -91 2169 -91 
Q 1331 -91 842 396 
Q 353 884 353 1716 
Q 353 2575 817 3079 
Q 1281 3584 2069 3584 
Q 2775 3584 3186 3129 
Q 3597 2675 3597 1894 
z
M 3022 2063 
Q 3016 2534 2758 2815 
Q 2500 3097 2075 3097 
Q 1594 3097 1305 2825 
Q 1016 2553 972 2059 
L 3022 2063 
z
" transform="scale(0.015625)"/>
       <path id="DejaVuSans-20" transform="scale(0.015625)"/>
       <path id="DejaVuSans-5b" d="M 550 4863 
L 1875 4863 
L 1875 4416 
L 1125 4416 
L 1125 -397 
L 1875 -397 
L 1875 -844 
L 550 -844 
L 550 4863 
z
" transform="scale(0.015625)"/>
       <path id="DejaVuSans-68" d="M 3513 2113 
L 3513 0 
L 2938 0 
L 2938 2094 
Q 2938 2591 2744 2837 
Q 2550 3084 2163 3084 
Q 1697 3084 1428 2787 
Q 1159 2491 1159 1978 
L 1159 0 
L 581 0 
L 581 4863 
L 1159 4863 
L 1159 2956 
Q 1366 3272 1645 3428 
Q 1925 3584 2291 3584 
Q 2894 3584 3203 3211 
Q 3513 2838 3513 2113 
z
" transform="scale(0.015625)"/>
       <path id="DejaVuSans-72" d="M 2631 2963 
Q 2534 3019 2420 3045 
Q 2306 3072 2169 3072 
Q 1681 3072 1420 2755 
Q 1159 2438 1159 1844 
L 1159 0 
L 581 0 
L 581 3500 
L 1159 3500 
L 1159 2956 
Q 1341 3275 1631 3429 
Q 1922 3584 2338 3584 
Q 2397 3584 2469 3576 
Q 2541 3569 2628 3553 
L 2631 2963 
z
" transform="scale(0.015625)"/>
       <path id="DejaVuSans-5d" d="M 1947 4863 
L 1947 -844 
L 622 -844 
L 622 -397 
L 1369 -397 
L 1369 4416 
L 622 4416 
L 622 4863 
L 1947 4863 
z
" transform="scale(0.015625)"/>
      </defs>
      <use xlink:href="#DejaVuSans-54"/>
      <use xlink:href="#DejaVuSans-69" transform="translate(57.958984 0)"/>
      <use xlink:href="#DejaVuSans-6d" transform="translate(85.742188 0)"/>
      <use xlink:href="#DejaVuSans-65" transform="translate(183.154297 0)"/>
      <use xlink:href="#DejaVuSans-20" transform="translate(244.677734 0)"/>
      <use xlink:href="#DejaVuSans-5b" transform="translate(276.464844 0)"/>
      <use xlink:href="#DejaVuSans-68" transform="translate(315.478516 0)"/>
      <use xlink:href="#DejaVuSans-72" transform="translate(378.857422 0)"/>
      <use xlink:href="#DejaVuSans-5d" transform="translate(419.970703 0)"/>
     </g>
    </g>
   </g>
   <g id="matplotlib.axis_2">
    <g id="ytick_1">
     <g id="line2d_7">
      <defs>
       <path id="m071766e241" d="M 0 0 
L -3.5 0 
" style="stroke: #000000; stroke-width: 0.8"/>
      </defs>
      <g>
       <use xlink:href="#m071766e241" x="60.080781" y="133.947401" style="stroke: #000000; stroke-width: 0.8"/>
      </g>
     </g>
     <g id="text_8">
      <!-- −1.00 -->
      <g transform="translate(25.5 137.366697) scale(0.09 -0.09)">
       <defs>
        <path id="DejaVuSans-2212" d="M 678 2272 
L 4684 2272 
L 4684 1741 
L 678 1741 
L 678 2272 
z
" transform="scale(0.015625)"/>
        <path id="DejaVuSans-2e" d="M 684 794 
L 1344 794 
L 1344 0 
L 684 0 
L 684 794 
z
" transform="scale(0.015625)"/>
       </defs>
       <use xlink:href="#DejaVuSans-2212"/>
       <use xlink:href="#DejaVuSans-31" transform="translate(83.789062 0)"/>
       <use xlink:href="#DejaVuSans-2e" transform="translate(147.412109 0)"/>
       <use xlink:href="#DejaVuSans-30" transform="translate(179.199219 0)"/>
       <use xlink:href="#DejaVuSans-30" transform="translate(242.822266 0)"/>
      </g>
     </g>
    </g>
    <g id="ytick_2">
     <g id="line2d_8">
      <g>
       <use xlink:href="#m071766e241" x="60.080781" y="114.92195" style="stroke: #000000; stroke-width: 0.8"/>
      </g>
     </g>
     <g id="text_9">
      <!-- −0.75 -->
      <g transform="translate(25.5 118.341247) scale(0.09 -0.09)">
       <defs>
        <path id="DejaVuSans-37" d="M 525 4666 
L 3525 4666 
L 3525 4397 
L 1831 0 
L 1172 0 
L 2766 4134 
L 525 4134 
L 525 4666 
z
" transform="scale(0.015625)"/>
        <path id="DejaVuSans-35" d="M 691 4666 
L 3169 4666 
L 3169 4134 
L 1269 4134 
L 1269 2991 
Q 1406 3038 1543 3061 
Q 1681 3084 1819 3084 
Q 2600 3084 3056 2656 
Q 3513 2228 3513 1497 
Q 3513 744 3044 326 
Q 2575 -91 1722 -91 
Q 1428 -91 1123 -41 
Q 819 9 494 109 
L 494 744 
Q 775 591 1075 516 
Q 1375 441 1709 441 
Q 2250 441 2565 725 
Q 2881 1009 2881 1497 
Q 2881 1984 2565 2268 
Q 2250 2553 1709 2553 
Q 1456 2553 1204 2497 
Q 953 2441 691 2322 
L 691 4666 
z
" transform="scale(0.015625)"/>
       </defs>
       <use xlink:href="#DejaVuSans-2212"/>
       <use xlink:href="#DejaVuSans-30" transform="translate(83.789062 0)"/>
       <use xlink:href="#DejaVuSans-2e" transform="translate(147.412109 0)"/>
       <use xlink:href="#DejaVuSans-37" transform="translate(179.199219 0)"/>
       <use xlink:href="#DejaVuSans-35" transform="translate(242.822266 0)"/>
      </g>
     </g>
    </g>
    <g id="ytick_3">
     <g id="line2d_9">
      <g>
       <use xlink:href="#m071766e241" x="60.080781" y="95.896499" style="stroke: #000000; stroke-width: 0.8"/>
      </g>
     </g>
     <g id="text_10">
      <!-- −0.50 -->
      <g transform="translate(25.5 99.315796) scale(0.09 -0.09)">
       <use xlink:href="#DejaVuSans-2212"/>
       <use xlink:href="#DejaVuSans-30" transform="translate(83.789062 0)"/>
       <use xlink:href="#DejaVuSans-2e" transform="translate(147.412109 0)"/>
       <use xlink:href="#DejaVuSans-35" transform="translate(179.199219 0)"/>
       <use xlink:href="#DejaVuSans-30" transform="translate(242.822266 0)"/>
      </g>
     </g>
    </g>
    <g id="ytick_4">
     <g id="line2d_10">
      <g>
       <use xlink:href="#m071766e241" x="60.080781" y="76.871048" style="stroke: #000000; stroke-width: 0.8"/>
      </g>
     </g>
     <g id="text_11">
      <!-- −0.25 -->
      <g transform="translate(25.5 80.290345) scale(0.09 -0.09)">
       <use xlink:href="#DejaVuSans-2212"/>
       <use xlink:href="#DejaVuSans-30" transform="translate(83.789062 0)"/>
       <use xlink:href="#DejaVuSans-2e" transform="translate(147.412109 0)"/>
       <use xlink:href="#DejaVuSans-32" transform="translate(179.199219 0)"/>
       <use xlink:href="#DejaVuSans-35" transform="translate(242.822266 0)"/>
      </g>
     </g>
    </g>
    <g id="ytick_5">
     <g id="line2d_11">
      <g>
       <use xlink:href="#m071766e241" x="60.080781" y="57.845598" style="stroke: #000000; stroke-width: 0.8"/>
      </g>
     </g>
     <g id="text_12">
      <!-- 0.00 -->
      <g transform="translate(33.041719 61.264894) scale(0.09 -0.09)">
       <use xlink:href="#DejaVuSans-30"/>
       <use xlink:href="#DejaVuSans-2e" transform="translate(63.623047 0)"/>
       <use xlink:href="#DejaVuSans-30" transform="translate(95.410156 0)"/>
       <use xlink:href="#DejaVuSans-30" transform="translate(159.033203 0)"/>
      </g>
     </g>
    </g>
    <g id="ytick_6">
     <g id="line2d_12">
      <g>
       <use xlink:href="#m071766e241" x="60.080781" y="38.820147" style="stroke: #000000; stroke-width: 0.8"/>
      </g>
     </g>
     <g id="text_13">
      <!-- 0.25 -->
      <g transform="translate(33.041719 42.239444) scale(0.09 -0.09)">
       <use xlink:href="#DejaVuSans-30"/>
       <use xlink:href="#DejaVuSans-2e" transform="translate(63.623047 0)"/>
       <use xlink:href="#DejaVuSans-32" transform="translate(95.410156 0)"/>
       <use xlink:href="#DejaVuSans-35" transform="translate(159.033203 0)"/>
      </g>
     </g>
    </g>
    <g id="ytick_7">
     <g id="line2d_13">
      <g>
       <use xlink:href="#m071766e241" x="60.080781" y="19.794696" style="stroke: #000000; stroke-width: 0.8"/>
      </g>
     </g>
     <g id="text_14">
      <!-- 0.50 -->
      <g transform="translate(33.041719 23.213993) scale(0.09 -0.09)">
       <use xlink:href="#DejaVuSans-30"/>
       <use xlink:href="#DejaVuSans-2e" transform="translate(63.623047 0)"/>
       <use xlink:href="#DejaVuSans-35" transform="translate(95.410156 0)"/>
       <use xlink:href="#DejaVuSans-30" transform="translate(159.033203 0)"/>
      </g>
     </g>
    </g>
    <g id="text_15">
     <!-- $(\rho_{stoch} / \rho_{exp}) - 1$ [-] -->
     <g transform="translate(18.4 120.055781) rotate(-90) scale(0.1 -0.1)">
      <defs>
       <path id="DejaVuSans-28" d="M 1984 4856 
Q 1566 4138 1362 3434 
Q 1159 2731 1159 2009 
Q 1159 1288 1364 580 
Q 1569 -128 1984 -844 
L 1484 -844 
Q 1016 -109 783 600 
Q 550 1309 550 2009 
Q 550 2706 781 3412 
Q 1013 4119 1484 4856 
L 1984 4856 
z
" transform="scale(0.015625)"/>
       <path id="DejaVuSans-Oblique-3c1" d="M 1203 2875 
Q 1453 3194 1981 3475 
Q 2188 3584 2756 3584 
Q 3394 3584 3694 3078 
Q 3994 2572 3834 1747 
Q 3672 922 3175 415 
Q 2678 -91 2041 -91 
Q 1656 -91 1409 63 
Q 1163 213 1044 525 
L 681 -1331 
L 103 -1331 
L 697 1716 
Q 838 2438 1203 2875 
z
M 3238 1747 
Q 3359 2381 3169 2744 
Q 2978 3103 2522 3103 
Q 2066 3103 1734 2744 
Q 1403 2381 1281 1747 
Q 1156 1113 1347 750 
Q 1538 391 1994 391 
Q 2450 391 2781 750 
Q 3113 1113 3238 1747 
z
" transform="scale(0.015625)"/>
       <path id="DejaVuSans-Oblique-73" d="M 3200 3397 
L 3091 2853 
Q 2863 2978 2609 3040 
Q 2356 3103 2088 3103 
Q 1634 3103 1373 2948 
Q 1113 2794 1113 2528 
Q 1113 2219 1719 2053 
Q 1766 2041 1788 2034 
L 1972 1978 
Q 2547 1819 2739 1644 
Q 2931 1469 2931 1166 
Q 2931 609 2489 259 
Q 2047 -91 1331 -91 
Q 1053 -91 747 -37 
Q 441 16 72 128 
L 184 722 
Q 500 559 806 475 
Q 1113 391 1394 391 
Q 1816 391 2080 572 
Q 2344 753 2344 1031 
Q 2344 1331 1650 1516 
L 1591 1531 
L 1394 1581 
Q 956 1697 753 1886 
Q 550 2075 550 2369 
Q 550 2928 970 3256 
Q 1391 3584 2113 3584 
Q 2397 3584 2667 3537 
Q 2938 3491 3200 3397 
z
" transform="scale(0.015625)"/>
       <path id="DejaVuSans-Oblique-74" d="M 2706 3500 
L 2619 3053 
L 1472 3053 
L 1100 1153 
Q 1081 1047 1072 975 
Q 1063 903 1063 863 
Q 1063 663 1183 572 
Q 1303 481 1569 481 
L 2150 481 
L 2053 0 
L 1503 0 
Q 991 0 739 200 
Q 488 400 488 806 
Q 488 878 497 964 
Q 506 1050 525 1153 
L 897 3053 
L 409 3053 
L 500 3500 
L 978 3500 
L 1172 4494 
L 1747 4494 
L 1556 3500 
L 2706 3500 
z
" transform="scale(0.015625)"/>
       <path id="DejaVuSans-Oblique-6f" d="M 1625 -91 
Q 1009 -91 651 289 
Q 294 669 294 1325 
Q 294 1706 417 2101 
Q 541 2497 738 2766 
Q 1047 3184 1428 3384 
Q 1809 3584 2291 3584 
Q 2888 3584 3255 3212 
Q 3622 2841 3622 2241 
Q 3622 1825 3500 1412 
Q 3378 1000 3181 728 
Q 2875 309 2494 109 
Q 2113 -91 1625 -91 
z
M 891 1344 
Q 891 869 1089 633 
Q 1288 397 1691 397 
Q 2269 397 2648 901 
Q 3028 1406 3028 2181 
Q 3028 2634 2825 2865 
Q 2622 3097 2228 3097 
Q 1903 3097 1650 2945 
Q 1397 2794 1197 2484 
Q 1050 2253 970 1956 
Q 891 1659 891 1344 
z
" transform="scale(0.015625)"/>
       <path id="DejaVuSans-Oblique-63" d="M 3431 3366 
L 3316 2797 
Q 3109 2947 2876 3022 
Q 2644 3097 2394 3097 
Q 2119 3097 1870 3000 
Q 1622 2903 1453 2725 
Q 1184 2453 1037 2087 
Q 891 1722 891 1331 
Q 891 859 1127 628 
Q 1363 397 1844 397 
Q 2081 397 2348 469 
Q 2616 541 2906 684 
L 2797 116 
Q 2547 13 2283 -39 
Q 2019 -91 1741 -91 
Q 1044 -91 669 257 
Q 294 606 294 1253 
Q 294 1797 489 2255 
Q 684 2713 1069 3078 
Q 1331 3328 1684 3456 
Q 2038 3584 2456 3584 
Q 2700 3584 2940 3529 
Q 3181 3475 3431 3366 
z
" transform="scale(0.015625)"/>
       <path id="DejaVuSans-Oblique-68" d="M 3566 2113 
L 3156 0 
L 2578 0 
L 2988 2091 
Q 3016 2238 3031 2350 
Q 3047 2463 3047 2528 
Q 3047 2791 2881 2937 
Q 2716 3084 2419 3084 
Q 1956 3084 1617 2771 
Q 1278 2459 1178 1941 
L 800 0 
L 225 0 
L 1172 4863 
L 1747 4863 
L 1375 2950 
Q 1594 3244 1934 3414 
Q 2275 3584 2650 3584 
Q 3113 3584 3367 3334 
Q 3622 3084 3622 2631 
Q 3622 2519 3608 2391 
Q 3594 2263 3566 2113 
z
" transform="scale(0.015625)"/>
       <path id="DejaVuSans-2f" d="M 1625 4666 
L 2156 4666 
L 531 -594 
L 0 -594 
L 1625 4666 
z
" transform="scale(0.015625)"/>
       <path id="DejaVuSans-Oblique-65" d="M 3078 2063 
Q 3088 2113 3092 2166 
Q 3097 2219 3097 2272 
Q 3097 2653 2873 2875 
Q 2650 3097 2266 3097 
Q 1838 3097 1509 2826 
Q 1181 2556 1013 2059 
L 3078 2063 
z
M 3578 1613 
L 903 1613 
Q 884 1494 878 1425 
Q 872 1356 872 1306 
Q 872 872 1139 634 
Q 1406 397 1894 397 
Q 2269 397 2603 481 
Q 2938 566 3225 728 
L 3116 159 
Q 2806 34 2476 -28 
Q 2147 -91 1806 -91 
Q 1078 -91 686 257 
Q 294 606 294 1247 
Q 294 1794 489 2264 
Q 684 2734 1063 3103 
Q 1306 3334 1642 3459 
Q 1978 3584 2356 3584 
Q 2950 3584 3301 3228 
Q 3653 2872 3653 2272 
Q 3653 2128 3634 1964 
Q 3616 1800 3578 1613 
z
" transform="scale(0.015625)"/>
       <path id="DejaVuSans-Oblique-78" d="M 3841 3500 
L 2234 1784 
L 3219 0 
L 2559 0 
L 1819 1388 
L 531 0 
L -166 0 
L 1556 1844 
L 641 3500 
L 1300 3500 
L 1972 2234 
L 3144 3500 
L 3841 3500 
z
" transform="scale(0.015625)"/>
       <path id="DejaVuSans-Oblique-70" d="M 3175 2156 
Q 3175 2616 2975 2859 
Q 2775 3103 2400 3103 
Q 2144 3103 1911 2972 
Q 1678 2841 1497 2591 
Q 1319 2344 1212 1994 
Q 1106 1644 1106 1300 
Q 1106 863 1306 627 
Q 1506 391 1875 391 
Q 2147 391 2380 519 
Q 2613 647 2778 891 
Q 2956 1147 3065 1494 
Q 3175 1841 3175 2156 
z
M 1394 2969 
Q 1625 3272 1939 3428 
Q 2253 3584 2638 3584 
Q 3175 3584 3472 3232 
Q 3769 2881 3769 2247 
Q 3769 1728 3584 1258 
Q 3400 788 3053 416 
Q 2822 169 2531 39 
Q 2241 -91 1919 -91 
Q 1547 -91 1294 64 
Q 1041 219 916 525 
L 556 -1331 
L -19 -1331 
L 922 3500 
L 1497 3500 
L 1394 2969 
z
" transform="scale(0.015625)"/>
       <path id="DejaVuSans-29" d="M 513 4856 
L 1013 4856 
Q 1481 4119 1714 3412 
Q 1947 2706 1947 2009 
Q 1947 1309 1714 600 
Q 1481 -109 1013 -844 
L 513 -844 
Q 928 -128 1133 580 
Q 1338 1288 1338 2009 
Q 1338 2731 1133 3434 
Q 928 4138 513 4856 
z
" transform="scale(0.015625)"/>
       <path id="DejaVuSans-2d" d="M 313 2009 
L 1997 2009 
L 1997 1497 
L 313 1497 
L 313 2009 
z
" transform="scale(0.015625)"/>
      </defs>
      <use xlink:href="#DejaVuSans-28" transform="translate(0 0.015625)"/>
      <use xlink:href="#DejaVuSans-Oblique-3c1" transform="translate(39.013672 0.015625)"/>
      <use xlink:href="#DejaVuSans-Oblique-73" transform="translate(102.490234 -16.390625) scale(0.7)"/>
      <use xlink:href="#DejaVuSans-Oblique-74" transform="translate(138.959961 -16.390625) scale(0.7)"/>
      <use xlink:href="#DejaVuSans-Oblique-6f" transform="translate(166.40625 -16.390625) scale(0.7)"/>
      <use xlink:href="#DejaVuSans-Oblique-63" transform="translate(209.233398 -16.390625) scale(0.7)"/>
      <use xlink:href="#DejaVuSans-Oblique-68" transform="translate(247.719727 -16.390625) scale(0.7)"/>
      <use xlink:href="#DejaVuSans-2f" transform="translate(294.819336 0.015625)"/>
      <use xlink:href="#DejaVuSans-Oblique-3c1" transform="translate(328.510742 0.015625)"/>
      <use xlink:href="#DejaVuSans-Oblique-65" transform="translate(391.987305 -16.390625) scale(0.7)"/>
      <use xlink:href="#DejaVuSans-Oblique-78" transform="translate(435.053711 -16.390625) scale(0.7)"/>
      <use xlink:href="#DejaVuSans-Oblique-70" transform="translate(476.479492 -16.390625) scale(0.7)"/>
      <use xlink:href="#DejaVuSans-29" transform="translate(523.647461 0.015625)"/>
      <use xlink:href="#DejaVuSans-2212" transform="translate(582.143555 0.015625)"/>
      <use xlink:href="#DejaVuSans-31" transform="translate(685.415039 0.015625)"/>
      <use xlink:href="#DejaVuSans-20" transform="translate(749.038086 0.015625)"/>
      <use xlink:href="#DejaVuSans-5b" transform="translate(780.825195 0.015625)"/>
      <use xlink:href="#DejaVuSans-2d" transform="translate(819.838867 0.015625)"/>
      <use xlink:href="#DejaVuSans-5d" transform="translate(855.922852 0.015625)"/>
     </g>
    </g>
   </g>
   <g id="line2d_14">
    <path d="M 75.677109 133.947401 
L 75.840764 55.389426 
L 76.33173 85.714737 
L 76.495385 76.506384 
L 76.577212 82.38937 
L 76.904522 74.032441 
L 77.068177 83.543697 
L 77.150005 76.576018 
L 77.231833 82.452854 
L 77.477315 75.889225 
L 77.559143 78.988719 
L 77.722798 70.917558 
L 77.804625 82.207114 
L 77.886453 75.35771 
L 78.050108 83.959559 
L 78.213763 75.048165 
L 78.29559 73.309783 
L 78.377418 76.637421 
L 78.459246 70.28065 
L 78.541073 73.87618 
L 78.622901 67.763626 
L 78.950211 83.03689 
L 79.113866 79.193917 
L 79.277521 71.088413 
L 79.441176 68.435007 
L 79.523004 72.193803 
L 79.604831 71.142401 
L 79.768486 61.560155 
L 79.850314 64.287189 
L 80.013969 55.71891 
L 80.095796 60.602304 
L 80.177624 55.663936 
L 80.259451 60.552202 
L 80.423106 55.598488 
L 80.504934 60.492558 
L 80.586761 60.476109 
L 80.832244 42.018411 
L 80.914072 43.201409 
L 81.159554 60.348794 
L 81.241382 64.822815 
L 81.405037 56.309644 
L 81.486864 56.663273 
L 81.568692 52.073639 
L 81.650519 57.27952 
L 81.732347 52.635437 
L 81.814174 57.791647 
L 81.896002 45.352483 
L 81.97783 51.152789 
L 82.059657 47.050643 
L 82.468795 74.430266 
L 82.714277 51.90463 
L 83.123415 53.199972 
L 83.368898 39.544786 
L 83.450725 40.947091 
L 83.532553 34.475927 
L 83.696208 42.925236 
L 84.105345 49.369462 
L 84.187173 45.425826 
L 84.269001 51.219846 
L 84.350828 44.274969 
L 84.432656 45.693562 
L 84.678138 37.26471 
L 84.759966 38.869009 
L 84.923621 34.600775 
L 85.005448 28.691664 
L 85.250931 35.171116 
L 85.414586 50.567177 
L 85.496414 38.769274 
L 85.578241 40.24075 
L 85.660069 46.493466 
L 85.741896 42.804877 
L 85.905551 51.999151 
L 85.987379 57.212007 
L 86.069206 52.575644 
L 86.151034 60.575 
L 86.232861 60.118208 
L 86.314689 59.701837 
L 86.396516 64.233518 
L 86.478344 63.887565 
L 86.560171 58.661057 
L 86.641999 63.284804 
L 86.723827 58.11168 
L 86.805654 62.784026 
L 86.887482 57.655267 
L 86.969309 62.367991 
L 87.214792 42.774214 
L 87.378447 49.821957 
L 87.460274 45.839811 
L 87.542102 46.68655 
L 87.623929 52.369387 
L 87.705757 48.162068 
L 87.787585 48.803502 
L 87.869412 57.13641 
L 87.95124 56.984216 
L 88.033067 56.845505 
L 88.27855 71.309755 
L 88.360377 69.904211 
L 88.442205 73.533784 
L 88.60586 56.490591 
L 88.687687 56.829999 
L 88.769515 57.139412 
L 88.93317 42.86813 
L 89.014998 52.160183 
L 89.096825 40.224221 
L 89.342308 55.258329 
L 89.424135 63.454593 
L 89.505963 50.520088 
L 89.58779 50.953482 
L 89.833273 52.037074 
L 89.9151 60.083931 
L 90.078755 49.396452 
L 90.160583 50.363626 
L 90.242411 46.334846 
L 90.406066 59.843884 
L 90.487893 59.887186 
L 90.651548 67.024875 
L 90.733376 66.433161 
L 90.815203 53.236197 
L 90.978858 61.353365 
L 91.060686 53.081863 
L 91.224341 73.197451 
L 91.306169 67.149733 
L 91.387996 63.276008 
L 91.469824 50.358701 
L 91.551651 63.464114 
L 91.633479 58.277317 
L 91.715306 70.682389 
L 91.797134 69.767444 
L 91.878961 68.933431 
L 91.960789 75.920146 
L 92.124444 68.37571 
L 92.206271 79.8876 
L 92.288099 78.158663 
L 92.451754 70.235965 
L 92.533582 68.926418 
L 92.697237 78.61627 
L 92.860892 68.464749 
L 93.024547 74.152702 
L 93.106374 65.184401 
L 93.188202 67.592644 
L 93.270029 63.680284 
L 93.351857 71.131487 
L 93.433684 70.177107 
L 93.515512 56.650635 
L 93.597339 61.452612 
L 93.760995 56.354698 
L 93.842822 56.272986 
L 94.006477 68.101924 
L 94.170132 54.133597 
L 94.25196 54.248365 
L 94.333787 59.262807 
L 94.415615 54.44838 
L 94.497442 59.445135 
L 94.57927 54.614619 
L 94.742925 59.662561 
L 94.824753 59.722629 
L 94.90658 67.523751 
L 94.988408 54.232523 
L 95.070235 54.338634 
L 95.23389 59.433282 
L 95.315718 54.603951 
L 95.479373 59.653768 
L 95.5612 59.714677 
L 95.806683 47.896097 
L 95.88851 53.472321 
L 95.970338 49.170252 
L 96.133993 55.138688 
L 96.215821 47.852737 
L 96.297648 48.95733 
L 96.379476 45.054598 
L 96.461303 50.88211 
L 96.543131 46.809175 
L 96.788613 56.647084 
L 96.870441 56.539782 
L 96.952268 61.351586 
L 97.197751 48.45134 
L 97.361406 49.631743 
L 97.443234 55.054458 
L 97.525061 50.612603 
L 97.688716 56.33724 
L 97.770544 56.691536 
L 97.852371 64.760591 
L 98.016026 59.104299 
L 98.097854 66.525791 
L 98.179681 65.544876 
L 98.261509 64.650706 
L 98.506992 55.978683 
L 98.588819 55.930494 
L 98.670647 68.54222 
L 98.752474 62.907569 
L 98.834302 67.156192 
L 98.997957 53.348795 
L 99.161612 61.447299 
L 99.243439 60.915462 
L 99.325267 52.684562 
L 99.407094 52.927647 
L 99.488922 60.895326 
L 99.57075 52.666181 
L 99.652577 60.656978 
L 99.89806 38.146135 
L 100.061715 45.978026 
L 100.22537 48.406282 
L 100.307197 57.20797 
L 100.389025 52.575513 
L 100.55268 57.968078 
L 100.716335 45.713537 
L 100.798163 46.57298 
L 100.961818 48.070548 
L 101.125473 64.122307 
L 101.289128 62.653125 
L 101.452783 74.088198 
L 101.53461 65.126194 
L 101.616438 72.44925 
L 101.698265 63.632143 
L 101.780093 71.087323 
L 101.86192 65.227195 
L 101.943748 69.270539 
L 102.189231 48.01163 
L 102.271058 56.413994 
L 102.352886 53.490327 
L 102.598368 55.151365 
L 102.680196 58.446735 
L 102.762023 70.836082 
L 103.007506 61.228642 
L 103.252989 41.294771 
L 103.334816 42.544584 
L 103.416644 43.683857 
L 103.662126 59.188441 
L 103.743954 54.380074 
L 103.825781 54.472616 
L 103.907609 62.303601 
L 103.989436 53.948748 
L 104.071264 54.079385 
L 104.153091 59.108418 
L 104.234919 46.560263 
L 104.398574 60.03052 
L 104.480402 55.147449 
L 104.644057 60.104352 
L 104.725884 55.214668 
L 104.807712 67.890088 
L 104.889539 62.311831 
L 104.971367 66.612781 
L 105.053194 53.400533 
L 105.135022 66.23643 
L 105.462332 44.690245 
L 105.54416 45.639312 
L 105.707815 47.293029 
L 105.789642 52.922071 
L 105.87147 48.66712 
L 105.953297 54.174635 
L 106.035125 42.06173 
L 106.116952 43.243112 
L 106.19878 44.320001 
L 106.280607 57.959105 
L 106.362435 53.25853 
L 106.444262 58.359976 
L 106.52609 53.623888 
L 106.607918 53.782679 
L 106.689745 58.837754 
L 106.771573 46.312008 
L 106.935228 60.509191 
L 107.017055 60.49325 
L 107.18071 45.655726 
L 107.589848 51.092849 
L 107.671675 46.998964 
L 107.753503 47.743339 
L 107.835331 61.079993 
L 107.917158 56.102822 
L 107.998986 63.789693 
L 108.080813 63.049139 
L 108.244468 61.758648 
L 108.326296 66.108263 
L 108.489951 60.220021 
L 108.571778 72.453471 
L 108.735433 58.429797 
L 108.817261 65.910904 
L 108.899088 64.982561 
L 108.980916 64.136292 
L 109.062744 68.275588 
L 109.144571 67.572351 
L 109.308226 46.625304 
L 109.471881 60.769443 
L 109.553709 60.729898 
L 109.717364 52.912825 
L 109.881019 54.165224 
L 110.044674 62.268824 
L 110.290157 42.698658 
L 110.371984 48.733646 
L 110.453812 42.009942 
L 110.617467 59.916584 
L 110.699294 52.203824 
L 110.781122 52.921483 
L 110.862949 53.575659 
L 110.944777 41.51245 
L 111.026604 55.400763 
L 111.108432 43.17605 
L 111.190259 49.168774 
L 111.272087 42.406199 
L 111.353915 51.738718 
L 111.435742 47.586214 
L 111.51757 48.277748 
L 111.599397 46.070682 
L 111.763052 50.631133 
L 112.008535 51.788961 
L 112.090362 44.359979 
L 112.17219 45.336682 
L 112.254017 46.226996 
L 112.417672 52.689651 
L 112.4995 48.452683 
L 112.663155 57.376566 
L 112.744983 57.202062 
L 112.990465 43.26306 
L 113.15412 65.039281 
L 113.399603 37.72987 
L 113.48143 39.292652 
L 113.563258 37.879622 
L 113.645086 42.701085 
L 113.726913 36.075104 
L 113.808741 37.784171 
L 113.972396 45.673749 
L 114.136051 36.172916 
L 114.299706 39.423258 
L 114.463361 47.035685 
L 114.545188 48.209729 
L 114.627016 57.029213 
L 114.708843 52.407863 
L 114.790671 65.333359 
L 114.954326 59.57274 
L 115.036154 64.115313 
L 115.117981 63.778876 
L 115.281636 58.28093 
L 115.363464 58.026056 
L 115.527119 69.557697 
L 115.608946 63.828213 
L 115.690774 67.994443 
L 115.854429 54.034229 
L 115.936256 59.066574 
L 116.099912 39.551318 
L 116.181739 45.864442 
L 116.263567 39.392364 
L 116.345394 41.242153 
L 116.427222 42.928353 
L 116.672704 53.583309 
L 117.000014 55.665078 
L 117.081842 51.163945 
L 117.163669 51.538301 
L 117.245497 51.879547 
L 117.327325 64.852073 
L 117.409152 59.53846 
L 117.572807 78.56414 
L 117.736462 63.501915 
L 117.900117 62.131744 
L 117.981945 74.197673 
L 118.063772 72.969393 
L 118.227427 77.893435 
L 118.391083 70.008834 
L 118.554738 79.514882 
L 118.636565 72.904469 
L 118.718393 76.268035 
L 118.882048 68.65816 
L 119.12753 91.607398 
L 119.373013 76.951867 
L 119.45484 78.317827 
L 119.536668 88.952424 
L 119.618496 81.507355 
L 119.700323 86.947978 
L 119.782151 81.319843 
L 119.945806 92.582009 
L 120.027633 92.565717 
L 120.273116 80.712953 
L 120.436771 72.351589 
L 120.518598 75.764054 
L 120.682253 73.151223 
L 120.764081 59.353723 
L 120.845909 71.665447 
L 120.927736 70.661056 
L 121.091391 68.910895 
L 121.173219 55.488395 
L 121.255046 63.230031 
L 121.500529 54.890396 
L 121.582356 62.684925 
L 121.664184 62.040365 
L 121.746011 66.364732 
L 121.909667 57.591146 
L 121.991494 57.831458 
L 122.073322 53.138608 
L 122.155149 65.999985 
L 122.236977 52.835 
L 122.318804 65.723226 
L 122.400632 65.244399 
L 122.564287 59.498149 
L 122.646114 64.047371 
L 122.727942 58.804876 
L 122.809769 63.415414 
L 122.891597 63.140714 
L 122.973424 65.728148 
L 123.055252 77.476145 
L 123.13708 71.046113 
L 123.300735 81.062303 
L 123.382562 66.565467 
L 123.46439 73.327536 
L 123.546217 71.74192 
L 123.628045 62.546866 
L 123.873527 75.627021 
L 123.955355 73.838086 
L 124.037182 77.119195 
L 124.11901 70.720865 
L 124.282665 80.106733 
L 124.364493 81.193837 
L 124.44632 91.57404 
L 124.609975 74.312928 
L 124.691803 69.8025 
L 124.77363 71.800895 
L 124.855458 78.099969 
L 124.937285 73.254667 
L 125.019113 79.859547 
L 125.10094 78.130794 
L 125.182768 76.554934 
L 125.264595 70.206698 
L 125.428251 87.429016 
L 125.673733 68.815704 
L 125.837388 66.547891 
L 125.919216 70.473795 
L 126.001043 56.914084 
L 126.082871 61.691977 
L 126.164698 64.407736 
L 126.328353 74.860937 
L 126.410181 68.662743 
L 126.492008 72.401646 
L 126.655664 65.446514 
L 126.737491 69.469862 
L 126.901146 55.946468 
L 126.982974 60.809982 
L 127.064801 55.85456 
L 127.146629 60.726212 
L 127.228456 60.689817 
L 127.310284 47.995866 
L 127.473939 61.223597 
L 127.555766 61.143266 
L 127.637594 63.907683 
L 127.719421 63.155655 
L 127.801249 62.470147 
L 127.883077 74.505904 
L 127.964904 73.250993 
L 128.128559 85.877197 
L 128.374042 68.327237 
L 128.455869 72.095922 
L 128.701352 57.264016 
L 128.783179 57.099716 
L 128.865007 54.112412 
L 128.946835 46.912275 
L 129.028662 55.846747 
L 129.11049 51.330824 
L 129.274145 63.994874 
L 129.4378 55.624587 
L 129.519627 56.039747 
L 129.683282 63.826727 
L 129.76511 63.51656 
L 129.846937 50.573827 
L 129.928765 63.661394 
L 130.010592 55.617186 
L 130.09242 56.033109 
L 130.337903 57.072995 
L 130.583385 38.137714 
L 130.665213 44.576425 
L 130.828868 49.390391 
L 130.910695 42.174335 
L 130.992523 48.256083 
L 131.156178 38.321668 
L 131.238005 39.833086 
L 131.401661 47.377846 
L 131.483488 48.522724 
L 131.565316 44.65535 
L 131.728971 58.448073 
L 131.810798 53.703017 
L 131.892626 58.765267 
L 131.974453 53.992219 
L 132.056281 59.028905 
L 132.138108 51.39532 
L 132.219936 52.185062 
L 132.465418 60.597803 
L 132.710901 42.119978 
L 132.792729 43.295844 
L 132.874556 41.530525 
L 132.956384 35.444843 
L 133.038211 37.645389 
L 133.120039 34.740571 
L 133.201866 36.569156 
L 133.283694 43.146791 
L 133.529176 35.340658 
L 134.020142 43.89913 
L 134.101969 44.917978 
L 134.265624 59.35162 
L 134.347452 54.527647 
L 134.511107 59.589148 
L 134.592934 54.744264 
L 134.756589 66.831584 
L 134.838417 66.256772 
L 135.002072 50.445438 
L 135.0839 51.319833 
L 135.247555 40.18572 
L 135.493037 63.601314 
L 135.574865 55.565034 
L 135.656692 55.986789 
L 135.73852 51.460932 
L 135.820347 51.811434 
L 135.902175 52.130957 
L 135.984002 57.332529 
L 136.229485 43.876168 
L 136.311313 45.331796 
L 136.39314 54.405804 
L 136.474968 50.020042 
L 136.638623 58.681002 
L 136.802278 51.068942 
L 136.884105 51.454346 
L 136.965933 56.715812 
L 137.04776 52.125965 
L 137.211416 57.5942 
L 137.293243 52.926756 
L 137.375071 53.14796 
L 137.456898 58.259672 
L 137.538726 53.533458 
L 137.620553 58.611086 
L 137.702381 53.853848 
L 137.784208 66.649902 
L 137.866036 66.091779 
L 137.947863 60.673048 
L 138.029691 72.865983 
L 138.111518 64.01149 
L 138.193346 66.523471 
L 138.275173 70.452322 
L 138.357001 69.558006 
L 138.520656 67.99969 
L 138.684311 61.79498 
L 138.847966 72.690431 
L 138.929794 66.688422 
L 139.011621 70.60271 
L 139.093449 64.785376 
L 139.175276 68.867968 
L 139.338931 62.516731 
L 139.502586 73.29016 
L 139.584414 72.14505 
L 139.829897 57.31132 
L 139.911724 62.05491 
L 139.993552 61.903457 
L 140.320862 61.420336 
L 140.402689 56.415356 
L 140.484517 61.238191 
L 140.566344 61.159026 
L 140.648172 61.086869 
L 140.811827 68.022318 
L 140.893655 67.343218 
L 140.975482 66.724181 
L 141.139137 45.928613 
L 141.220965 59.425011 
L 141.302792 54.596642 
L 141.38462 54.670716 
L 141.466447 51.901729 
L 141.548275 52.648324 
L 141.630102 53.328899 
L 141.71193 61.695384 
L 141.793757 61.575881 
L 141.957413 68.428703 
L 142.121068 62.152458 
L 142.202895 66.467934 
L 142.284723 65.92639 
L 142.36655 65.432741 
L 142.612033 45.79156 
L 142.69386 43.807914 
L 142.775688 45.270346 
L 142.857515 41.693923 
L 143.02117 55.987381 
L 143.430308 57.602151 
L 143.512136 52.935191 
L 143.593963 53.156289 
L 143.675791 58.267336 
L 143.757618 53.541557 
L 143.839446 58.61853 
L 144.003101 46.939925 
L 144.330411 75.722282 
L 144.412239 69.452875 
L 144.494066 73.122711 
L 144.739549 62.96266 
L 144.903204 62.520074 
L 145.066859 57.242803 
L 145.148686 69.738365 
L 145.230514 68.90761 
L 145.312341 60.40437 
L 145.394169 68.14501 
L 145.475997 59.709197 
L 145.557824 59.765353 
L 145.639652 54.907036 
L 145.721479 59.863194 
L 145.803307 47.250242 
L 145.885134 47.97401 
L 145.966962 45.797303 
L 146.130617 48.256376 
L 146.212444 44.415798 
L 146.294272 45.390201 
L 146.457927 47.088096 
L 146.621582 68.215482 
L 146.785237 59.138678 
L 146.867065 59.245197 
L 147.112547 47.540863 
L 147.276202 53.784614 
L 147.35803 46.618498 
L 147.439857 47.832178 
L 147.521685 44.028935 
L 147.603512 45.037424 
L 147.68534 50.866313 
L 147.767167 46.794709 
L 147.930823 53.164503 
L 148.094478 42.407087 
L 148.258133 56.579679 
L 148.421788 42.40827 
L 148.503615 43.994162 
L 148.585443 40.530142 
L 148.749098 55.02 
L 148.830925 50.580873 
L 148.912753 51.009791 
L 148.994581 56.310456 
L 149.158236 45.020788 
L 149.321891 58.751481 
L 149.403718 46.235936 
L 149.485546 51.958744 
L 149.731028 32.746897 
L 149.812856 35.187013 
L 150.058338 29.316089 
L 150.140166 31.625366 
L 150.467476 53.800801 
L 150.549304 53.944745 
L 150.631131 58.985781 
L 150.958441 45.220773 
L 151.203924 36.915647 
L 151.285751 43.462595 
L 151.531234 35.583676 
L 151.613062 37.338466 
L 151.776717 45.306136 
L 152.022199 48.951388 
L 152.104027 45.04818 
L 152.267682 53.864115 
L 152.349509 46.255426 
L 152.431337 47.066348 
L 152.513165 47.805543 
L 152.594992 61.136194 
L 152.67682 56.155292 
L 152.840475 68.003581 
L 153.085957 54.171676 
L 153.249612 59.293448 
L 153.33144 62.22226 
L 153.495095 75.88174 
L 153.740578 64.482457 
L 153.822405 63.681255 
L 153.904233 60.114038 
L 153.98606 47.476097 
L 154.067888 48.178779 
L 154.149715 61.476614 
L 154.231543 56.465162 
L 154.31337 64.119989 
L 154.395198 63.350737 
L 154.477025 62.649496 
L 154.722508 47.396691 
L 154.804335 60.763781 
L 154.886163 60.725482 
L 155.295301 60.578991 
L 155.458956 47.879095 
L 155.540783 56.293235 
L 155.622611 56.215899 
L 155.704438 56.145386 
L 155.786266 48.333671 
L 155.868093 61.618058 
L 155.949921 61.504026 
L 156.031749 61.400064 
L 156.113576 56.394809 
L 156.359059 77.405489 
L 156.440886 75.460974 
L 156.522714 81.435979 
L 156.604541 76.297947 
L 156.686369 82.633203 
L 156.768196 80.660586 
L 156.850024 86.610045 
L 156.931851 79.375129 
L 157.013679 82.166911 
L 157.095506 75.324861 
L 157.259162 83.932402 
L 157.340989 81.844782 
L 157.422817 75.031108 
L 157.586472 86.525425 
L 157.668299 80.937011 
L 157.750127 81.95135 
L 157.995609 75.515129 
L 158.077437 78.648191 
L 158.241092 70.639734 
L 158.322919 74.203926 
L 158.568402 58.863727 
L 158.65023 58.558451 
L 158.732057 63.191002 
L 158.813885 58.026454 
L 158.895712 62.706042 
L 159.059367 57.39211 
L 159.141195 62.127782 
L 159.223022 54.219848 
L 159.30485 62.507625 
L 159.468505 57.227035 
L 159.63216 56.919804 
L 159.713988 61.697216 
L 159.877643 56.553427 
L 159.95947 61.363228 
L 160.041298 56.359923 
L 160.123125 61.186829 
L 160.204953 53.36172 
L 160.28678 53.977006 
L 160.368608 49.626791 
L 160.450435 55.049117 
L 160.532263 50.604045 
L 160.61409 51.028836 
L 160.695918 64.075675 
L 160.777746 63.743416 
L 160.941401 51.189951 
L 161.023228 56.474022 
L 161.105056 51.902786 
L 161.268711 64.469629 
L 161.350538 59.191251 
L 161.432366 71.516376 
L 161.514193 70.526004 
L 161.596021 72.460656 
L 161.841503 47.073286 
L 161.923331 47.810118 
L 162.005159 45.644299 
L 162.086986 46.941811 
L 162.168814 35.464503 
L 162.250641 42.139201 
L 162.332469 38.835351 
L 162.496124 53.611218 
L 162.577951 49.292808 
L 162.659779 49.833278 
L 162.741606 55.237288 
L 162.823434 50.775033 
L 162.987089 63.532545 
L 163.068916 58.336665 
L 163.150744 65.826224 
L 163.232572 64.904522 
L 163.314399 68.975715 
L 163.478054 62.600236 
L 163.559882 61.96379 
L 163.641709 66.295038 
L 163.805364 57.535071 
L 163.887192 57.780874 
L 163.969019 53.093493 
L 164.050847 58.209175 
L 164.132674 53.483896 
L 164.214502 66.314097 
L 164.378157 60.388368 
L 164.459985 72.608001 
L 164.541812 66.609322 
L 164.705467 76.690116 
L 164.787295 70.330409 
L 164.869122 81.670857 
L 164.95095 79.782163 
L 165.114605 64.515725 
L 165.196432 68.621284 
L 165.441915 53.945722 
L 165.523743 58.986034 
L 165.60557 54.191897 
L 165.769225 59.307986 
L 165.851053 59.396904 
L 165.93288 67.227137 
L 166.014708 66.615724 
L 166.096535 66.058379 
L 166.178363 60.63877 
L 166.26019 65.087192 
L 166.342018 64.665018 
L 166.505673 63.929372 
L 166.669328 58.40652 
L 166.751156 63.052359 
L 166.832983 62.810133 
L 166.914811 62.589329 
L 166.996638 54.638834 
L 167.078466 55.140661 
L 167.160293 58.435762 
L 167.242121 58.167455 
L 167.323948 70.58367 
L 167.487603 61.783574 
L 167.569431 56.741995 
L 167.814914 82.580916 
L 167.978569 73.90506 
L 168.060396 77.180308 
L 168.387706 71.959719 
L 168.469534 58.269031 
L 168.551361 65.764715 
L 168.633189 64.848311 
L 168.796844 63.251474 
L 168.878671 75.218094 
L 169.124154 60.252598 
L 169.205982 64.735237 
L 169.287809 56.595084 
L 169.369637 56.923996 
L 169.533292 57.497149 
L 169.696947 50.224277 
L 169.778774 51.11663 
L 169.860602 47.018553 
L 169.942429 47.760072 
L 170.024257 48.436023 
L 170.187912 54.525407 
L 170.351567 47.755085 
L 170.59705 50.80146 
L 170.678877 43.893795 
L 170.760705 45.346101 
L 170.842532 41.758518 
L 171.006187 58.87822 
L 171.088015 58.571058 
L 171.169842 63.202508 
L 171.415325 50.527474 
L 171.57898 56.263549 
L 171.742635 56.948842 
L 171.824463 52.335373 
L 171.90629 52.606959 
L 171.988118 50.017007 
L 172.151773 53.910664 
L 172.2336 46.294132 
L 172.315428 47.100055 
L 172.397255 47.83472 
L 172.479083 45.666925 
L 172.642738 48.143885 
L 172.724566 44.309343 
L 172.806393 57.950925 
L 172.888221 50.411651 
L 172.970048 51.287887 
L 173.051876 59.835359 
L 173.297358 38.702125 
L 173.379186 35.702792 
L 173.461013 42.356808 
L 173.542841 39.034322 
L 173.624668 53.142317 
L 173.706496 48.866048 
L 173.788324 49.44482 
L 174.033806 70.614721 
L 174.115634 64.793381 
L 174.279289 63.207357 
L 174.361116 67.429015 
L 174.442944 66.800581 
L 174.524771 53.568304 
L 174.606599 66.390806 
L 174.688426 60.94322 
L 174.852082 71.982408 
L 174.933909 70.951385 
L 175.261219 42.070973 
L 175.343047 55.910149 
L 175.506702 44.682746 
L 175.670357 53.560018 
L 175.834012 58.784562 
L 175.915839 51.172892 
L 175.997667 51.982451 
L 176.079495 52.720433 
L 176.161322 61.141155 
L 176.324977 56.09287 
L 176.488632 70.789304 
L 176.57046 74.340601 
L 176.734115 57.161344 
L 176.815942 57.441486 
L 176.89777 52.78621 
L 177.061425 68.041623 
L 177.306908 77.638541 
L 177.470563 62.054359 
L 177.55239 66.378226 
L 177.634218 60.932896 
L 177.8797 71.568944 
L 177.961528 70.575168 
L 178.125183 61.781247 
L 178.20701 56.742688 
L 178.288838 69.283775 
L 178.370665 63.581774 
L 178.452493 67.770621 
L 178.534321 67.112888 
L 178.697976 65.966835 
L 178.779803 68.305621 
L 178.943458 66.127947 
L 179.107113 57.256412 
L 179.188941 57.094432 
L 179.270768 61.857058 
L 179.352596 53.975347 
L 179.434423 54.537831 
L 179.516251 55.050588 
L 179.679906 43.971991 
L 179.843561 50.818585 
L 179.925389 39.003215 
L 180.089044 46.689874 
L 180.252699 36.340071 
L 180.416354 36.730186 
L 180.498181 38.818033 
L 180.580009 35.811211 
L 180.825492 51.916513 
L 181.070974 27.804097 
L 181.152802 30.247286 
L 181.234629 37.384356 
L 181.316457 34.504621 
L 181.480112 50.013703 
L 181.561939 38.270605 
L 181.643767 44.698141 
L 181.725594 41.171754 
L 181.971077 52.376941 
L 182.052905 52.647179 
L 182.21656 60.864498 
L 182.298387 60.384171 
L 182.380215 64.856078 
L 182.462042 64.456973 
L 182.625697 58.85188 
L 182.87118 58.023012 
L 182.953007 62.703763 
L 183.034835 49.83932 
L 183.280318 63.852293 
L 183.362145 50.886469 
L 183.443973 51.288812 
L 183.5258 51.655589 
L 183.607628 44.243919 
L 183.689455 50.143293 
L 183.85311 44.122154 
L 183.934938 45.556984 
L 184.098593 28.340946 
L 184.18042 35.646762 
L 184.344076 32.076601 
L 184.425903 34.5768 
L 184.507731 29.110085 
L 184.671386 41.451728 
L 184.753213 38.213499 
L 184.835041 44.646247 
L 184.998696 35.330718 
L 185.162351 38.730207 
L 185.244178 45.117278 
L 185.326006 41.555057 
L 185.407833 47.692313 
L 185.489661 43.902412 
L 185.571489 44.922816 
L 185.735144 58.670733 
L 185.816971 51.073724 
L 185.898799 51.894119 
L 185.980626 52.641972 
L 186.144281 41.975464 
L 186.226109 43.166386 
L 186.389764 50.150776 
L 186.471591 46.143726 
L 186.553419 51.875208 
L 186.880729 36.093457 
L 186.962557 37.804672 
L 187.044384 36.528348 
L 187.126212 30.889975 
L 187.453522 40.009434 
L 187.535349 36.899513 
L 187.617177 38.539534 
L 187.699004 37.198352 
L 187.944487 16.664162 
L 188.026315 25.002766 
L 188.108142 23.220116 
L 188.271797 28.667813 
L 188.353625 23.290833 
L 188.435452 31.043408 
L 188.51728 28.726634 
L 188.680935 33.243539 
L 188.762762 47.860956 
L 188.84459 44.056961 
L 189.008245 36.086154 
L 189.090073 38.232405 
L 189.1719 32.443898 
L 189.253728 34.912274 
L 189.335555 32.253509 
L 189.581038 56.968106 
L 189.744693 57.540774 
L 189.82652 52.880903 
L 189.908348 65.761518 
L 189.990175 65.283461 
L 190.072003 64.847686 
L 190.235658 59.179569 
L 190.317486 58.849502 
L 190.399313 63.457406 
L 190.481141 50.529559 
L 190.562968 50.964476 
L 190.644796 56.269697 
L 190.808451 44.991903 
L 190.890278 45.91656 
L 190.972106 51.668194 
L 191.053933 47.527792 
L 191.135761 53.136934 
L 191.217588 48.866653 
L 191.299416 49.448652 
L 191.381244 62.632663 
L 191.463071 49.777889 
L 191.544899 50.279305 
L 191.626726 55.645104 
L 191.790381 43.788105 
L 191.872209 44.819231 
L 192.035864 58.584514 
L 192.117691 58.741213 
L 192.199519 46.230619 
L 192.363174 52.697475 
L 192.445001 53.374791 
L 192.608657 34.84178 
L 192.690484 41.572772 
L 192.854139 32.779591 
L 193.017794 51.416118 
L 193.099622 51.77263 
L 193.181449 59.842329 
L 193.263277 59.453661 
L 193.508759 70.450511 
L 193.672414 68.744017 
L 193.754242 70.83821 
L 193.83607 82.130554 
L 194.327035 43.230859 
L 194.408862 44.311122 
L 194.49069 42.459816 
L 194.572517 31.388801 
L 194.654345 33.516285 
L 194.818 42.132216 
L 194.899828 43.743698 
L 194.981655 32.559048 
L 195.063483 39.49179 
L 195.14531 36.427957 
L 195.227138 43.018548 
L 195.308965 39.642802 
L 195.390793 45.949082 
L 195.636275 36.788979 
L 195.718103 38.438786 
L 195.79993 44.851521 
L 195.881758 41.313575 
L 196.045413 55.671218 
L 196.209068 48.717707 
L 196.454551 57.975272 
L 196.536378 58.185498 
L 196.618206 61.213232 
L 196.700033 68.447993 
L 196.781861 67.297919 
L 196.945516 58.233727 
L 197.190998 70.21081 
L 197.600136 66.556907 
L 197.681964 53.353839 
L 197.763791 61.28362 
L 197.845619 53.021708 
L 197.927446 65.889902 
L 198.009274 60.490907 
L 198.172929 67.382388 
L 198.254756 66.326276 
L 198.336584 70.272637 
L 198.663894 47.152665 
L 198.745722 56.064972 
L 198.827549 51.534554 
L 198.909377 64.53439 
L 198.991204 64.164124 
L 199.073032 66.662865 
L 199.236687 64.765279 
L 199.318514 76.595143 
L 199.400342 75.158219 
L 199.645825 64.505183 
L 199.727652 59.228036 
L 199.891307 70.556979 
L 200.054962 49.114856 
L 200.13679 54.583121 
L 200.382272 43.325084 
L 200.709582 47.072851 
L 200.873238 38.588716 
L 200.955065 48.258403 
L 201.036893 44.417479 
L 201.282375 59.744414 
L 201.364203 54.887621 
L 201.527858 69.786706 
L 201.609685 68.517178 
L 201.691513 67.359896 
L 201.855168 63.191732 
L 202.264306 62.134638 
L 202.427961 56.92123 
L 202.591616 68.639957 
L 202.755271 67.236465 
L 203.000753 39.408262 
L 203.164409 54.087429 
L 203.409891 55.602823 
L 203.491719 58.85805 
L 203.573546 50.807754 
L 203.737201 71.306623 
L 204.146339 48.831312 
L 204.391822 58.176873 
L 204.473649 50.186323 
L 204.555477 50.649339 
L 204.719132 56.366277 
L 204.800959 51.806762 
L 204.882787 52.126398 
L 205.046442 65.340677 
L 205.128269 52.240255 
L 205.210097 57.431746 
L 205.291924 52.777811 
L 205.373752 53.011457 
L 205.45558 58.134734 
L 205.537407 45.671277 
L 205.619235 46.533316 
L 205.78289 67.755265 
L 205.864717 54.440826 
L 205.946545 59.437671 
L 206.028372 54.606063 
L 206.1102 54.677864 
L 206.192027 54.743297 
L 206.355682 62.60474 
L 206.43751 61.969124 
L 206.601165 68.609035 
L 206.682993 59.694829 
L 206.76482 64.227001 
L 206.928475 55.820058 
L 207.010303 56.218573 
L 207.09213 64.329493 
L 207.255785 58.742117 
L 207.337613 63.358512 
L 207.41944 63.090301 
L 207.501268 65.682911 
L 207.583095 64.774842 
L 207.664923 56.199257 
L 207.74675 61.040504 
L 207.992233 41.770167 
L 208.074061 42.976681 
L 208.155888 41.239312 
L 208.401371 59.368824 
L 208.483198 59.453253 
L 208.728681 44.853387 
L 208.810508 46.221417 
L 208.974163 48.605208 
L 209.219646 38.788015 
L 209.383301 56.409223 
L 209.465129 48.572789 
L 209.710611 62.890379 
L 209.874266 62.456145 
L 210.119749 42.216117 
L 210.201577 48.293895 
L 210.283404 44.446533 
L 210.528887 65.51809 
L 210.610714 52.399134 
L 210.774369 65.567438 
L 210.856197 60.192418 
L 210.938024 64.680479 
L 211.019852 51.635488 
L 211.101679 56.880273 
L 211.183507 44.525049 
L 211.265334 45.487587 
L 211.42899 52.075881 
L 211.674472 41.415881 
L 211.919955 44.809683 
L 212.001782 37.99856 
L 212.08361 52.197813 
L 212.165437 45.167628 
L 212.329092 49.881278 
L 212.492747 50.815728 
L 212.574575 48.384545 
L 212.73823 50.402243 
L 212.820058 38.619719 
L 212.901885 40.104483 
L 212.983713 41.457946 
L 213.06554 47.602834 
L 213.147368 43.816387 
L 213.229195 44.841599 
L 213.39285 46.628058 
L 213.474678 52.315745 
L 213.556505 48.112534 
L 213.638333 48.757837 
L 213.801988 57.630796 
L 213.883816 57.434363 
L 213.965643 62.166412 
L 214.129298 56.943314 
L 214.211126 61.718798 
L 214.456608 48.720239 
L 214.620263 49.851177 
L 214.702091 63.002332 
L 214.783918 50.105725 
L 214.865746 50.574856 
L 214.947574 55.913576 
L 215.029401 43.643925 
L 215.193056 58.292601 
L 215.274884 53.561023 
L 215.438539 53.873793 
L 215.520366 58.920803 
L 215.602194 46.385359 
L 215.765849 59.885409 
L 215.847676 59.924088 
L 216.093159 47.361543 
L 216.174987 48.073528 
L 216.256814 40.974272 
L 216.420469 63.1374 
L 216.502297 62.888577 
L 216.584124 62.661771 
L 216.665952 49.795864 
L 216.747779 50.29266 
L 216.829607 63.404664 
L 217.156917 37.485042 
L 217.4024 60.930922 
L 217.566055 46.017675 
L 217.647882 47.283066 
L 217.811537 56.5509 
L 217.893365 49.136802 
L 218.05702 60.928501 
L 218.138847 60.441035 
L 218.220675 52.248755 
L 218.547985 73.908781 
L 218.629813 64.525627 
L 218.71164 68.630852 
L 218.793468 67.896627 
L 218.875295 59.479554 
L 218.957123 59.554679 
L 219.120778 66.748204 
L 219.202605 61.269941 
L 219.36626 80.001683 
L 219.448088 81.099067 
L 219.529915 71.080426 
L 219.611743 82.353651 
L 219.693571 75.495456 
L 219.775398 81.467665 
L 219.857226 79.164139 
L 219.939053 81.974857 
L 220.020881 80.060771 
L 220.102708 73.405495 
L 220.184536 84.472996 
L 220.675501 48.780196 
L 220.757329 49.801917 
L 220.839156 38.075595 
L 220.920984 44.520154 
L 221.002811 41.008337 
L 221.166466 55.417804 
L 221.248294 55.852628 
L 221.411949 66.509332 
L 221.575604 64.635507 
L 221.657431 76.478348 
L 221.902914 53.468503 
L 222.066569 53.799513 
L 222.148397 58.853586 
L 222.230224 54.074644 
L 222.312052 54.194273 
L 222.393879 59.213454 
L 222.475707 51.565987 
L 222.557534 52.341763 
L 222.639362 48.138884 
L 222.721189 48.783565 
L 222.884844 61.878709 
L 222.966672 61.742551 
L 223.048499 48.961722 
L 223.130327 49.53374 
L 223.212155 50.055192 
L 223.457637 64.015469 
L 223.539465 58.780576 
L 223.621292 71.140829 
L 223.70312 70.185729 
L 223.948602 81.981539 
L 224.194085 76.733107 
L 224.439568 60.786749 
L 224.521395 60.313333 
L 224.603223 72.537821 
L 224.848705 49.863188 
L 224.930533 50.355927 
L 225.176015 65.770672 
L 225.33967 71.76961 
L 225.421498 70.32511 
L 225.585153 75.554142 
L 225.666981 73.775 
L 225.912463 62.890808 
L 226.076118 61.630812 
L 226.403428 78.120654 
L 226.567083 70.206729 
L 226.648911 68.900708 
L 226.812566 74.370729 
L 227.139876 68.511077 
L 227.221704 80.010051 
L 227.303531 73.362044 
L 227.385359 79.52271 
L 227.467186 77.39296 
L 227.549014 80.360824 
L 227.712669 62.171881 
L 227.876324 56.954757 
L 227.958152 56.820938 
L 228.039979 61.608152 
L 228.121807 48.842351 
L 228.449117 70.600149 
L 228.530944 69.693805 
L 228.694599 68.114527 
L 228.776427 54.773628 
L 229.02191 69.741656 
L 229.103737 68.477182 
L 229.185565 72.233594 
L 229.267392 71.182895 
L 229.512875 60.811048 
L 229.594702 55.861558 
L 229.840185 74.850361 
L 230.00384 72.399672 
L 230.085667 74.170522 
L 230.167495 72.514508 
L 230.249323 75.913895 
L 230.33115 69.628908 
L 230.412978 81.02854 
L 230.494805 79.20018 
L 230.740288 54.915377 
L 230.822115 59.871173 
L 230.903943 59.913927 
L 231.149425 47.367018 
L 231.31308 56.477754 
L 231.394908 48.641599 
L 231.476736 49.243386 
L 231.558563 54.700802 
L 231.722218 43.687897 
L 231.885873 52.735703 
L 231.967701 45.230587 
L 232.049528 46.134077 
L 232.131356 44.121618 
L 232.295011 56.762004 
L 232.376838 56.645725 
L 232.458666 48.794905 
L 232.540494 49.383215 
L 232.622321 47.083466 
L 232.704149 40.512442 
L 232.785976 42.267346 
L 232.867804 38.958297 
L 233.113286 42.957586 
L 233.195114 48.970917 
L 233.276941 45.069081 
L 233.358769 45.986947 
L 233.522424 47.586355 
L 233.767907 61.461661 
L 234.013389 42.104875 
L 234.095217 55.938314 
L 234.177044 51.420398 
L 234.340699 52.101355 
L 234.504354 60.411873 
L 234.586182 59.972945 
L 234.668009 51.828181 
L 234.749837 52.148363 
L 234.831664 52.440232 
L 234.99532 57.85749 
L 235.077147 60.914545 
L 235.404457 84.802061 
L 235.568112 80.669692 
L 235.64994 73.964714 
L 235.97725 86.637356 
L 236.059078 84.313269 
L 236.386388 58.494564 
L 236.468215 63.133827 
L 236.63187 54.919775 
L 236.795525 62.898647 
L 236.877353 62.673861 
L 236.95918 62.468951 
L 237.041008 57.373492 
L 237.122835 62.111879 
L 237.204663 49.303341 
L 237.286491 54.755405 
L 237.368318 50.342068 
L 237.531973 56.11386 
L 237.613801 51.580368 
L 237.695628 56.831053 
L 237.777456 52.234122 
L 237.859283 57.426988 
L 237.941111 45.032661 
L 238.186593 59.527066 
L 238.350248 47.698683 
L 238.432076 48.383914 
L 238.513904 41.263829 
L 238.595731 47.426828 
L 238.677559 43.66147 
L 238.923041 58.488375 
L 239.004869 53.744759 
L 239.086696 53.895264 
L 239.250351 54.157503 
L 239.414006 44.479502 
L 239.577661 49.314353 
L 239.741317 50.350917 
L 239.823144 55.710269 
L 239.904972 43.467417 
L 239.986799 44.526725 
L 240.068627 50.401129 
L 240.150454 46.372569 
L 240.232282 47.174943 
L 240.395937 48.573075 
L 240.559592 54.643637 
L 240.886902 56.411113 
L 240.96873 44.10606 
L 241.050557 45.108804 
L 241.214212 53.916078 
L 241.29604 58.960106 
L 241.377867 54.174476 
L 241.459695 54.28679 
L 241.787005 74.358945 
L 241.868832 73.120337 
L 241.95066 67.082369 
L 242.196143 76.913537 
L 242.441625 53.18284 
L 242.60528 65.533991 
L 242.687108 60.166781 
L 242.768935 64.657968 
L 242.850763 64.277149 
L 242.93259 59.021038 
L 243.341728 77.742476 
L 243.505383 64.076199 
L 243.669038 48.640941 
L 243.750866 49.676456 
L 243.832693 58.365613 
L 244.160003 40.574515 
L 244.241831 41.889187 
L 244.405486 29.374354 
L 244.650969 35.696173 
L 244.814624 43.942949 
L 244.978279 46.716368 
L 245.060106 43.012818 
L 245.141934 44.111777 
L 245.223761 42.27729 
L 245.305589 43.875423 
L 245.387416 40.423059 
L 245.632899 51.125456 
L 245.714727 51.506931 
L 245.796554 59.600129 
L 245.878382 59.232138 
L 245.960209 63.805882 
L 246.042037 63.500089 
L 246.123864 63.22133 
L 246.205692 50.312485 
L 246.287519 50.765798 
L 246.533002 70.989982 
L 246.614829 57.394011 
L 246.696657 62.130286 
L 246.778485 64.80892 
L 246.860312 63.980194 
L 246.94214 75.879611 
L 247.105795 66.193215 
L 247.187622 68.512522 
L 247.433105 65.341333 
L 247.59676 56.606337 
L 247.678587 61.412234 
L 247.760415 48.662929 
L 247.92407 54.717337 
L 248.005898 55.215089 
L 248.169553 65.979525 
L 248.333208 57.136427 
L 248.415035 61.895428 
L 248.57869 56.723988 
L 248.660518 61.519456 
L 248.742345 61.415601 
L 248.824173 53.575112 
L 248.987828 61.78035 
L 249.233311 42.340444 
L 249.396966 56.524364 
L 249.642448 44.795479 
L 249.724276 53.482256 
L 249.806103 50.818475 
L 249.887931 43.914951 
L 250.051586 56.589624 
L 250.133413 56.487465 
L 250.215241 53.557882 
L 250.542551 68.586502 
L 250.624379 67.857547 
L 250.706206 67.193051 
L 250.869861 61.125611 
L 250.951689 60.622259 
L 251.033516 72.818965 
L 251.115344 71.715682 
L 251.360827 54.774848 
L 251.442654 50.357709 
L 251.524482 50.806574 
L 251.688137 64.244351 
L 251.769964 56.153255 
L 251.851792 56.523757 
L 251.933619 51.951912 
L 252.015447 52.259772 
L 252.179102 52.796214 
L 252.260929 45.283299 
L 252.506412 59.715621 
L 252.751895 59.867666 
L 252.997377 47.327066 
L 253.161032 48.697327 
L 253.24286 61.948742 
L 253.406515 46.869917 
L 253.488342 48.061354 
L 253.57017 41.40127 
L 253.651997 43.076329 
L 253.733825 44.603256 
L 253.815653 33.339362 
L 254.061135 59.941766 
L 254.142963 51.796859 
L 254.306618 64.382289 
L 254.388445 51.369239 
L 254.470273 64.384406 
L 254.633928 51.730377 
L 254.715755 64.71361 
L 254.797583 56.5809 
L 254.87941 56.913572 
L 254.961238 52.307198 
L 255.124893 57.745259 
L 255.206721 57.974971 
L 255.288548 45.528594 
L 255.370376 51.314139 
L 255.452203 44.366453 
L 255.534031 48.615867 
L 255.615858 41.472635 
L 255.697686 47.616884 
L 255.779513 36.086584 
L 255.861341 37.797548 
L 255.943168 47.103337 
L 256.024996 45.003523 
L 256.106824 41.45051 
L 256.188651 42.687139 
L 256.270479 43.814414 
L 256.515961 58.603271 
L 256.597789 46.101525 
L 256.679616 51.836462 
L 256.761444 47.679256 
L 256.843271 48.3651 
L 256.925099 53.899868 
L 257.006926 49.560218 
L 257.088754 62.73535 
L 257.170581 62.523903 
L 257.252409 62.331162 
L 257.334237 57.245929 
L 257.416064 61.995331 
L 257.497892 56.939821 
L 257.579719 61.7163 
L 257.661547 56.685492 
L 257.743374 64.320936 
L 257.825202 63.535151 
L 257.988857 55.104984 
L 258.070684 60.043746 
L 258.152512 55.16093 
L 258.234339 55.185262 
L 258.316167 60.116935 
L 258.397994 47.481766 
L 258.479822 48.185243 
L 258.56165 56.57242 
L 258.643477 56.471973 
L 258.725305 56.380419 
L 258.807132 61.206419 
L 258.88896 61.130354 
L 258.970787 56.151589 
L 259.052615 68.743682 
L 259.21627 62.414735 
L 259.379925 73.890435 
L 259.461752 67.783305 
L 259.54358 71.600903 
L 259.625408 70.605665 
L 259.707235 57.043306 
L 259.789063 61.810719 
L 259.952718 56.654007 
L 260.034545 56.546505 
L 260.280028 68.247845 
L 260.361855 67.549223 
L 260.52551 53.676915 
L 260.607338 58.742073 
L 260.689165 53.974845 
L 260.770993 54.10437 
L 260.852821 59.131737 
L 260.934648 54.330101 
L 261.016476 54.428241 
L 261.098303 54.517714 
L 261.180131 46.853712 
L 261.261958 47.613073 
L 261.425613 53.84554 
L 261.671096 55.423104 
L 261.752923 50.949635 
L 261.834751 51.346854 
L 261.998406 56.94823 
L 262.080234 52.339964 
L 262.162061 57.523441 
L 262.325716 45.346917 
L 262.489371 54.113974 
L 262.653026 59.247693 
L 262.816681 47.464916 
L 262.898509 48.170486 
L 263.143992 69.649084 
L 263.307647 56.108206 
L 263.471302 63.741142 
L 263.553129 63.0074 
L 263.634957 59.502394 
L 263.798612 66.706493 
L 264.044094 78.661704 
L 264.207749 62.912776 
L 264.289577 67.161332 
L 264.53506 65.51046 
L 264.616887 60.14563 
L 264.780542 67.096178 
L 265.107852 49.878963 
L 265.271507 62.789079 
L 265.353335 62.573916 
L 265.435162 54.632933 
L 265.51699 62.883945 
L 265.598818 62.660428 
L 265.680645 49.803091 
L 265.762473 50.30232 
L 265.8443 50.757412 
L 266.007955 44.4906 
L 266.17161 58.311669 
L 266.253438 53.583893 
L 266.335265 53.748854 
L 266.417093 58.807938 
L 266.580748 51.325344 
L 266.662576 52.124197 
L 266.744403 47.943754 
L 266.826231 48.607593 
L 266.908058 49.212738 
L 267.071713 62.235554 
L 267.235368 61.91837 
L 267.317196 49.127386 
L 267.480851 69.90914 
L 267.562678 69.064637 
L 267.644506 55.641803 
L 267.889989 69.775399 
L 267.971816 68.508695 
L 268.053644 72.262537 
L 268.135471 66.30148 
L 268.217299 77.994898 
L 268.380954 70.105376 
L 268.462781 73.718024 
L 268.626436 66.551597 
L 268.708264 65.570089 
L 268.953746 82.204173 
L 269.035574 67.619856 
L 269.117402 71.452329 
L 269.199229 70.471546 
L 269.362884 49.050618 
L 269.444712 62.269487 
L 269.526539 57.192465 
L 269.608367 61.947113 
L 269.690194 61.806992 
L 269.853849 48.910374 
L 269.935677 57.233256 
L 270.181159 50.366991 
L 270.262987 50.81697 
L 270.344815 58.971234 
L 270.50847 51.317678 
L 270.672125 56.925485 
L 270.83578 57.506782 
L 270.999435 46.022452 
L 271.081262 51.764986 
L 271.16309 47.617263 
L 271.244917 48.310535 
L 271.408573 49.518599 
L 271.4904 62.695878 
L 271.572228 57.581546 
L 271.654055 62.301854 
L 271.735883 62.130585 
L 271.81771 61.974472 
L 271.981365 46.899589 
L 272.063193 48.090477 
L 272.308675 39.100597 
L 272.47233 46.773988 
L 272.554158 47.976045 
L 272.635986 44.163695 
L 272.717813 45.162569 
L 272.881468 39.844237 
L 272.963296 41.225143 
L 273.045123 34.74023 
L 273.126951 41.480608 
L 273.290606 32.706543 
L 273.372433 47.370448 
L 273.454261 43.611843 
L 273.536088 41.824036 
L 273.699743 44.958936 
L 273.863399 27.853567 
L 273.945226 30.295043 
L 274.027054 37.428595 
L 274.108881 34.549383 
L 274.354364 50.963723 
L 274.518019 52.553778 
L 274.599846 56.080526 
L 274.681674 48.282373 
L 274.845329 54.404017 
L 275.254467 56.61509 
L 275.336294 52.039389 
L 275.418122 52.342171 
L 275.499949 52.618188 
L 275.663604 58.006988 
L 275.745432 50.472814 
L 275.827259 51.348217 
L 275.909087 52.146213 
L 275.990914 60.616877 
L 276.072742 60.595204 
L 276.236397 55.649719 
L 276.318225 60.541076 
L 276.400052 60.526145 
L 276.48188 52.769391 
L 276.563707 53.441781 
L 276.727362 54.613457 
L 276.80919 50.215102 
L 276.972845 70.811744 
L 277.054672 69.888585 
L 277.218327 56.314051 
L 277.381983 68.136566 
L 277.627465 66.253753 
L 277.79112 72.317955 
L 277.872948 66.354062 
L 278.036603 79.314631 
L 278.363913 69.097732 
L 278.527568 59.880109 
L 278.691223 67.021792 
L 278.773051 66.433919 
L 278.854878 65.898038 
L 279.018533 57.221405 
L 279.345843 58.19738 
L 279.591326 65.159359 
L 279.673154 59.828713 
L 279.754981 67.185823 
L 279.836809 66.149486 
L 279.918636 62.369496 
L 280.164119 68.319592 
L 280.245946 62.709493 
L 280.327774 66.976525 
L 280.491429 60.953013 
L 280.573256 60.467885 
L 280.736911 71.58808 
L 280.900567 64.784985 
L 280.982394 76.611239 
L 281.064222 70.267872 
L 281.146049 73.866459 
L 281.227877 72.67331 
L 281.309704 66.678188 
L 281.473359 84.491277 
L 281.637014 75.506858 
L 281.800669 86.919959 
L 281.882497 89.045894 
L 282.046152 64.490594 
L 282.12798 68.600053 
L 282.209807 62.965073 
L 282.291635 67.209436 
L 282.373462 66.60493 
L 282.537117 60.644033 
L 282.618945 65.093645 
L 282.700772 64.676225 
L 282.864427 63.948847 
L 282.946255 66.46797 
L 283.10991 64.608044 
L 283.191738 56.056649 
L 283.273565 60.911918 
L 283.43722 55.913236 
L 283.600875 55.837486 
L 283.846358 68.39765 
L 284.09184 58.708284 
L 284.173668 66.598393 
L 284.255495 66.047771 
L 284.337323 60.63822 
L 284.419151 65.088279 
L 284.582806 59.383326 
L 284.664633 59.036715 
L 284.910116 43.993021 
L 284.991943 57.658118 
L 285.073771 45.247323 
L 285.155598 46.150774 
L 285.482908 74.607393 
L 285.564736 76.183795 
L 285.810219 64.724097 
L 285.973874 63.158431 
L 286.137529 81.566723 
L 286.219356 79.692194 
L 286.383011 64.459566 
L 286.464839 63.66384 
L 286.546666 67.846246 
L 286.710322 61.674475 
L 286.792149 66.032797 
L 286.873977 57.788636 
L 286.955804 58.016806 
L 287.283114 71.668539 
L 287.364942 70.669205 
L 287.446769 64.850382 
L 287.528597 68.927814 
L 287.610424 63.262953 
L 287.692252 67.48076 
L 287.774079 59.108308 
L 287.855907 62.055185 
L 288.019562 53.881522 
L 288.10139 46.277584 
L 288.265045 59.796279 
L 288.346872 54.938799 
L 288.510527 59.934626 
L 288.592355 55.064862 
L 288.837837 69.96258 
L 288.919665 68.679886 
L 289.001492 67.510614 
L 289.08332 71.352734 
L 289.165148 65.473102 
L 289.656113 91.502625 
L 289.819768 66.528192 
L 289.901595 70.457145 
L 289.983423 77.308332 
L 290.06525 75.809901 
L 290.147078 69.535862 
L 290.228906 73.198819 
L 290.310733 67.155646 
L 290.392561 71.029086 
L 290.556216 64.317942 
L 290.638043 63.534159 
L 290.719871 55.075821 
L 290.801698 60.017506 
L 290.883526 52.304165 
L 290.965353 53.016817 
L 291.047181 53.666438 
L 291.292663 36.203431 
L 291.456319 44.365924 
L 291.538146 33.128311 
L 291.783629 57.630111 
L 291.865456 52.963427 
L 291.947284 53.183639 
L 292.029111 58.292655 
L 292.274594 44.615471 
L 292.356421 41.099665 
L 292.438249 42.369013 
L 292.520076 35.782019 
L 292.683732 46.16664 
L 292.765559 46.987886 
L 292.929214 61.071366 
L 293.011042 56.100244 
L 293.092869 60.951347 
L 293.256524 48.199126 
L 293.338352 48.840615 
L 293.502007 49.958419 
L 293.583834 55.352681 
L 293.665662 50.887258 
L 293.74749 56.199382 
L 293.829317 51.659078 
L 294.0748 60.323383 
L 294.156627 64.801032 
L 294.238455 59.500036 
L 294.320282 64.0505 
L 294.40211 58.815876 
L 294.483937 63.426845 
L 294.565765 50.503199 
L 294.647592 63.59348 
L 294.72942 63.307647 
L 294.811247 55.302916 
L 294.893075 55.750264 
L 294.974903 51.249681 
L 295.05673 64.27396 
L 295.220385 55.868385 
L 295.302213 56.26574 
L 295.38404 64.37213 
L 295.465868 51.364921 
L 295.547695 59.470649 
L 295.629523 59.115378 
L 295.875005 58.227229 
L 296.03866 70.41085 
L 296.120488 69.522171 
L 296.284143 63.065293 
L 296.529626 87.365981 
L 296.611453 87.813669 
L 296.693281 89.860252 
L 296.775108 87.251572 
L 296.856936 79.965254 
L 296.938763 82.705913 
L 297.266074 50.836731 
L 297.429729 56.52562 
L 297.593384 57.174246 
L 297.838866 45.295155 
L 297.920694 51.101921 
L 298.002521 47.012618 
L 298.084349 47.759205 
L 298.248004 49.060171 
L 298.411659 43.082051 
L 298.493487 44.176294 
L 298.657142 46.083061 
L 298.820797 52.575792 
L 298.902624 40.612327 
L 298.984452 41.92506 
L 299.066279 48.029953 
L 299.148107 36.468599 
L 299.311762 46.737675 
L 299.393589 39.76486 
L 299.475417 46.060834 
L 299.557244 42.417693 
L 299.639072 43.570893 
L 299.802727 45.580405 
L 299.884555 51.362112 
L 299.966382 47.250271 
L 300.04821 52.884316 
L 300.130037 48.63791 
L 300.37552 58.036053 
L 300.621002 43.232883 
L 300.70283 49.222277 
L 300.948313 37.747532 
L 301.111968 41.571803 
L 301.193795 38.326256 
L 301.602933 76.167884 
L 301.68476 69.862945 
L 301.766588 76.332867 
L 301.848415 74.487233 
L 301.930243 72.804842 
L 302.012071 76.179088 
L 302.093898 74.781135 
L 302.175726 65.763554 
L 302.257553 73.030022 
L 302.339381 67.002846 
L 302.421208 70.890236 
L 302.503036 69.960111 
L 302.584863 64.204529 
L 302.666691 76.08256 
L 302.748518 69.785587 
L 302.912173 75.107937 
L 303.157656 63.91011 
L 303.403139 74.512986 
L 303.484966 68.355111 
L 303.566794 72.122988 
L 303.730449 65.229557 
L 303.812276 69.273868 
L 303.975931 62.862239 
L 304.057759 67.115927 
L 304.139586 61.612486 
L 304.221414 65.976711 
L 304.385069 45.322079 
L 304.548724 47.037769 
L 304.630552 44.948371 
L 304.712379 46.312998 
L 304.794207 34.907036 
L 305.121517 56.072919 
L 305.285172 55.971557 
L 305.366999 60.834775 
L 305.448827 48.14505 
L 305.530655 48.793235 
L 305.69431 49.922777 
L 306.267102 88.361431 
L 306.34893 73.238008 
L 306.430757 76.5743 
L 306.512585 70.235465 
L 306.594412 73.837306 
L 306.67624 59.998612 
L 306.758068 64.505793 
L 306.921723 63.809195 
L 307.085378 43.52447 
L 307.167205 44.581742 
L 307.412688 62.023898 
L 307.494515 61.44521 
L 307.65817 60.436908 
L 307.821825 74.397779 
L 307.903653 80.466482 
L 307.985481 78.256895 
L 308.067308 88.891008 
L 308.149136 86.370335 
L 308.230963 79.165919 
L 308.312791 81.978092 
L 308.640101 75.295846 
L 308.885583 59.71734 
L 308.967411 64.249536 
L 309.131066 58.690701 
L 309.294721 58.148766 
L 309.376549 62.819708 
L 309.458376 57.698518 
L 309.540204 65.243992 
L 309.622031 64.381012 
L 309.785686 55.820796 
L 309.867514 60.697648 
L 309.949341 55.764309 
L 310.031169 60.646168 
L 310.112996 60.623815 
L 310.276652 60.584915 
L 310.440307 55.646338 
L 310.603962 68.266818 
L 310.685789 62.664352 
L 310.767617 66.936033 
L 310.849444 61.451315 
L 310.931272 65.830283 
L 311.013099 65.349643 
L 311.258582 56.407411 
L 311.340409 51.853992 
L 311.422237 57.081752 
L 311.504065 52.468755 
L 311.66772 57.885789 
L 311.749547 45.461157 
L 311.831375 46.348209 
L 311.99503 59.856058 
L 312.076857 59.903984 
L 312.158685 67.688205 
L 312.240512 62.137467 
L 312.485995 74.698222 
L 312.64965 84.09792 
L 312.731478 89.742454 
L 312.813305 82.241473 
L 312.895133 84.781914 
L 312.97696 77.719672 
L 313.058788 88.400327 
L 313.222443 78.760851 
L 313.30427 81.609112 
L 313.467925 73.117788 
L 313.549753 71.559234 
L 313.63158 75.044387 
L 313.877063 64.436999 
L 313.958891 59.174207 
L 314.040718 63.754659 
L 314.122546 63.458062 
L 314.204373 63.187705 
L 314.286201 58.035464 
L 314.368028 70.456741 
L 314.449856 69.56747 
L 314.695338 67.344362 
L 314.777166 61.82461 
L 314.858993 73.91073 
L 314.940821 67.810298 
L 315.022649 74.461305 
L 315.104476 72.784102 
L 315.186304 76.160959 
L 315.268131 74.767295 
L 315.349959 68.591168 
L 315.431786 72.338832 
L 315.513614 58.637516 
L 315.595441 63.265444 
L 315.759096 57.875733 
L 315.840924 62.571034 
L 315.922751 62.379255 
L 316.004579 62.204441 
L 316.168234 56.994174 
L 316.250062 61.767444 
L 316.331889 61.646759 
L 316.495544 68.491885 
L 316.659199 62.218804 
L 316.741027 66.530033 
L 316.822854 61.082557 
L 317.068337 73.899256 
L 317.150164 77.177513 
L 317.231992 70.788449 
L 317.395647 80.848963 
L 317.477475 79.040832 
L 317.559302 77.392606 
L 317.64113 70.984538 
L 317.722957 74.520549 
L 317.804785 73.272078 
L 318.050267 48.924427 
L 318.132095 49.939572 
L 318.29575 39.063115 
L 318.377577 40.516541 
L 318.786715 46.068531 
L 318.868543 51.808039 
L 318.95037 39.922917 
L 319.032198 46.205927 
L 319.114025 42.556006 
L 319.195853 43.700612 
L 319.359508 50.600674 
L 319.441335 46.562149 
L 319.60499 62.867895 
L 319.686818 62.216244 
L 319.768646 66.527752 
L 319.850473 65.98627 
L 319.932301 65.492679 
L 320.014128 60.137236 
L 320.095956 67.466755 
L 320.259611 58.388525 
L 320.341438 63.038548 
L 320.423266 50.160558 
L 320.505093 50.63275 
L 320.586921 55.968671 
L 320.668748 51.455573 
L 320.750576 51.813263 
L 320.832404 52.139327 
L 320.914231 65.081609 
L 320.996059 59.762645 
L 321.241541 71.373932 
L 321.323369 62.664431 
L 321.405196 65.298824 
L 321.568851 53.753285 
L 321.732506 54.878003 
L 321.814334 58.201019 
L 321.896161 50.222765 
L 321.977989 50.689583 
L 322.059817 51.115126 
L 322.141644 56.408437 
L 322.223472 49.022589 
L 322.305299 50.029392 
L 322.468954 39.138983 
L 322.550782 40.586084 
L 322.714437 55.068032 
L 322.796264 55.540265 
L 322.959919 48.623793 
L 323.123574 60.504944 
L 323.28723 71.619601 
L 323.369057 70.62814 
L 323.450885 64.81908 
L 323.532712 68.900531 
L 323.61454 68.149558 
L 323.94185 46.678272 
L 324.023677 52.364051 
L 324.350988 40.060444 
L 324.514643 50.555373 
L 324.59647 46.521738 
L 324.760125 60.684779 
L 324.92378 55.733342 
L 325.005608 55.713249 
L 325.087435 60.600082 
L 325.169263 55.678278 
L 325.25109 68.307251 
L 325.332918 54.964867 
L 325.414745 59.917901 
L 325.578401 47.357393 
L 325.742056 60.694806 
L 325.823883 52.930921 
L 325.905711 53.592601 
L 326.069366 61.800128 
L 326.151193 61.677485 
L 326.396676 61.370961 
L 326.560331 56.304235 
L 326.642158 68.877675 
L 326.723986 60.390451 
L 326.805814 60.392589 
L 326.887641 60.394552 
L 327.133124 40.701675 
L 327.214951 42.011351 
L 327.296779 43.205223 
L 327.378606 52.032157 
L 327.460434 49.506091 
L 327.542261 45.566138 
L 327.624089 46.445715 
L 327.705916 52.152331 
L 327.787744 45.144712 
L 327.951399 54.780749 
L 328.033227 55.279268 
L 328.115054 50.828979 
L 328.360537 71.662357 
L 328.442364 70.667999 
L 328.524192 64.856923 
L 328.606019 76.673687 
L 328.687847 75.236187 
L 328.851502 72.731375 
L 328.933329 79.380806 
L 329.015157 77.703955 
L 329.096985 76.175414 
L 329.178812 82.520248 
L 329.26064 80.565793 
L 329.342467 73.879649 
L 329.424295 84.898301 
L 329.506122 77.829047 
L 329.58795 80.760302 
L 329.669777 74.057044 
L 329.751605 80.155452 
L 329.833432 77.976483 
L 329.91526 75.990227 
L 330.160742 82.982828 
L 330.324398 67.210729 
L 330.406225 66.176621 
L 330.733535 81.949543 
L 330.815363 80.04575 
L 330.89719 81.143825 
L 331.060845 76.81176 
L 331.142673 82.666484 
L 331.306328 75.927861 
L 331.469983 73.306695 
L 331.715466 63.128399 
L 331.797293 65.722609 
L 331.879121 72.557996 
L 331.960948 71.051124 
L 332.042776 69.67752 
L 332.370086 80.086307 
L 332.451913 82.817967 
L 332.533741 75.933209 
L 332.697396 80.219907 
L 332.779224 78.035481 
L 332.861051 68.306545 
L 332.942879 72.07995 
L 333.024706 71.049103 
L 333.106534 65.205166 
L 333.188361 69.252845 
L 333.352016 62.856007 
L 333.433844 67.111438 
L 333.515671 58.78234 
L 333.597499 58.927499 
L 333.761154 59.180458 
L 333.842982 54.386195 
L 334.006637 62.315477 
L 334.088464 53.976881 
L 334.252119 66.195314 
L 334.333947 65.684953 
L 334.415774 60.315524 
L 334.497602 64.795659 
L 334.743084 51.093745 
L 334.988567 66.334541 
L 335.070395 57.640667 
L 335.23405 69.23977 
L 335.315877 63.556082 
L 335.479532 74.155179 
L 335.643187 59.876762 
L 335.725015 72.133235 
L 335.88867 62.416562 
L 335.970497 65.073853 
L 336.134153 78.249726 
L 336.461463 71.214908 
L 336.54329 74.731186 
L 336.788773 59.304426 
L 336.8706 71.611441 
L 337.116083 49.827783 
L 337.279738 62.747686 
L 337.443393 62.355334 
L 337.525221 57.28074 
L 337.607048 69.766696 
L 337.770703 63.283795 
L 337.852531 62.597486 
L 337.934358 74.613228 
L 338.016186 73.358691 
L 338.098013 72.215106 
L 338.179841 66.268651 
L 338.261668 70.222416 
L 338.343496 64.452211 
L 338.425323 68.566621 
L 338.507151 55.205611 
L 338.588979 60.137764 
L 338.670806 55.259468 
L 338.752634 63.020132 
L 338.834461 62.357245 
L 338.916289 66.656953 
L 339.079944 60.700104 
L 339.161771 72.883563 
L 339.407254 57.906037 
L 339.489081 62.599424 
L 339.570909 57.503613 
L 339.652737 65.065821 
L 339.734564 64.222143 
L 339.816392 63.45309 
L 339.898219 55.014977 
L 339.980047 55.060202 
L 340.143702 60.042905 
L 340.225529 60.077196 
L 340.307357 47.467618 
L 340.471012 60.786729 
L 340.552839 48.114529 
L 340.716494 54.271595 
L 340.961977 43.125187 
L 341.125632 57.178515 
L 341.289287 57.728771 
L 341.371115 53.064313 
L 341.452942 65.922849 
L 341.53477 57.700717 
L 341.616597 57.942493 
L 341.698425 53.259283 
L 341.943907 65.766511 
L 342.025735 60.391516 
L 342.18939 71.526038 
L 342.271218 70.545313 
L 342.434873 63.932971 
L 342.5167 68.09366 
L 342.680355 54.159574 
L 342.762183 54.281214 
L 342.925838 54.493257 
L 343.089493 39.881225 
L 343.171321 41.265781 
L 343.416803 44.727331 
L 343.498631 37.947361 
L 343.580458 39.503142 
L 343.662286 53.560601 
L 343.744113 49.266068 
L 343.825941 57.556901 
L 343.907768 57.37858 
L 343.989596 62.11918 
L 344.153251 56.932995 
L 344.235078 69.448807 
L 344.316906 68.652552 
L 344.398734 55.288071 
L 344.562389 75.021358 
L 344.644216 68.829485 
L 344.726044 67.654583 
L 344.807871 71.486493 
L 345.053354 56.855182 
L 345.135181 69.377575 
L 345.217009 68.587995 
L 345.380664 62.309559 
L 345.462491 66.614279 
L 345.544319 58.334092 
L 345.626147 61.353856 
L 345.707974 60.84055 
L 345.789802 60.372679 
L 345.871629 72.583732 
L 345.953457 66.608414 
L 346.117112 76.692466 
L 346.198939 75.256384 
L 346.362594 67.851729 
L 346.444422 71.666437 
L 346.608077 64.868971 
L 346.689904 64.045235 
L 346.935387 76.147496 
L 347.099042 72.666454 
L 347.262697 81.726419 
L 347.344525 79.845605 
L 347.426352 80.963306 
L 347.50818 83.618548 
L 347.590007 81.570484 
L 347.671835 74.80161 
L 347.753662 78.001814 
L 347.917318 70.134672 
L 347.999145 73.747644 
L 348.1628 59.550047 
L 348.244628 59.19735 
L 348.326455 71.511434 
L 348.49011 57.692379 
L 348.571938 57.504121 
L 348.653765 54.500613 
L 348.735593 55.028194 
L 348.81742 42.87399 
L 348.899248 48.898044 
L 348.981075 45.019669 
L 349.062903 50.853999 
L 349.144731 43.97094 
L 349.226558 45.430036 
L 349.472041 55.503861 
L 349.553868 55.943164 
L 349.717523 71.490975 
L 349.799351 70.516491 
L 349.881178 69.628233 
L 350.044833 75.129547 
L 350.208488 65.603081 
L 350.290316 65.149574 
L 350.453971 51.725839 
L 350.699454 60.392322 
L 350.781281 64.867427 
L 350.863109 64.479301 
L 350.944936 64.125547 
L 351.026764 58.902321 
L 351.108591 63.509267 
L 351.190419 63.241444 
L 351.354074 57.874228 
L 351.435902 57.67153 
L 351.517729 70.119331 
L 351.845039 45.932672 
L 352.008694 55.44098 
L 352.090522 55.887279 
L 352.172349 51.393841 
L 352.254177 51.764829 
L 352.336004 64.734663 
L 352.417832 64.359224 
L 352.581487 51.073869 
L 352.663315 64.10465 
L 352.745142 58.885089 
L 352.82697 63.49395 
L 352.908797 58.328586 
L 352.990625 62.986703 
L 353.15428 50.618493 
L 353.236107 63.689254 
L 353.317935 63.406875 
L 353.48159 50.968461 
L 353.563417 51.37802 
L 353.645245 48.920678 
L 353.8089 50.878368 
L 354.054383 69.512929 
L 354.218038 67.161549 
L 354.299865 58.409701 
L 354.381693 63.060999 
L 354.46352 50.206161 
L 354.545348 50.683915 
L 354.627175 56.018578 
L 354.79083 42.002434 
L 354.872658 43.639289 
L 354.954486 52.860694 
L 355.036313 48.638482 
L 355.118141 54.154219 
L 355.363623 43.06923 
L 355.690933 46.953907 
L 355.854588 53.317642 
L 355.936416 49.056383 
L 356.018243 49.637218 
L 356.100071 55.064967 
L 356.181899 50.649557 
L 356.345554 56.389097 
L 356.591036 57.392687 
L 356.672864 65.397541 
L 356.836519 52.632845 
L 357.000174 58.037903 
L 357.082001 53.361028 
L 357.163829 58.459785 
L 357.245656 53.745872 
L 357.327484 53.913287 
L 357.491139 59.1025 
L 357.654794 47.405061 
L 357.736622 48.133742 
L 357.818449 53.695072 
L 357.900277 41.677585 
L 357.982104 55.536055 
L 358.145759 36.717649 
L 358.227587 43.288874 
L 358.309414 39.918708 
L 358.391242 41.310322 
L 358.47307 55.200898 
L 358.554897 50.777627 
L 358.718552 63.540759 
L 358.80038 63.276551 
L 359.12769 75.327028 
L 359.209517 74.020779 
L 359.455 56.613121 
L 359.536827 52.066771 
L 359.618655 57.280911 
L 359.700483 52.675812 
L 359.78231 57.836148 
L 359.945965 38.638447 
L 360.10962 41.518837 
L 360.191448 55.38942 
L 360.273275 50.952782 
L 360.355103 51.370805 
L 360.600585 78.490752 
L 360.682413 72.011654 
L 360.76424 75.462157 
L 360.927896 65.906616 
L 361.009723 65.435606 
L 361.418861 75.385525 
L 361.582516 60.951122 
L 361.664343 60.486316 
L 361.746171 72.677711 
L 361.827998 71.608679 
L 361.909826 78.355267 
L 362.073481 70.4587 
L 362.155309 69.153508 
L 362.318964 81.637662 
L 362.482619 70.215714 
L 362.646274 79.693175 
L 362.728101 78.004519 
L 362.809929 71.572319 
L 362.973584 80.820437 
L 363.055411 79.032374 
L 363.137239 85.122039 
L 363.219067 82.953657 
L 363.382722 79.175485 
L 363.464549 72.640746 
L 363.546377 76.036348 
L 363.628204 74.671901 
L 363.791859 52.647297 
L 363.873687 57.81132 
L 363.955514 53.166919 
L 364.119169 58.491082 
L 364.200997 58.678979 
L 364.282824 53.958385 
L 364.364652 66.7248 
L 364.44648 66.184696 
L 364.610135 65.243797 
L 364.691962 59.943249 
L 364.77379 64.462273 
L 364.855617 64.12267 
L 364.937445 58.921693 
L 365.019272 63.53115 
L 365.1011 63.274141 
L 365.182927 58.14863 
L 365.264755 70.543711 
L 365.42841 63.976208 
L 365.510237 68.138764 
L 365.673893 61.97849 
L 365.75572 66.317812 
L 365.919375 60.466042 
L 366.001203 60.048491 
L 366.08303 51.951724 
L 366.164858 52.287418 
L 366.246685 65.200101 
L 366.328513 52.190267 
L 366.41034 52.505144 
L 366.737651 53.510613 
L 366.819478 45.993858 
L 366.901306 46.857396 
L 367.064961 60.285054 
L 367.228616 60.346819 
L 367.392271 67.430866 
L 367.474098 61.941915 
L 367.555926 66.285191 
L 367.637753 65.787321 
L 367.801408 60.030793 
L 367.883236 59.654026 
L 368.046891 66.711543 
L 368.128719 65.744184 
L 368.292374 61.916495 
L 368.374201 61.805913 
L 368.537856 56.724893 
L 368.619684 56.641497 
L 368.701511 61.45408 
L 368.865166 56.433664 
L 369.028821 56.324491 
L 369.274304 74.521293 
L 369.437959 67.293489 
L 369.519787 71.16427 
L 369.683442 57.475515 
L 369.847097 57.192379 
L 369.928924 61.956809 
L 370.092579 56.855718 
L 370.174407 56.762984 
L 370.338062 68.517119 
L 370.501717 67.195109 
L 370.583545 69.443879 
L 370.665372 80.834798 
L 370.829027 72.544594 
L 370.910855 83.660949 
L 370.992682 81.630589 
L 371.07451 74.893774 
L 371.156337 85.802038 
L 371.319992 68.964982 
L 371.483648 78.656301 
L 371.72913 59.569979 
L 371.810958 67.379522 
L 371.892785 66.790482 
L 371.974613 66.253665 
L 372.05644 60.879301 
L 372.301923 85.679067 
L 372.465578 76.575752 
L 372.547405 79.62688 
L 372.629233 77.955581 
L 372.956543 58.515289 
L 373.120198 58.891384 
L 373.202026 54.171142 
L 373.283853 59.204435 
L 373.365681 54.456983 
L 373.529336 74.30727 
L 373.611163 73.108086 
L 373.692991 72.015111 
L 373.856646 63.088005 
L 373.938474 65.70296 
L 374.020301 64.833754 
L 374.102129 64.04159 
L 374.183956 68.202404 
L 374.265784 67.544386 
L 374.347611 54.35878 
L 374.511266 59.499468 
L 374.593094 54.729729 
L 374.674921 62.535247 
L 374.756749 61.94778 
L 374.920404 60.924673 
L 375.084059 67.777063 
L 375.247714 65.769683 
L 375.329542 69.778535 
L 375.493197 56.358227 
L 375.575024 61.199828 
L 375.656852 61.164206 
L 375.820507 56.222346 
L 375.902334 53.376513 
L 375.984162 54.033783 
L 376.065989 54.633136 
L 376.147817 50.299881 
L 376.229645 50.798472 
L 376.3933 51.667967 
L 376.556955 57.270476 
L 376.638782 49.887492 
L 376.72061 50.855591 
L 376.802437 54.5569 
L 376.884265 46.984121 
L 377.04792 55.518551 
L 377.129747 55.558444 
L 377.293402 60.506327 
L 377.37523 47.964595 
L 377.457058 56.368904 
L 377.538885 53.517401 
L 377.70254 61.773839 
L 377.866195 56.745327 
L 377.948023 61.555748 
L 378.02985 56.620328 
L 378.111678 61.442055 
L 378.275333 49.462132 
L 378.35716 54.917597 
L 378.520816 43.364555 
L 378.684471 52.51799 
L 378.766298 50.014222 
L 378.848126 50.979208 
L 378.929953 46.985892 
L 379.093608 60.401767 
L 379.257263 48.613073 
L 379.339091 56.960381 
L 379.420918 56.882662 
L 379.748229 43.812832 
L 379.830056 44.900805 
L 379.993711 46.797889 
L 380.075539 60.175526 
L 380.239194 47.764009 
L 380.321021 48.505339 
L 380.484676 49.798526 
L 380.566504 55.229001 
L 380.648331 43.195692 
L 380.730159 44.344024 
L 380.811986 37.713071 
L 380.975642 45.704372 
L 381.139297 48.302705 
L 381.221124 57.108313 
L 381.302952 44.920588 
L 381.384779 50.785204 
L 381.466607 39.160335 
L 381.630262 53.907357 
L 381.712089 54.5452 
L 381.793917 42.594236 
L 381.875744 48.666387 
L 381.957572 44.908961 
L 382.121227 58.685172 
L 382.203055 54.044225 
L 382.36671 59.287354 
L 382.530365 59.608423 
L 382.612192 47.227541 
L 382.775847 53.628985 
L 382.857675 54.301131 
L 382.939502 42.398115 
L 383.266813 60.758133 
L 383.34864 57.570862 
L 383.430468 65.555451 
L 383.512295 65.177995 
L 383.67595 59.671937 
L 383.757778 59.388905 
L 383.839605 63.98147 
L 383.921433 51.247773 
L 384.00326 56.561874 
L 384.085088 52.138707 
L 384.166915 52.527343 
L 384.248743 52.882544 
L 384.494226 79.584328 
L 384.739708 63.367783 
L 384.821536 67.612111 
L 384.985191 54.768544 
L 385.148846 59.927948 
L 385.312501 60.196427 
L 385.394328 55.477104 
L 385.476156 55.586689 
L 385.557984 68.154079 
L 385.803466 40.807769 
L 385.885294 47.056075 
L 385.967121 43.514154 
L 386.048949 44.692375 
L 386.294431 47.645012 
L 386.376259 60.908812 
L 386.458086 56.152712 
L 386.539914 61.046236 
L 386.621741 48.669102 
L 386.703569 54.22695 
L 386.867224 40.962155 
L 386.949052 37.988168 
L 387.112707 41.213864 
L 387.194534 47.436973 
L 387.276362 36.299352 
L 387.358189 38.14335 
L 387.521844 46.175588 
L 387.603672 47.575837 
L 387.603672 47.575837 
" clip-path="url(#pbbf9fea951)" style="fill: none; stroke: #1f77b4; stroke-width: 1.5; stroke-linecap: square"/>
   </g>
   <g id="patch_3">
    <path d="M 60.080781 139.811562 
L 60.080781 10.8 
" style="fill: none; stroke: #000000; stroke-width: 0.8; stroke-linejoin: miter; stroke-linecap: square"/>
   </g>
   <g id="patch_4">
    <path d="M 403.2 139.811562 
L 403.2 10.8 
" style="fill: none; stroke: #000000; stroke-width: 0.8; stroke-linejoin: miter; stroke-linecap: square"/>
   </g>
   <g id="patch_5">
    <path d="M 60.080781 139.811563 
L 403.2 139.811563 
" style="fill: none; stroke: #000000; stroke-width: 0.8; stroke-linejoin: miter; stroke-linecap: square"/>
   </g>
   <g id="patch_6">
    <path d="M 60.080781 10.8 
L 403.2 10.8 
" style="fill: none; stroke: #000000; stroke-width: 0.8; stroke-linejoin: miter; stroke-linecap: square"/>
   </g>
  </g>
 </g>
 <defs>
  <clipPath id="pbbf9fea951">
   <rect x="60.080781" y="10.8" width="343.119219" height="129.011562"/>
  </clipPath>
 </defs>
</svg>
