<?xml version="1.0" encoding="utf-8" standalone="no"?>
<!DOCTYPE svg PUBLIC "-//W3C//DTD SVG 1.1//EN"
  "http://www.w3.org/Graphics/SVG/1.1/DTD/svg11.dtd">
<svg xmlns:xlink="http://www.w3.org/1999/xlink" width="414pt" height="180pt" viewBox="0 0 414 180" xmlns="http://www.w3.org/2000/svg" version="1.1">
 <metadata>
  <rdf:RDF xmlns:dc="http://purl.org/dc/elements/1.1/" xmlns:cc="http://creativecommons.org/ns#" xmlns:rdf="http://www.w3.org/1999/02/22-rdf-syntax-ns#">
   <cc:Work>
    <dc:type rdf:resource="http://purl.org/dc/dcmitype/StillImage"/>
    <dc:date>2026-03-03T20:06:22.090231</dc:date>
    <dc:format>image/svg+xml</dc:format>
    <dc:creator>
     <cc:Agent>
      <dc:title>Matplotlib v3.10.7, https://matplotlib.org/</dc:title>
     </cc:Agent>
    </dc:creator>
   </cc:Work>
  </rdf:RDF>
 </metadata>
 <defs>
  <style type="text/css">*{stroke-linejoin: round; stroke-linecap: butt}</style>
 </defs>
 <g id="figure_1">
  <g id="patch_1">
   <path d="M 0 180 
L 414 180 
L 414 0 
L 0 0 
L 0 180 
z
" style="fill: none"/>
  </g>
  <g id="axes_1">
   <g id="patch_2">
    <path d="M 61.924844 139.811563 
L 403.2 139.811563 
L 403.2 10.8 
L 61.924844 10.8 
L 61.924844 139.811563 
z
" style="fill: none"/>
   </g>
   <g id="matplotlib.axis_1">
    <g id="xtick_1">
     <g id="line2d_1">
      <defs>
       <path id="m16c87860ea" d="M 0 0 
L 0 3.5 
" style="stroke: #000000; stroke-width: 0.8"/>
      </defs>
      <g>
       <use xlink:href="#m16c87860ea" x="77.420114" y="139.811563" style="stroke: #000000; stroke-width: 0.8"/>
      </g>
     </g>
     <g id="text_1">
      <!-- 0 -->
      <g transform="translate(74.556989 153.650156) scale(0.09 -0.09)">
       <defs>
        <path id="DejaVuSans-30" d="M 2034 4250 
Q 1547 4250 1301 3770 
Q 1056 3291 1056 2328 
Q 1056 1369 1301 889 
Q 1547 409 2034 409 
Q 2525 409 2770 889 
Q 3016 1369 3016 2328 
Q 3016 3291 2770 3770 
Q 2525 4250 2034 4250 
z
M 2034 4750 
Q 2819 4750 3233 4129 
Q 3647 3509 3647 2328 
Q 3647 1150 3233 529 
Q 2819 -91 2034 -91 
Q 1250 -91 836 529 
Q 422 1150 422 2328 
Q 422 3509 836 4129 
Q 1250 4750 2034 4750 
z
" transform="scale(0.015625)"/>
       </defs>
       <use xlink:href="#DejaVuSans-30"/>
      </g>
     </g>
    </g>
    <g id="xtick_2">
     <g id="line2d_2">
      <g>
       <use xlink:href="#m16c87860ea" x="129.131344" y="139.811563" style="stroke: #000000; stroke-width: 0.8"/>
      </g>
     </g>
     <g id="text_2">
      <!-- 5 -->
      <g transform="translate(126.268219 153.650156) scale(0.09 -0.09)">
       <defs>
        <path id="DejaVuSans-35" d="M 691 4666 
L 3169 4666 
L 3169 4134 
L 1269 4134 
L 1269 2991 
Q 1406 3038 1543 3061 
Q 1681 3084 1819 3084 
Q 2600 3084 3056 2656 
Q 3513 2228 3513 1497 
Q 3513 744 3044 326 
Q 2575 -91 1722 -91 
Q 1428 -91 1123 -41 
Q 819 9 494 109 
L 494 744 
Q 775 591 1075 516 
Q 1375 441 1709 441 
Q 2250 441 2565 725 
Q 2881 1009 2881 1497 
Q 2881 1984 2565 2268 
Q 2250 2553 1709 2553 
Q 1456 2553 1204 2497 
Q 953 2441 691 2322 
L 691 4666 
z
" transform="scale(0.015625)"/>
       </defs>
       <use xlink:href="#DejaVuSans-35"/>
      </g>
     </g>
    </g>
    <g id="xtick_3">
     <g id="line2d_3">
      <g>
       <use xlink:href="#m16c87860ea" x="180.842573" y="139.811563" style="stroke: #000000; stroke-width: 0.8"/>
      </g>
     </g>
     <g id="text_3">
      <!-- 10 -->
      <g transform="translate(175.116323 153.650156) scale(0.09 -0.09)">
       <defs>
        <path id="DejaVuSans-31" d="M 794 531 
L 1825 531 
L 1825 4091 
L 703 3866 
L 703 4441 
L 1819 4666 
L 2450 4666 
L 2450 531 
L 3481 531 
L 3481 0 
L 794 0 
L 794 531 
z
" transform="scale(0.015625)"/>
       </defs>
       <use xlink:href="#DejaVuSans-31"/>
       <use xlink:href="#DejaVuSans-30" transform="translate(63.623047 0)"/>
      </g>
     </g>
    </g>
    <g id="xtick_4">
     <g id="line2d_4">
      <g>
       <use xlink:href="#m16c87860ea" x="232.553803" y="139.811563" style="stroke: #000000; stroke-width: 0.8"/>
      </g>
     </g>
     <g id="text_4">
      <!-- 15 -->
      <g transform="translate(226.827553 153.650156) scale(0.09 -0.09)">
       <use xlink:href="#DejaVuSans-31"/>
       <use xlink:href="#DejaVuSans-35" transform="translate(63.623047 0)"/>
      </g>
     </g>
    </g>
    <g id="xtick_5">
     <g id="line2d_5">
      <g>
       <use xlink:href="#m16c87860ea" x="284.265033" y="139.811563" style="stroke: #000000; stroke-width: 0.8"/>
      </g>
     </g>
     <g id="text_5">
      <!-- 20 -->
      <g transform="translate(278.538783 153.650156) scale(0.09 -0.09)">
       <defs>
        <path id="DejaVuSans-32" d="M 1228 531 
L 3431 531 
L 3431 0 
L 469 0 
L 469 531 
Q 828 903 1448 1529 
Q 2069 2156 2228 2338 
Q 2531 2678 2651 2914 
Q 2772 3150 2772 3378 
Q 2772 3750 2511 3984 
Q 2250 4219 1831 4219 
Q 1534 4219 1204 4116 
Q 875 4013 500 3803 
L 500 4441 
Q 881 4594 1212 4672 
Q 1544 4750 1819 4750 
Q 2544 4750 2975 4387 
Q 3406 4025 3406 3419 
Q 3406 3131 3298 2873 
Q 3191 2616 2906 2266 
Q 2828 2175 2409 1742 
Q 1991 1309 1228 531 
z
" transform="scale(0.015625)"/>
       </defs>
       <use xlink:href="#DejaVuSans-32"/>
       <use xlink:href="#DejaVuSans-30" transform="translate(63.623047 0)"/>
      </g>
     </g>
    </g>
    <g id="xtick_6">
     <g id="line2d_6">
      <g>
       <use xlink:href="#m16c87860ea" x="335.976263" y="139.811563" style="stroke: #000000; stroke-width: 0.8"/>
      </g>
     </g>
     <g id="text_6">
      <!-- 25 -->
      <g transform="translate(330.250013 153.650156) scale(0.09 -0.09)">
       <use xlink:href="#DejaVuSans-32"/>
       <use xlink:href="#DejaVuSans-35" transform="translate(63.623047 0)"/>
      </g>
     </g>
    </g>
    <g id="xtick_7">
     <g id="line2d_7">
      <g>
       <use xlink:href="#m16c87860ea" x="387.687493" y="139.811563" style="stroke: #000000; stroke-width: 0.8"/>
      </g>
     </g>
     <g id="text_7">
      <!-- 30 -->
      <g transform="translate(381.961243 153.650156) scale(0.09 -0.09)">
       <defs>
        <path id="DejaVuSans-33" d="M 2597 2516 
Q 3050 2419 3304 2112 
Q 3559 1806 3559 1356 
Q 3559 666 3084 287 
Q 2609 -91 1734 -91 
Q 1441 -91 1130 -33 
Q 819 25 488 141 
L 488 750 
Q 750 597 1062 519 
Q 1375 441 1716 441 
Q 2309 441 2620 675 
Q 2931 909 2931 1356 
Q 2931 1769 2642 2001 
Q 2353 2234 1838 2234 
L 1294 2234 
L 1294 2753 
L 1863 2753 
Q 2328 2753 2575 2939 
Q 2822 3125 2822 3475 
Q 2822 3834 2567 4026 
Q 2313 4219 1838 4219 
Q 1578 4219 1281 4162 
Q 984 4106 628 3988 
L 628 4550 
Q 988 4650 1302 4700 
Q 1616 4750 1894 4750 
Q 2613 4750 3031 4423 
Q 3450 4097 3450 3541 
Q 3450 3153 3228 2886 
Q 3006 2619 2597 2516 
z
" transform="scale(0.015625)"/>
       </defs>
       <use xlink:href="#DejaVuSans-33"/>
       <use xlink:href="#DejaVuSans-30" transform="translate(63.623047 0)"/>
      </g>
     </g>
    </g>
    <g id="text_8">
     <!-- Time [min] -->
     <g transform="translate(205.410078 167.120313) scale(0.1 -0.1)">
      <defs>
       <path id="DejaVuSans-54" d="M -19 4666 
L 3928 4666 
L 3928 4134 
L 2272 4134 
L 2272 0 
L 1638 0 
L 1638 4134 
L -19 4134 
L -19 4666 
z
" transform="scale(0.015625)"/>
       <path id="DejaVuSans-69" d="M 603 3500 
L 1178 3500 
L 1178 0 
L 603 0 
L 603 3500 
z
M 603 4863 
L 1178 4863 
L 1178 4134 
L 603 4134 
L 603 4863 
z
" transform="scale(0.015625)"/>
       <path id="DejaVuSans-6d" d="M 3328 2828 
Q 3544 3216 3844 3400 
Q 4144 3584 4550 3584 
Q 5097 3584 5394 3201 
Q 5691 2819 5691 2113 
L 5691 0 
L 5113 0 
L 5113 2094 
Q 5113 2597 4934 2840 
Q 4756 3084 4391 3084 
Q 3944 3084 3684 2787 
Q 3425 2491 3425 1978 
L 3425 0 
L 2847 0 
L 2847 2094 
Q 2847 2600 2669 2842 
Q 2491 3084 2119 3084 
Q 1678 3084 1418 2786 
Q 1159 2488 1159 1978 
L 1159 0 
L 581 0 
L 581 3500 
L 1159 3500 
L 1159 2956 
Q 1356 3278 1631 3431 
Q 1906 3584 2284 3584 
Q 2666 3584 2933 3390 
Q 3200 3197 3328 2828 
z
" transform="scale(0.015625)"/>
       <path id="DejaVuSans-65" d="M 3597 1894 
L 3597 1613 
L 953 1613 
Q 991 1019 1311 708 
Q 1631 397 2203 397 
Q 2534 397 2845 478 
Q 3156 559 3463 722 
L 3463 178 
Q 3153 47 2828 -22 
Q 2503 -91 2169 -91 
Q 1331 -91 842 396 
Q 353 884 353 1716 
Q 353 2575 817 3079 
Q 1281 3584 2069 3584 
Q 2775 3584 3186 3129 
Q 3597 2675 3597 1894 
z
M 3022 2063 
Q 3016 2534 2758 2815 
Q 2500 3097 2075 3097 
Q 1594 3097 1305 2825 
Q 1016 2553 972 2059 
L 3022 2063 
z
" transform="scale(0.015625)"/>
       <path id="DejaVuSans-20" transform="scale(0.015625)"/>
       <path id="DejaVuSans-5b" d="M 550 4863 
L 1875 4863 
L 1875 4416 
L 1125 4416 
L 1125 -397 
L 1875 -397 
L 1875 -844 
L 550 -844 
L 550 4863 
z
" transform="scale(0.015625)"/>
       <path id="DejaVuSans-6e" d="M 3513 2113 
L 3513 0 
L 2938 0 
L 2938 2094 
Q 2938 2591 2744 2837 
Q 2550 3084 2163 3084 
Q 1697 3084 1428 2787 
Q 1159 2491 1159 1978 
L 1159 0 
L 581 0 
L 581 3500 
L 1159 3500 
L 1159 2956 
Q 1366 3272 1645 3428 
Q 1925 3584 2291 3584 
Q 2894 3584 3203 3211 
Q 3513 2838 3513 2113 
z
" transform="scale(0.015625)"/>
       <path id="DejaVuSans-5d" d="M 1947 4863 
L 1947 -844 
L 622 -844 
L 622 -397 
L 1369 -397 
L 1369 4416 
L 622 4416 
L 622 4863 
L 1947 4863 
z
" transform="scale(0.015625)"/>
      </defs>
      <use xlink:href="#DejaVuSans-54"/>
      <use xlink:href="#DejaVuSans-69" transform="translate(57.958984 0)"/>
      <use xlink:href="#DejaVuSans-6d" transform="translate(85.742188 0)"/>
      <use xlink:href="#DejaVuSans-65" transform="translate(183.154297 0)"/>
      <use xlink:href="#DejaVuSans-20" transform="translate(244.677734 0)"/>
      <use xlink:href="#DejaVuSans-5b" transform="translate(276.464844 0)"/>
      <use xlink:href="#DejaVuSans-6d" transform="translate(315.478516 0)"/>
      <use xlink:href="#DejaVuSans-69" transform="translate(412.890625 0)"/>
      <use xlink:href="#DejaVuSans-6e" transform="translate(440.673828 0)"/>
      <use xlink:href="#DejaVuSans-5d" transform="translate(504.052734 0)"/>
     </g>
    </g>
   </g>
   <g id="matplotlib.axis_2">
    <g id="ytick_1">
     <g id="line2d_8">
      <defs>
       <path id="meca8326985" d="M 0 0 
L -3.5 0 
" style="stroke: #000000; stroke-width: 0.8"/>
      </defs>
      <g>
       <use xlink:href="#meca8326985" x="61.924844" y="135.729034" style="stroke: #000000; stroke-width: 0.8"/>
      </g>
     </g>
     <g id="text_9">
      <!-- −2000 -->
      <g transform="translate(24.478125 139.148331) scale(0.09 -0.09)">
       <defs>
        <path id="DejaVuSans-2212" d="M 678 2272 
L 4684 2272 
L 4684 1741 
L 678 1741 
L 678 2272 
z
" transform="scale(0.015625)"/>
       </defs>
       <use xlink:href="#DejaVuSans-2212"/>
       <use xlink:href="#DejaVuSans-32" transform="translate(83.789062 0)"/>
       <use xlink:href="#DejaVuSans-30" transform="translate(147.412109 0)"/>
       <use xlink:href="#DejaVuSans-30" transform="translate(211.035156 0)"/>
       <use xlink:href="#DejaVuSans-30" transform="translate(274.658203 0)"/>
      </g>
     </g>
    </g>
    <g id="ytick_2">
     <g id="line2d_9">
      <g>
       <use xlink:href="#meca8326985" x="61.924844" y="109.782483" style="stroke: #000000; stroke-width: 0.8"/>
      </g>
     </g>
     <g id="text_10">
      <!-- −1000 -->
      <g transform="translate(24.478125 113.20178) scale(0.09 -0.09)">
       <use xlink:href="#DejaVuSans-2212"/>
       <use xlink:href="#DejaVuSans-31" transform="translate(83.789062 0)"/>
       <use xlink:href="#DejaVuSans-30" transform="translate(147.412109 0)"/>
       <use xlink:href="#DejaVuSans-30" transform="translate(211.035156 0)"/>
       <use xlink:href="#DejaVuSans-30" transform="translate(274.658203 0)"/>
      </g>
     </g>
    </g>
    <g id="ytick_3">
     <g id="line2d_10">
      <g>
       <use xlink:href="#meca8326985" x="61.924844" y="83.835933" style="stroke: #000000; stroke-width: 0.8"/>
      </g>
     </g>
     <g id="text_11">
      <!-- 0 -->
      <g transform="translate(49.198594 87.25523) scale(0.09 -0.09)">
       <use xlink:href="#DejaVuSans-30"/>
      </g>
     </g>
    </g>
    <g id="ytick_4">
     <g id="line2d_11">
      <g>
       <use xlink:href="#meca8326985" x="61.924844" y="57.889382" style="stroke: #000000; stroke-width: 0.8"/>
      </g>
     </g>
     <g id="text_12">
      <!-- 1000 -->
      <g transform="translate(32.019844 61.308679) scale(0.09 -0.09)">
       <use xlink:href="#DejaVuSans-31"/>
       <use xlink:href="#DejaVuSans-30" transform="translate(63.623047 0)"/>
       <use xlink:href="#DejaVuSans-30" transform="translate(127.246094 0)"/>
       <use xlink:href="#DejaVuSans-30" transform="translate(190.869141 0)"/>
      </g>
     </g>
    </g>
    <g id="ytick_5">
     <g id="line2d_12">
      <g>
       <use xlink:href="#meca8326985" x="61.924844" y="31.942831" style="stroke: #000000; stroke-width: 0.8"/>
      </g>
     </g>
     <g id="text_13">
      <!-- 2000 -->
      <g transform="translate(32.019844 35.362128) scale(0.09 -0.09)">
       <use xlink:href="#DejaVuSans-32"/>
       <use xlink:href="#DejaVuSans-30" transform="translate(63.623047 0)"/>
       <use xlink:href="#DejaVuSans-30" transform="translate(127.246094 0)"/>
       <use xlink:href="#DejaVuSans-30" transform="translate(190.869141 0)"/>
      </g>
     </g>
    </g>
    <g id="text_14">
     <!-- RW Speed (RPM)  -->
     <g transform="translate(18.398438 118.671406) rotate(-90) scale(0.1 -0.1)">
      <defs>
       <path id="DejaVuSans-52" d="M 2841 2188 
Q 3044 2119 3236 1894 
Q 3428 1669 3622 1275 
L 4263 0 
L 3584 0 
L 2988 1197 
Q 2756 1666 2539 1819 
Q 2322 1972 1947 1972 
L 1259 1972 
L 1259 0 
L 628 0 
L 628 4666 
L 2053 4666 
Q 2853 4666 3247 4331 
Q 3641 3997 3641 3322 
Q 3641 2881 3436 2590 
Q 3231 2300 2841 2188 
z
M 1259 4147 
L 1259 2491 
L 2053 2491 
Q 2509 2491 2742 2702 
Q 2975 2913 2975 3322 
Q 2975 3731 2742 3939 
Q 2509 4147 2053 4147 
L 1259 4147 
z
" transform="scale(0.015625)"/>
       <path id="DejaVuSans-57" d="M 213 4666 
L 850 4666 
L 1831 722 
L 2809 4666 
L 3519 4666 
L 4500 722 
L 5478 4666 
L 6119 4666 
L 4947 0 
L 4153 0 
L 3169 4050 
L 2175 0 
L 1381 0 
L 213 4666 
z
" transform="scale(0.015625)"/>
       <path id="DejaVuSans-53" d="M 3425 4513 
L 3425 3897 
Q 3066 4069 2747 4153 
Q 2428 4238 2131 4238 
Q 1616 4238 1336 4038 
Q 1056 3838 1056 3469 
Q 1056 3159 1242 3001 
Q 1428 2844 1947 2747 
L 2328 2669 
Q 3034 2534 3370 2195 
Q 3706 1856 3706 1288 
Q 3706 609 3251 259 
Q 2797 -91 1919 -91 
Q 1588 -91 1214 -16 
Q 841 59 441 206 
L 441 856 
Q 825 641 1194 531 
Q 1563 422 1919 422 
Q 2459 422 2753 634 
Q 3047 847 3047 1241 
Q 3047 1584 2836 1778 
Q 2625 1972 2144 2069 
L 1759 2144 
Q 1053 2284 737 2584 
Q 422 2884 422 3419 
Q 422 4038 858 4394 
Q 1294 4750 2059 4750 
Q 2388 4750 2728 4690 
Q 3069 4631 3425 4513 
z
" transform="scale(0.015625)"/>
       <path id="DejaVuSans-70" d="M 1159 525 
L 1159 -1331 
L 581 -1331 
L 581 3500 
L 1159 3500 
L 1159 2969 
Q 1341 3281 1617 3432 
Q 1894 3584 2278 3584 
Q 2916 3584 3314 3078 
Q 3713 2572 3713 1747 
Q 3713 922 3314 415 
Q 2916 -91 2278 -91 
Q 1894 -91 1617 61 
Q 1341 213 1159 525 
z
M 3116 1747 
Q 3116 2381 2855 2742 
Q 2594 3103 2138 3103 
Q 1681 3103 1420 2742 
Q 1159 2381 1159 1747 
Q 1159 1113 1420 752 
Q 1681 391 2138 391 
Q 2594 391 2855 752 
Q 3116 1113 3116 1747 
z
" transform="scale(0.015625)"/>
       <path id="DejaVuSans-64" d="M 2906 2969 
L 2906 4863 
L 3481 4863 
L 3481 0 
L 2906 0 
L 2906 525 
Q 2725 213 2448 61 
Q 2172 -91 1784 -91 
Q 1150 -91 751 415 
Q 353 922 353 1747 
Q 353 2572 751 3078 
Q 1150 3584 1784 3584 
Q 2172 3584 2448 3432 
Q 2725 3281 2906 2969 
z
M 947 1747 
Q 947 1113 1208 752 
Q 1469 391 1925 391 
Q 2381 391 2643 752 
Q 2906 1113 2906 1747 
Q 2906 2381 2643 2742 
Q 2381 3103 1925 3103 
Q 1469 3103 1208 2742 
Q 947 2381 947 1747 
z
" transform="scale(0.015625)"/>
       <path id="DejaVuSans-28" d="M 1984 4856 
Q 1566 4138 1362 3434 
Q 1159 2731 1159 2009 
Q 1159 1288 1364 580 
Q 1569 -128 1984 -844 
L 1484 -844 
Q 1016 -109 783 600 
Q 550 1309 550 2009 
Q 550 2706 781 3412 
Q 1013 4119 1484 4856 
L 1984 4856 
z
" transform="scale(0.015625)"/>
       <path id="DejaVuSans-50" d="M 1259 4147 
L 1259 2394 
L 2053 2394 
Q 2494 2394 2734 2622 
Q 2975 2850 2975 3272 
Q 2975 3691 2734 3919 
Q 2494 4147 2053 4147 
L 1259 4147 
z
M 628 4666 
L 2053 4666 
Q 2838 4666 3239 4311 
Q 3641 3956 3641 3272 
Q 3641 2581 3239 2228 
Q 2838 1875 2053 1875 
L 1259 1875 
L 1259 0 
L 628 0 
L 628 4666 
z
" transform="scale(0.015625)"/>
       <path id="DejaVuSans-4d" d="M 628 4666 
L 1569 4666 
L 2759 1491 
L 3956 4666 
L 4897 4666 
L 4897 0 
L 4281 0 
L 4281 4097 
L 3078 897 
L 2444 897 
L 1241 4097 
L 1241 0 
L 628 0 
L 628 4666 
z
" transform="scale(0.015625)"/>
       <path id="DejaVuSans-29" d="M 513 4856 
L 1013 4856 
Q 1481 4119 1714 3412 
Q 1947 2706 1947 2009 
Q 1947 1309 1714 600 
Q 1481 -109 1013 -844 
L 513 -844 
Q 928 -128 1133 580 
Q 1338 1288 1338 2009 
Q 1338 2731 1133 3434 
Q 928 4138 513 4856 
z
" transform="scale(0.015625)"/>
      </defs>
      <use xlink:href="#DejaVuSans-52"/>
      <use xlink:href="#DejaVuSans-57" transform="translate(65.482422 0)"/>
      <use xlink:href="#DejaVuSans-20" transform="translate(164.359375 0)"/>
      <use xlink:href="#DejaVuSans-53" transform="translate(196.146484 0)"/>
      <use xlink:href="#DejaVuSans-70" transform="translate(259.623047 0)"/>
      <use xlink:href="#DejaVuSans-65" transform="translate(323.099609 0)"/>
      <use xlink:href="#DejaVuSans-65" transform="translate(384.623047 0)"/>
      <use xlink:href="#DejaVuSans-64" transform="translate(446.146484 0)"/>
      <use xlink:href="#DejaVuSans-20" transform="translate(509.623047 0)"/>
      <use xlink:href="#DejaVuSans-28" transform="translate(541.410156 0)"/>
      <use xlink:href="#DejaVuSans-52" transform="translate(580.423828 0)"/>
      <use xlink:href="#DejaVuSans-50" transform="translate(649.90625 0)"/>
      <use xlink:href="#DejaVuSans-4d" transform="translate(710.208984 0)"/>
      <use xlink:href="#DejaVuSans-29" transform="translate(796.488281 0)"/>
      <use xlink:href="#DejaVuSans-20" transform="translate(835.501953 0)"/>
     </g>
    </g>
   </g>
   <g id="line2d_13">
    <path d="M 77.437351 83.773646 
L 78.195782 81.033055 
L 78.247493 81.219909 
L 85.917993 108.52608 
L 86.348919 109.170071 
L 86.693661 109.333751 
L 87.003928 109.228631 
L 87.34867 108.846676 
L 87.779597 108.001756 
L 88.331183 106.374703 
L 91.451094 95.108215 
L 108.412378 34.230054 
L 109.119098 32.660876 
L 109.774107 31.716373 
L 110.377404 31.216018 
L 110.946228 31.019477 
L 111.532288 31.051873 
L 112.187297 31.320304 
L 112.980203 31.903079 
L 113.99719 32.947808 
L 115.496816 34.843867 
L 120.116353 40.8681 
L 121.874534 42.70115 
L 123.546531 44.130077 
L 125.253001 45.296279 
L 127.062894 46.262332 
L 129.096869 47.092609 
L 131.527297 47.837872 
L 134.561023 48.526452 
L 141.249008 49.70951 
L 144.299971 49.914967 
L 147.747386 49.918658 
L 151.953233 49.690674 
L 158.848064 49.056383 
L 167.208046 48.351335 
L 173.637475 48.045706 
L 180.859811 47.929428 
L 182.256014 49.029059 
L 183.686691 49.874433 
L 185.203554 50.51103 
L 186.910024 50.981074 
L 189.012948 51.318044 
L 192.270755 51.584282 
L 198.527814 52.091809 
L 202.888794 52.700855 
L 208.352948 53.704048 
L 217.161094 55.576605 
L 236.690702 60.00393 
L 282.98949 70.694402 
L 310.982502 77.461726 
L 337.320755 83.835686 
L 337.493126 83.83083 
L 339.285782 83.827656 
L 339.561575 83.83291 
L 339.751183 83.83084 
L 341.509365 83.833469 
L 341.733447 83.82417 
L 341.940292 83.833848 
L 342.164374 83.823652 
L 342.353981 83.834028 
L 342.612538 83.825873 
L 342.991753 83.832104 
L 343.250309 83.82495 
L 343.595051 83.83383 
L 343.888081 83.824122 
L 344.215586 83.832942 
L 344.508616 83.827525 
L 344.818883 83.834651 
L 345.146388 83.828232 
L 345.422181 83.831387 
L 345.78416 83.826393 
L 346.042716 83.831467 
L 346.456406 83.826217 
L 346.697725 83.832261 
L 347.163126 83.831384 
L 347.645764 83.826044 
L 347.852609 83.827786 
L 348.438669 83.825585 
L 348.645514 83.836455 
L 349.43842 83.825189 
L 349.645265 83.833547 
L 351.024231 83.825874 
L 351.213839 83.837021 
L 364.727707 83.843226 
L 365.089685 83.844944 
L 365.348242 83.842232 
L 365.727457 83.847366 
L 366.003251 83.837292 
L 366.399703 83.848148 
L 366.675497 83.835897 
L 367.071949 83.845386 
L 367.330505 83.840486 
L 367.726958 83.848217 
L 367.985514 83.842004 
L 368.381967 83.847522 
L 368.640523 83.839743 
L 369.054213 83.847659 
L 369.312769 83.838077 
L 369.726459 83.844963 
L 369.967778 83.842217 
L 370.398705 83.847858 
L 370.640024 83.842904 
L 371.070951 83.844665 
L 371.31227 83.837455 
L 371.777671 83.844727 
L 372.01899 83.834916 
L 372.536103 83.847435 
L 372.777422 83.834625 
L 373.311771 83.844269 
L 373.535853 83.83815 
L 374.104677 83.84758 
L 374.328759 83.838268 
L 374.932056 83.845883 
L 375.138901 83.843435 
L 375.759436 83.844666 
L 375.966281 83.838938 
L 376.673001 83.845103 
L 376.879846 83.835618 
L 377.62104 83.8454 
L 377.810648 83.843326 
L 378.603554 83.846256 
L 378.793161 83.840426 
L 379.792912 83.845576 
L 379.999757 83.836729 
L 381.39596 83.845614 
L 381.585568 83.842851 
L 383.619543 83.841027 
L 387.687493 83.828891 
L 387.687493 83.828891 
" clip-path="url(#p13b24b17be)" style="fill: none; stroke: #225e7c; stroke-width: 1.5; stroke-linecap: square"/>
   </g>
   <g id="line2d_14">
    <path d="M 77.437351 83.773648 
L 78.195782 81.033115 
L 78.247493 81.219972 
L 84.004677 101.636521 
L 84.349419 102.03343 
L 84.607975 102.037623 
L 84.866531 101.805074 
L 85.211272 101.149498 
L 85.659436 99.757682 
L 106.68867 24.20314 
L 107.360916 22.811768 
L 107.946976 22.066862 
L 108.464089 21.743351 
L 108.946727 21.694516 
L 109.446602 21.874265 
L 110.015426 22.331454 
L 110.704909 23.197694 
L 111.549525 24.645526 
L 112.635461 26.987853 
L 114.152324 30.847101 
L 119.064891 43.737031 
L 120.530042 46.775169 
L 121.822823 48.967166 
L 123.012181 50.562174 
L 124.132591 51.703078 
L 125.20129 52.484186 
L 126.269989 52.992513 
L 127.355925 53.262574 
L 128.510809 53.317972 
L 129.80359 53.150942 
L 131.354927 52.713874 
L 133.45785 51.868876 
L 140.921504 48.684153 
L 143.507066 47.916743 
L 146.092627 47.38136 
L 148.850559 47.039705 
L 151.97047 46.882571 
L 155.779864 46.923043 
L 161.330203 47.227279 
L 175.516317 48.072707 
L 182.049169 48.219769 
L 184.065907 47.996233 
L 186.479098 47.494734 
L 189.754142 46.567312 
L 199.062163 43.814677 
L 203.26801 42.888832 
L 208.99072 41.882078 
L 221.07391 39.785013 
L 232.622752 37.474918 
L 256.289258 32.745543 
L 301.226317 24.125553 
L 338.872092 17.083633 
L 342.026477 16.758369 
L 345.111914 16.664971 
L 348.266299 16.796744 
L 351.713714 17.172188 
L 355.850612 17.856872 
L 363.141896 19.337016 
L 370.071201 20.64831 
L 375.431931 21.43293 
L 380.827136 21.993309 
L 386.99801 22.405029 
L 387.687493 22.440342 
L 387.687493 22.440342 
" clip-path="url(#p13b24b17be)" style="fill: none; stroke: #3e915b; stroke-width: 1.5; stroke-linecap: square"/>
   </g>
   <g id="line2d_15">
    <path d="M 77.437351 83.773648 
L 78.195782 81.033125 
L 78.247493 81.219982 
L 81.74662 93.463222 
L 82.091362 93.872305 
L 82.367155 93.895853 
L 82.642948 93.670306 
L 83.004927 93.031164 
L 83.470328 91.706823 
L 85.469829 84.49405 
L 91.70965 62.356951 
L 92.468082 60.670415 
L 93.123091 59.709036 
L 93.709151 59.214237 
L 94.243501 59.044155 
L 94.760613 59.117009 
L 95.312199 59.432354 
L 95.949971 60.074897 
L 96.708403 61.18208 
L 97.621968 62.934278 
L 98.776852 65.661979 
L 100.3799 70.077064 
L 105.602734 84.894387 
L 106.998937 87.999876 
L 108.050399 89.82699 
L 108.92949 90.933318 
L 109.722395 91.595788 
L 110.480827 91.951122 
L 111.239258 92.06497 
L 112.066638 91.957075 
L 113.014677 91.599081 
L 114.221272 90.8901 
L 116.06564 89.514018 
L 122.064142 84.897985 
L 126.201041 82.093602 
L 129.889775 79.836925 
L 132.613233 78.420531 
L 134.923001 77.464559 
L 137.043162 76.825162 
L 139.025426 76.458234 
L 141.024926 76.3154 
L 143.145087 76.390813 
L 145.523803 76.704549 
L 148.454107 77.327818 
L 153.177066 78.596195 
L 159.778866 80.323568 
L 164.277743 81.258034 
L 168.897279 81.986198 
L 174.37867 82.61421 
L 184.358937 83.699598 
L 186.565283 84.319375 
L 189.168081 85.294136 
L 193.373928 87.147228 
L 199.717172 89.896269 
L 205.008955 91.923793 
L 211.576281 94.190201 
L 220.07416 96.875275 
L 296.934285 120.246181 
L 324.823874 128.355599 
L 340.18211 132.63959 
L 343.595051 133.321626 
L 346.78391 133.733124 
L 350.058955 133.928447 
L 353.592555 133.911095 
L 357.69498 133.659009 
L 363.279792 133.071194 
L 374.570078 131.844575 
L 379.930808 131.524709 
L 385.291539 131.432495 
L 387.687493 131.456471 
L 387.687493 131.456471 
" clip-path="url(#p13b24b17be)" style="fill: none; stroke: #8eac56; stroke-width: 1.5; stroke-linecap: square"/>
   </g>
   <g id="line2d_16">
    <path d="M 77.437351 83.773646 
L 78.195782 81.033065 
L 78.247493 81.21992 
L 83.056638 98.188854 
L 83.815069 99.839346 
L 84.539026 100.915964 
L 85.194035 101.520399 
L 85.81457 101.806789 
L 86.52129 101.87828 
L 87.589989 101.729624 
L 89.124089 101.550061 
L 90.141076 101.668925 
L 91.071878 102.00247 
L 92.019918 102.589387 
L 93.088616 103.521595 
L 94.36416 104.943149 
L 96.105105 107.24866 
L 99.759365 112.163648 
L 101.08662 113.5342 
L 102.189793 114.371333 
L 103.172306 114.847667 
L 104.068634 115.043324 
L 104.930488 115.009193 
L 105.809579 114.748967 
L 106.740381 114.233741 
L 107.80908 113.375513 
L 108.946727 112.176207 
L 110.084374 110.641884 
L 111.325443 108.572415 
L 112.807832 105.636152 
L 115.083126 100.558406 
L 118.151326 93.814447 
L 119.909508 90.492978 
L 121.443607 88.056082 
L 122.857048 86.216058 
L 124.20154 84.819884 
L 125.511558 83.771048 
L 126.821575 83.001503 
L 128.166067 82.468053 
L 129.579508 82.14694 
L 131.130845 82.027288 
L 132.889026 82.120634 
L 135.043661 82.468314 
L 138.335943 83.256866 
L 144.851558 84.817908 
L 148.19555 85.367427 
L 151.298224 85.651955 
L 154.418135 85.713599 
L 157.796602 85.553674 
L 161.778367 85.13381 
L 167.518313 84.280629 
L 180.773625 82.262713 
L 183.014445 81.853809 
L 186.806602 80.884665 
L 201.544303 76.836436 
L 206.853322 74.966007 
L 233.484605 65.25144 
L 270.475372 52.336233 
L 326.478634 32.345867 
L 340.216584 27.528743 
L 343.991504 26.534213 
L 347.938794 25.72689 
L 352.075693 25.111349 
L 356.488384 24.684178 
L 361.573322 24.425847 
L 368.968028 24.296493 
L 379.413696 24.081791 
L 386.101682 23.710007 
L 387.687493 23.590179 
L 387.687493 23.590179 
" clip-path="url(#p13b24b17be)" style="fill: none; stroke: #c4a46f; stroke-width: 1.5; stroke-linecap: square"/>
   </g>
   <g id="patch_3">
    <path d="M 61.924844 139.811563 
L 61.924844 10.8 
" style="fill: none; stroke: #000000; stroke-width: 0.8; stroke-linejoin: miter; stroke-linecap: square"/>
   </g>
   <g id="patch_4">
    <path d="M 403.2 139.811563 
L 403.2 10.8 
" style="fill: none; stroke: #000000; stroke-width: 0.8; stroke-linejoin: miter; stroke-linecap: square"/>
   </g>
   <g id="patch_5">
    <path d="M 61.924844 139.811563 
L 403.2 139.811563 
" style="fill: none; stroke: #000000; stroke-width: 0.8; stroke-linejoin: miter; stroke-linecap: square"/>
   </g>
   <g id="patch_6">
    <path d="M 61.924844 10.8 
L 403.2 10.8 
" style="fill: none; stroke: #000000; stroke-width: 0.8; stroke-linejoin: miter; stroke-linecap: square"/>
   </g>
   <g id="legend_1">
    <g id="patch_7">
     <path d="M 356.85 70.84125 
L 396.9 70.84125 
Q 398.7 70.84125 398.7 69.04125 
L 398.7 17.1 
Q 398.7 15.3 396.9 15.3 
L 356.85 15.3 
Q 355.05 15.3 355.05 17.1 
L 355.05 69.04125 
Q 355.05 70.84125 356.85 70.84125 
z
" style="fill: #ffffff; opacity: 0.8; stroke: #cccccc; stroke-linejoin: miter"/>
    </g>
    <g id="line2d_17">
     <path d="M 358.65 22.588594 
L 367.65 22.588594 
L 376.65 22.588594 
" style="fill: none; stroke: #225e7c; stroke-width: 1.5; stroke-linecap: square"/>
    </g>
    <g id="text_15">
     <!-- $\Omega_{0}$ -->
     <g transform="translate(383.85 25.738594) scale(0.09 -0.09)">
      <defs>
       <path id="DejaVuSans-3a9" d="M 4647 556 
L 4647 0 
L 2772 0 
L 2772 556 
Q 3325 859 3634 1378 
Q 3944 1897 3944 2528 
Q 3944 3278 3531 3731 
Q 3119 4184 2444 4184 
Q 1769 4184 1355 3729 
Q 941 3275 941 2528 
Q 941 1897 1250 1378 
Q 1563 859 2119 556 
L 2119 0 
L 244 0 
L 244 556 
L 1241 556 
Q 747 991 519 1456 
Q 294 1922 294 2497 
Q 294 3491 894 4106 
Q 1491 4722 2444 4722 
Q 3391 4722 3994 4106 
Q 4594 3494 4594 2528 
Q 4594 1922 4372 1459 
Q 4150 997 3647 556 
L 4647 556 
z
" transform="scale(0.015625)"/>
      </defs>
      <use xlink:href="#DejaVuSans-3a9" transform="translate(0 0.21875)"/>
      <use xlink:href="#DejaVuSans-30" transform="translate(77.373047 -16.1875) scale(0.7)"/>
     </g>
    </g>
    <g id="line2d_18">
     <path d="M 358.65 35.798906 
L 367.65 35.798906 
L 376.65 35.798906 
" style="fill: none; stroke: #3e915b; stroke-width: 1.5; stroke-linecap: square"/>
    </g>
    <g id="text_16">
     <!-- $\Omega_{1}$ -->
     <g transform="translate(383.85 38.948906) scale(0.09 -0.09)">
      <use xlink:href="#DejaVuSans-3a9" transform="translate(0 0.21875)"/>
      <use xlink:href="#DejaVuSans-31" transform="translate(77.373047 -16.1875) scale(0.7)"/>
     </g>
    </g>
    <g id="line2d_19">
     <path d="M 358.65 49.009219 
L 367.65 49.009219 
L 376.65 49.009219 
" style="fill: none; stroke: #8eac56; stroke-width: 1.5; stroke-linecap: square"/>
    </g>
    <g id="text_17">
     <!-- $\Omega_{2}$ -->
     <g transform="translate(383.85 52.159219) scale(0.09 -0.09)">
      <use xlink:href="#DejaVuSans-3a9" transform="translate(0 0.21875)"/>
      <use xlink:href="#DejaVuSans-32" transform="translate(77.373047 -16.1875) scale(0.7)"/>
     </g>
    </g>
    <g id="line2d_20">
     <path d="M 358.65 62.219531 
L 367.65 62.219531 
L 376.65 62.219531 
" style="fill: none; stroke: #c4a46f; stroke-width: 1.5; stroke-linecap: square"/>
    </g>
    <g id="text_18">
     <!-- $\Omega_{3}$ -->
     <g transform="translate(383.85 65.369531) scale(0.09 -0.09)">
      <use xlink:href="#DejaVuSans-3a9" transform="translate(0 0.21875)"/>
      <use xlink:href="#DejaVuSans-33" transform="translate(77.373047 -16.1875) scale(0.7)"/>
     </g>
    </g>
   </g>
  </g>
 </g>
 <defs>
  <clipPath id="p13b24b17be">
   <rect x="61.924844" y="10.8" width="341.275156" height="129.011562"/>
  </clipPath>
 </defs>
</svg>
