<?xml version="1.0" encoding="utf-8" standalone="no"?>
<!DOCTYPE svg PUBLIC "-//W3C//DTD SVG 1.1//EN"
  "http://www.w3.org/Graphics/SVG/1.1/DTD/svg11.dtd">
<svg xmlns:xlink="http://www.w3.org/1999/xlink" width="414pt" height="180pt" viewBox="0 0 414 180" xmlns="http://www.w3.org/2000/svg" version="1.1">
 <metadata>
  <rdf:RDF xmlns:dc="http://purl.org/dc/elements/1.1/" xmlns:cc="http://creativecommons.org/ns#" xmlns:rdf="http://www.w3.org/1999/02/22-rdf-syntax-ns#">
   <cc:Work>
    <dc:type rdf:resource="http://purl.org/dc/dcmitype/StillImage"/>
    <dc:date>2026-04-28T14:23:33.126483</dc:date>
    <dc:format>image/svg+xml</dc:format>
    <dc:creator>
     <cc:Agent>
      <dc:title>Matplotlib v3.10.7, https://matplotlib.org/</dc:title>
     </cc:Agent>
    </dc:creator>
   </cc:Work>
  </rdf:RDF>
 </metadata>
 <defs>
  <style type="text/css">*{stroke-linejoin: round; stroke-linecap: butt}</style>
 </defs>
 <g id="figure_1">
  <g id="patch_1">
   <path d="M 0 180 
L 414 180 
L 414 0 
L 0 0 
L 0 180 
z
" style="fill: none"/>
  </g>
  <g id="axes_1">
   <g id="patch_2">
    <path d="M 53.75 139.811563 
L 403.2 139.811563 
L 403.2 10.8 
L 53.75 10.8 
L 53.75 139.811563 
z
" style="fill: none"/>
   </g>
   <g id="matplotlib.axis_1">
    <g id="xtick_1">
     <g id="line2d_1">
      <defs>
       <path id="m47bbcf0d99" d="M 0 0 
L 0 3.5 
" style="stroke: #000000; stroke-width: 0.8"/>
      </defs>
      <g>
       <use xlink:href="#m47bbcf0d99" x="69.550732" y="139.811563" style="stroke: #000000; stroke-width: 0.8"/>
      </g>
     </g>
     <g id="text_1">
      <!-- 0 -->
      <g transform="translate(66.687607 153.650156) scale(0.09 -0.09)">
       <defs>
        <path id="DejaVuSans-30" d="M 2034 4250 
Q 1547 4250 1301 3770 
Q 1056 3291 1056 2328 
Q 1056 1369 1301 889 
Q 1547 409 2034 409 
Q 2525 409 2770 889 
Q 3016 1369 3016 2328 
Q 3016 3291 2770 3770 
Q 2525 4250 2034 4250 
z
M 2034 4750 
Q 2819 4750 3233 4129 
Q 3647 3509 3647 2328 
Q 3647 1150 3233 529 
Q 2819 -91 2034 -91 
Q 1250 -91 836 529 
Q 422 1150 422 2328 
Q 422 3509 836 4129 
Q 1250 4750 2034 4750 
z
" transform="scale(0.015625)"/>
       </defs>
       <use xlink:href="#DejaVuSans-30"/>
      </g>
     </g>
    </g>
    <g id="xtick_2">
     <g id="line2d_2">
      <g>
       <use xlink:href="#m47bbcf0d99" x="129.569338" y="139.811563" style="stroke: #000000; stroke-width: 0.8"/>
      </g>
     </g>
     <g id="text_2">
      <!-- 2 -->
      <g transform="translate(126.706213 153.650156) scale(0.09 -0.09)">
       <defs>
        <path id="DejaVuSans-32" d="M 1228 531 
L 3431 531 
L 3431 0 
L 469 0 
L 469 531 
Q 828 903 1448 1529 
Q 2069 2156 2228 2338 
Q 2531 2678 2651 2914 
Q 2772 3150 2772 3378 
Q 2772 3750 2511 3984 
Q 2250 4219 1831 4219 
Q 1534 4219 1204 4116 
Q 875 4013 500 3803 
L 500 4441 
Q 881 4594 1212 4672 
Q 1544 4750 1819 4750 
Q 2544 4750 2975 4387 
Q 3406 4025 3406 3419 
Q 3406 3131 3298 2873 
Q 3191 2616 2906 2266 
Q 2828 2175 2409 1742 
Q 1991 1309 1228 531 
z
" transform="scale(0.015625)"/>
       </defs>
       <use xlink:href="#DejaVuSans-32"/>
      </g>
     </g>
    </g>
    <g id="xtick_3">
     <g id="line2d_3">
      <g>
       <use xlink:href="#m47bbcf0d99" x="189.587945" y="139.811563" style="stroke: #000000; stroke-width: 0.8"/>
      </g>
     </g>
     <g id="text_3">
      <!-- 4 -->
      <g transform="translate(186.72482 153.650156) scale(0.09 -0.09)">
       <defs>
        <path id="DejaVuSans-34" d="M 2419 4116 
L 825 1625 
L 2419 1625 
L 2419 4116 
z
M 2253 4666 
L 3047 4666 
L 3047 1625 
L 3713 1625 
L 3713 1100 
L 3047 1100 
L 3047 0 
L 2419 0 
L 2419 1100 
L 313 1100 
L 313 1709 
L 2253 4666 
z
" transform="scale(0.015625)"/>
       </defs>
       <use xlink:href="#DejaVuSans-34"/>
      </g>
     </g>
    </g>
    <g id="xtick_4">
     <g id="line2d_4">
      <g>
       <use xlink:href="#m47bbcf0d99" x="249.606551" y="139.811563" style="stroke: #000000; stroke-width: 0.8"/>
      </g>
     </g>
     <g id="text_4">
      <!-- 6 -->
      <g transform="translate(246.743426 153.650156) scale(0.09 -0.09)">
       <defs>
        <path id="DejaVuSans-36" d="M 2113 2584 
Q 1688 2584 1439 2293 
Q 1191 2003 1191 1497 
Q 1191 994 1439 701 
Q 1688 409 2113 409 
Q 2538 409 2786 701 
Q 3034 994 3034 1497 
Q 3034 2003 2786 2293 
Q 2538 2584 2113 2584 
z
M 3366 4563 
L 3366 3988 
Q 3128 4100 2886 4159 
Q 2644 4219 2406 4219 
Q 1781 4219 1451 3797 
Q 1122 3375 1075 2522 
Q 1259 2794 1537 2939 
Q 1816 3084 2150 3084 
Q 2853 3084 3261 2657 
Q 3669 2231 3669 1497 
Q 3669 778 3244 343 
Q 2819 -91 2113 -91 
Q 1303 -91 875 529 
Q 447 1150 447 2328 
Q 447 3434 972 4092 
Q 1497 4750 2381 4750 
Q 2619 4750 2861 4703 
Q 3103 4656 3366 4563 
z
" transform="scale(0.015625)"/>
       </defs>
       <use xlink:href="#DejaVuSans-36"/>
      </g>
     </g>
    </g>
    <g id="xtick_5">
     <g id="line2d_5">
      <g>
       <use xlink:href="#m47bbcf0d99" x="309.625157" y="139.811563" style="stroke: #000000; stroke-width: 0.8"/>
      </g>
     </g>
     <g id="text_5">
      <!-- 8 -->
      <g transform="translate(306.762032 153.650156) scale(0.09 -0.09)">
       <defs>
        <path id="DejaVuSans-38" d="M 2034 2216 
Q 1584 2216 1326 1975 
Q 1069 1734 1069 1313 
Q 1069 891 1326 650 
Q 1584 409 2034 409 
Q 2484 409 2743 651 
Q 3003 894 3003 1313 
Q 3003 1734 2745 1975 
Q 2488 2216 2034 2216 
z
M 1403 2484 
Q 997 2584 770 2862 
Q 544 3141 544 3541 
Q 544 4100 942 4425 
Q 1341 4750 2034 4750 
Q 2731 4750 3128 4425 
Q 3525 4100 3525 3541 
Q 3525 3141 3298 2862 
Q 3072 2584 2669 2484 
Q 3125 2378 3379 2068 
Q 3634 1759 3634 1313 
Q 3634 634 3220 271 
Q 2806 -91 2034 -91 
Q 1263 -91 848 271 
Q 434 634 434 1313 
Q 434 1759 690 2068 
Q 947 2378 1403 2484 
z
M 1172 3481 
Q 1172 3119 1398 2916 
Q 1625 2713 2034 2713 
Q 2441 2713 2670 2916 
Q 2900 3119 2900 3481 
Q 2900 3844 2670 4047 
Q 2441 4250 2034 4250 
Q 1625 4250 1398 4047 
Q 1172 3844 1172 3481 
z
" transform="scale(0.015625)"/>
       </defs>
       <use xlink:href="#DejaVuSans-38"/>
      </g>
     </g>
    </g>
    <g id="xtick_6">
     <g id="line2d_6">
      <g>
       <use xlink:href="#m47bbcf0d99" x="369.643764" y="139.811563" style="stroke: #000000; stroke-width: 0.8"/>
      </g>
     </g>
     <g id="text_6">
      <!-- 10 -->
      <g transform="translate(363.917514 153.650156) scale(0.09 -0.09)">
       <defs>
        <path id="DejaVuSans-31" d="M 794 531 
L 1825 531 
L 1825 4091 
L 703 3866 
L 703 4441 
L 1819 4666 
L 2450 4666 
L 2450 531 
L 3481 531 
L 3481 0 
L 794 0 
L 794 531 
z
" transform="scale(0.015625)"/>
       </defs>
       <use xlink:href="#DejaVuSans-31"/>
       <use xlink:href="#DejaVuSans-30" transform="translate(63.623047 0)"/>
      </g>
     </g>
    </g>
    <g id="text_7">
     <!-- $t$ [hr] -->
     <g transform="translate(215.775 167.120313) scale(0.1 -0.1)">
      <defs>
       <path id="DejaVuSans-Oblique-74" d="M 2706 3500 
L 2619 3053 
L 1472 3053 
L 1100 1153 
Q 1081 1047 1072 975 
Q 1063 903 1063 863 
Q 1063 663 1183 572 
Q 1303 481 1569 481 
L 2150 481 
L 2053 0 
L 1503 0 
Q 991 0 739 200 
Q 488 400 488 806 
Q 488 878 497 964 
Q 506 1050 525 1153 
L 897 3053 
L 409 3053 
L 500 3500 
L 978 3500 
L 1172 4494 
L 1747 4494 
L 1556 3500 
L 2706 3500 
z
" transform="scale(0.015625)"/>
       <path id="DejaVuSans-20" transform="scale(0.015625)"/>
       <path id="DejaVuSans-5b" d="M 550 4863 
L 1875 4863 
L 1875 4416 
L 1125 4416 
L 1125 -397 
L 1875 -397 
L 1875 -844 
L 550 -844 
L 550 4863 
z
" transform="scale(0.015625)"/>
       <path id="DejaVuSans-68" d="M 3513 2113 
L 3513 0 
L 2938 0 
L 2938 2094 
Q 2938 2591 2744 2837 
Q 2550 3084 2163 3084 
Q 1697 3084 1428 2787 
Q 1159 2491 1159 1978 
L 1159 0 
L 581 0 
L 581 4863 
L 1159 4863 
L 1159 2956 
Q 1366 3272 1645 3428 
Q 1925 3584 2291 3584 
Q 2894 3584 3203 3211 
Q 3513 2838 3513 2113 
z
" transform="scale(0.015625)"/>
       <path id="DejaVuSans-72" d="M 2631 2963 
Q 2534 3019 2420 3045 
Q 2306 3072 2169 3072 
Q 1681 3072 1420 2755 
Q 1159 2438 1159 1844 
L 1159 0 
L 581 0 
L 581 3500 
L 1159 3500 
L 1159 2956 
Q 1341 3275 1631 3429 
Q 1922 3584 2338 3584 
Q 2397 3584 2469 3576 
Q 2541 3569 2628 3553 
L 2631 2963 
z
" transform="scale(0.015625)"/>
       <path id="DejaVuSans-5d" d="M 1947 4863 
L 1947 -844 
L 622 -844 
L 622 -397 
L 1369 -397 
L 1369 4416 
L 622 4416 
L 622 4863 
L 1947 4863 
z
" transform="scale(0.015625)"/>
      </defs>
      <use xlink:href="#DejaVuSans-Oblique-74" transform="translate(0 0.015625)"/>
      <use xlink:href="#DejaVuSans-20" transform="translate(39.208984 0.015625)"/>
      <use xlink:href="#DejaVuSans-5b" transform="translate(70.996094 0.015625)"/>
      <use xlink:href="#DejaVuSans-68" transform="translate(110.009766 0.015625)"/>
      <use xlink:href="#DejaVuSans-72" transform="translate(173.388672 0.015625)"/>
      <use xlink:href="#DejaVuSans-5d" transform="translate(214.501953 0.015625)"/>
     </g>
    </g>
   </g>
   <g id="matplotlib.axis_2">
    <g id="ytick_1">
     <g id="line2d_7">
      <defs>
       <path id="m6204a8b5d5" d="M 0 0 
L -3.5 0 
" style="stroke: #000000; stroke-width: 0.8"/>
      </defs>
      <g>
       <use xlink:href="#m6204a8b5d5" x="53.75" y="133.277704" style="stroke: #000000; stroke-width: 0.8"/>
      </g>
     </g>
     <g id="text_8">
      <!-- $\mathdefault{10^{-4}}$ -->
      <g transform="translate(25.6 136.697) scale(0.09 -0.09)">
       <defs>
        <path id="DejaVuSans-2212" d="M 678 2272 
L 4684 2272 
L 4684 1741 
L 678 1741 
L 678 2272 
z
" transform="scale(0.015625)"/>
       </defs>
       <use xlink:href="#DejaVuSans-31" transform="translate(0 0.684375)"/>
       <use xlink:href="#DejaVuSans-30" transform="translate(63.623047 0.684375)"/>
       <use xlink:href="#DejaVuSans-2212" transform="translate(128.203125 38.965625) scale(0.7)"/>
       <use xlink:href="#DejaVuSans-34" transform="translate(186.855469 38.965625) scale(0.7)"/>
      </g>
     </g>
    </g>
    <g id="ytick_2">
     <g id="line2d_8">
      <g>
       <use xlink:href="#m6204a8b5d5" x="53.75" y="90.661276" style="stroke: #000000; stroke-width: 0.8"/>
      </g>
     </g>
     <g id="text_9">
      <!-- $\mathdefault{10^{-3}}$ -->
      <g transform="translate(25.6 94.080573) scale(0.09 -0.09)">
       <defs>
        <path id="DejaVuSans-33" d="M 2597 2516 
Q 3050 2419 3304 2112 
Q 3559 1806 3559 1356 
Q 3559 666 3084 287 
Q 2609 -91 1734 -91 
Q 1441 -91 1130 -33 
Q 819 25 488 141 
L 488 750 
Q 750 597 1062 519 
Q 1375 441 1716 441 
Q 2309 441 2620 675 
Q 2931 909 2931 1356 
Q 2931 1769 2642 2001 
Q 2353 2234 1838 2234 
L 1294 2234 
L 1294 2753 
L 1863 2753 
Q 2328 2753 2575 2939 
Q 2822 3125 2822 3475 
Q 2822 3834 2567 4026 
Q 2313 4219 1838 4219 
Q 1578 4219 1281 4162 
Q 984 4106 628 3988 
L 628 4550 
Q 988 4650 1302 4700 
Q 1616 4750 1894 4750 
Q 2613 4750 3031 4423 
Q 3450 4097 3450 3541 
Q 3450 3153 3228 2886 
Q 3006 2619 2597 2516 
z
" transform="scale(0.015625)"/>
       </defs>
       <use xlink:href="#DejaVuSans-31" transform="translate(0 0.765625)"/>
       <use xlink:href="#DejaVuSans-30" transform="translate(63.623047 0.765625)"/>
       <use xlink:href="#DejaVuSans-2212" transform="translate(128.203125 39.046875) scale(0.7)"/>
       <use xlink:href="#DejaVuSans-33" transform="translate(186.855469 39.046875) scale(0.7)"/>
      </g>
     </g>
    </g>
    <g id="ytick_3">
     <g id="line2d_9">
      <g>
       <use xlink:href="#m6204a8b5d5" x="53.75" y="48.044848" style="stroke: #000000; stroke-width: 0.8"/>
      </g>
     </g>
     <g id="text_10">
      <!-- $\mathdefault{10^{-2}}$ -->
      <g transform="translate(25.6 51.464145) scale(0.09 -0.09)">
       <use xlink:href="#DejaVuSans-31" transform="translate(0 0.765625)"/>
       <use xlink:href="#DejaVuSans-30" transform="translate(63.623047 0.765625)"/>
       <use xlink:href="#DejaVuSans-2212" transform="translate(128.203125 39.046875) scale(0.7)"/>
       <use xlink:href="#DejaVuSans-32" transform="translate(186.855469 39.046875) scale(0.7)"/>
      </g>
     </g>
    </g>
    <g id="ytick_4">
     <g id="line2d_10">
      <defs>
       <path id="m94fd9f2598" d="M 0 0 
L -2 0 
" style="stroke: #000000; stroke-width: 0.6"/>
      </defs>
      <g>
       <use xlink:href="#m94fd9f2598" x="53.75" y="137.407662" style="stroke: #000000; stroke-width: 0.6"/>
      </g>
     </g>
    </g>
    <g id="ytick_5">
     <g id="line2d_11">
      <g>
       <use xlink:href="#m94fd9f2598" x="53.75" y="135.227724" style="stroke: #000000; stroke-width: 0.6"/>
      </g>
     </g>
    </g>
    <g id="ytick_6">
     <g id="line2d_12">
      <g>
       <use xlink:href="#m94fd9f2598" x="53.75" y="120.44888" style="stroke: #000000; stroke-width: 0.6"/>
      </g>
     </g>
    </g>
    <g id="ytick_7">
     <g id="line2d_13">
      <g>
       <use xlink:href="#m94fd9f2598" x="53.75" y="112.9445" style="stroke: #000000; stroke-width: 0.6"/>
      </g>
     </g>
    </g>
    <g id="ytick_8">
     <g id="line2d_14">
      <g>
       <use xlink:href="#m94fd9f2598" x="53.75" y="107.620057" style="stroke: #000000; stroke-width: 0.6"/>
      </g>
     </g>
    </g>
    <g id="ytick_9">
     <g id="line2d_15">
      <g>
       <use xlink:href="#m94fd9f2598" x="53.75" y="103.490099" style="stroke: #000000; stroke-width: 0.6"/>
      </g>
     </g>
    </g>
    <g id="ytick_10">
     <g id="line2d_16">
      <g>
       <use xlink:href="#m94fd9f2598" x="53.75" y="100.115677" style="stroke: #000000; stroke-width: 0.6"/>
      </g>
     </g>
    </g>
    <g id="ytick_11">
     <g id="line2d_17">
      <g>
       <use xlink:href="#m94fd9f2598" x="53.75" y="97.262644" style="stroke: #000000; stroke-width: 0.6"/>
      </g>
     </g>
    </g>
    <g id="ytick_12">
     <g id="line2d_18">
      <g>
       <use xlink:href="#m94fd9f2598" x="53.75" y="94.791234" style="stroke: #000000; stroke-width: 0.6"/>
      </g>
     </g>
    </g>
    <g id="ytick_13">
     <g id="line2d_19">
      <g>
       <use xlink:href="#m94fd9f2598" x="53.75" y="92.611297" style="stroke: #000000; stroke-width: 0.6"/>
      </g>
     </g>
    </g>
    <g id="ytick_14">
     <g id="line2d_20">
      <g>
       <use xlink:href="#m94fd9f2598" x="53.75" y="77.832453" style="stroke: #000000; stroke-width: 0.6"/>
      </g>
     </g>
    </g>
    <g id="ytick_15">
     <g id="line2d_21">
      <g>
       <use xlink:href="#m94fd9f2598" x="53.75" y="70.328072" style="stroke: #000000; stroke-width: 0.6"/>
      </g>
     </g>
    </g>
    <g id="ytick_16">
     <g id="line2d_22">
      <g>
       <use xlink:href="#m94fd9f2598" x="53.75" y="65.00363" style="stroke: #000000; stroke-width: 0.6"/>
      </g>
     </g>
    </g>
    <g id="ytick_17">
     <g id="line2d_23">
      <g>
       <use xlink:href="#m94fd9f2598" x="53.75" y="60.873671" style="stroke: #000000; stroke-width: 0.6"/>
      </g>
     </g>
    </g>
    <g id="ytick_18">
     <g id="line2d_24">
      <g>
       <use xlink:href="#m94fd9f2598" x="53.75" y="57.499249" style="stroke: #000000; stroke-width: 0.6"/>
      </g>
     </g>
    </g>
    <g id="ytick_19">
     <g id="line2d_25">
      <g>
       <use xlink:href="#m94fd9f2598" x="53.75" y="54.646216" style="stroke: #000000; stroke-width: 0.6"/>
      </g>
     </g>
    </g>
    <g id="ytick_20">
     <g id="line2d_26">
      <g>
       <use xlink:href="#m94fd9f2598" x="53.75" y="52.174807" style="stroke: #000000; stroke-width: 0.6"/>
      </g>
     </g>
    </g>
    <g id="ytick_21">
     <g id="line2d_27">
      <g>
       <use xlink:href="#m94fd9f2598" x="53.75" y="49.994869" style="stroke: #000000; stroke-width: 0.6"/>
      </g>
     </g>
    </g>
    <g id="ytick_22">
     <g id="line2d_28">
      <g>
       <use xlink:href="#m94fd9f2598" x="53.75" y="35.216025" style="stroke: #000000; stroke-width: 0.6"/>
      </g>
     </g>
    </g>
    <g id="ytick_23">
     <g id="line2d_29">
      <g>
       <use xlink:href="#m94fd9f2598" x="53.75" y="27.711645" style="stroke: #000000; stroke-width: 0.6"/>
      </g>
     </g>
    </g>
    <g id="ytick_24">
     <g id="line2d_30">
      <g>
       <use xlink:href="#m94fd9f2598" x="53.75" y="22.387202" style="stroke: #000000; stroke-width: 0.6"/>
      </g>
     </g>
    </g>
    <g id="ytick_25">
     <g id="line2d_31">
      <g>
       <use xlink:href="#m94fd9f2598" x="53.75" y="18.257244" style="stroke: #000000; stroke-width: 0.6"/>
      </g>
     </g>
    </g>
    <g id="ytick_26">
     <g id="line2d_32">
      <g>
       <use xlink:href="#m94fd9f2598" x="53.75" y="14.882822" style="stroke: #000000; stroke-width: 0.6"/>
      </g>
     </g>
    </g>
    <g id="ytick_27">
     <g id="line2d_33">
      <g>
       <use xlink:href="#m94fd9f2598" x="53.75" y="12.029789" style="stroke: #000000; stroke-width: 0.6"/>
      </g>
     </g>
    </g>
    <g id="text_11">
     <!-- $|F_{drag}|$ [N] -->
     <g transform="translate(18.5 98.955781) rotate(-90) scale(0.1 -0.1)">
      <defs>
       <path id="DejaVuSans-7c" d="M 1344 4891 
L 1344 -1509 
L 813 -1509 
L 813 4891 
L 1344 4891 
z
" transform="scale(0.015625)"/>
       <path id="DejaVuSans-Oblique-46" d="M 1081 4666 
L 3756 4666 
L 3653 4134 
L 1606 4134 
L 1338 2759 
L 3188 2759 
L 3084 2228 
L 1234 2228 
L 800 0 
L 172 0 
L 1081 4666 
z
" transform="scale(0.015625)"/>
       <path id="DejaVuSans-Oblique-64" d="M 2675 525 
Q 2444 222 2128 65 
Q 1813 -91 1428 -91 
Q 903 -91 598 267 
Q 294 625 294 1247 
Q 294 1766 478 2236 
Q 663 2706 1013 3078 
Q 1244 3325 1534 3454 
Q 1825 3584 2144 3584 
Q 2481 3584 2739 3421 
Q 2997 3259 3138 2956 
L 3513 4863 
L 4091 4863 
L 3144 0 
L 2566 0 
L 2675 525 
z
M 891 1350 
Q 891 897 1095 644 
Q 1300 391 1663 391 
Q 1931 391 2161 520 
Q 2391 650 2566 903 
Q 2750 1166 2856 1509 
Q 2963 1853 2963 2188 
Q 2963 2622 2758 2865 
Q 2553 3109 2194 3109 
Q 1922 3109 1687 2981 
Q 1453 2853 1288 2613 
Q 1106 2353 998 2009 
Q 891 1666 891 1350 
z
" transform="scale(0.015625)"/>
       <path id="DejaVuSans-Oblique-72" d="M 2853 2969 
Q 2766 3016 2653 3041 
Q 2541 3066 2413 3066 
Q 1953 3066 1609 2717 
Q 1266 2369 1153 1784 
L 800 0 
L 225 0 
L 909 3500 
L 1484 3500 
L 1375 2956 
Q 1603 3259 1920 3421 
Q 2238 3584 2597 3584 
Q 2691 3584 2781 3573 
Q 2872 3563 2963 3538 
L 2853 2969 
z
" transform="scale(0.015625)"/>
       <path id="DejaVuSans-Oblique-61" d="M 3438 1997 
L 3047 0 
L 2472 0 
L 2578 531 
Q 2325 219 2001 64 
Q 1678 -91 1281 -91 
Q 834 -91 548 182 
Q 263 456 263 884 
Q 263 1497 752 1853 
Q 1241 2209 2100 2209 
L 2900 2209 
L 2931 2363 
Q 2938 2388 2941 2417 
Q 2944 2447 2944 2509 
Q 2944 2788 2717 2942 
Q 2491 3097 2081 3097 
Q 1800 3097 1504 3025 
Q 1209 2953 897 2809 
L 997 3341 
Q 1322 3463 1633 3523 
Q 1944 3584 2234 3584 
Q 2853 3584 3176 3315 
Q 3500 3047 3500 2534 
Q 3500 2431 3484 2292 
Q 3469 2153 3438 1997 
z
M 2816 1759 
L 2241 1759 
Q 1534 1759 1195 1570 
Q 856 1381 856 984 
Q 856 709 1029 553 
Q 1203 397 1509 397 
Q 1978 397 2328 733 
Q 2678 1069 2791 1631 
L 2816 1759 
z
" transform="scale(0.015625)"/>
       <path id="DejaVuSans-Oblique-67" d="M 3816 3500 
L 3219 434 
Q 3047 -456 2561 -893 
Q 2075 -1331 1253 -1331 
Q 950 -1331 690 -1286 
Q 431 -1241 206 -1147 
L 313 -588 
Q 525 -725 762 -790 
Q 1000 -856 1269 -856 
Q 1816 -856 2167 -557 
Q 2519 -259 2631 300 
L 2681 563 
Q 2441 288 2122 144 
Q 1803 0 1434 0 
Q 903 0 598 351 
Q 294 703 294 1319 
Q 294 1803 478 2267 
Q 663 2731 997 3091 
Q 1219 3328 1514 3456 
Q 1809 3584 2131 3584 
Q 2484 3584 2746 3420 
Q 3009 3256 3138 2956 
L 3238 3500 
L 3816 3500 
z
M 2950 2216 
Q 2950 2641 2750 2872 
Q 2550 3103 2181 3103 
Q 1953 3103 1747 3012 
Q 1541 2922 1394 2759 
Q 1156 2491 1023 2127 
Q 891 1763 891 1375 
Q 891 944 1092 712 
Q 1294 481 1672 481 
Q 2219 481 2584 976 
Q 2950 1472 2950 2216 
z
" transform="scale(0.015625)"/>
       <path id="DejaVuSans-4e" d="M 628 4666 
L 1478 4666 
L 3547 763 
L 3547 4666 
L 4159 4666 
L 4159 0 
L 3309 0 
L 1241 3903 
L 1241 0 
L 628 0 
L 628 4666 
z
" transform="scale(0.015625)"/>
      </defs>
      <use xlink:href="#DejaVuSans-7c" transform="translate(0 0.578125)"/>
      <use xlink:href="#DejaVuSans-Oblique-46" transform="translate(33.691406 0.578125)"/>
      <use xlink:href="#DejaVuSans-Oblique-64" transform="translate(91.210938 -15.828125) scale(0.7)"/>
      <use xlink:href="#DejaVuSans-Oblique-72" transform="translate(135.644531 -15.828125) scale(0.7)"/>
      <use xlink:href="#DejaVuSans-Oblique-61" transform="translate(164.423828 -15.828125) scale(0.7)"/>
      <use xlink:href="#DejaVuSans-Oblique-67" transform="translate(207.319336 -15.828125) scale(0.7)"/>
      <use xlink:href="#DejaVuSans-7c" transform="translate(254.487305 0.578125)"/>
      <use xlink:href="#DejaVuSans-20" transform="translate(288.178711 0.578125)"/>
      <use xlink:href="#DejaVuSans-5b" transform="translate(319.96582 0.578125)"/>
      <use xlink:href="#DejaVuSans-4e" transform="translate(358.979492 0.578125)"/>
      <use xlink:href="#DejaVuSans-5d" transform="translate(433.78418 0.578125)"/>
     </g>
    </g>
   </g>
   <g id="line2d_34">
    <path d="M 69.634091 128.239194 
L 69.71745 128.966558 
L 69.800809 126.883318 
L 69.884168 128.082853 
L 69.967528 125.180942 
L 70.050887 127.083313 
L 70.134246 125.335195 
L 70.384323 129.14627 
L 70.467683 130.279939 
L 70.634401 128.613956 
L 70.801119 130.408797 
L 70.884479 130.085227 
L 70.967838 131.189144 
L 71.134556 129.300122 
L 71.301274 128.898568 
L 71.384634 130.039698 
L 71.467993 129.872982 
L 71.551352 128.430783 
L 71.634711 129.585932 
L 71.71807 128.188356 
L 71.801429 130.124026 
L 71.968148 127.749612 
L 72.051507 131.065236 
L 72.218225 129.206147 
L 72.301585 130.33758 
L 72.384944 130.141446 
L 72.551662 128.507141 
L 72.71838 128.249918 
L 72.80174 129.410029 
L 73.051817 126.201009 
L 73.135176 126.272885 
L 73.301895 129.53193 
L 73.385254 128.141109 
L 73.468613 131.492829 
L 73.551972 131.179161 
L 73.635331 129.523835 
L 73.80205 131.237697 
L 73.968768 130.454373 
L 74.135486 127.985688 
L 74.218846 129.152724 
L 74.302205 129.067532 
L 74.385564 127.74587 
L 74.468923 128.919648 
L 74.635641 127.565215 
L 74.719001 128.743959 
L 74.80236 127.469904 
L 74.885719 128.651214 
L 74.969078 125.615233 
L 75.052437 125.733727 
L 75.135796 128.8785 
L 75.219156 128.816997 
L 75.302515 125.74204 
L 75.385874 126.969655 
L 75.469233 125.947737 
L 75.552592 129.110207 
L 75.635952 129.026546 
L 75.80267 128.881105 
L 75.886029 127.583321 
L 75.969388 128.760363 
L 76.219466 122.875819 
L 76.302825 121.772121 
L 76.469543 123.912039 
L 76.552902 124.162324 
L 76.636262 125.427849 
L 76.719621 124.606173 
L 76.80298 124.802199 
L 76.969698 126.721297 
L 77.053058 127.921039 
L 77.219776 125.051119 
L 77.303135 126.294128 
L 77.386494 125.356498 
L 77.469853 128.474149 
L 77.636572 127.202778 
L 77.719931 128.388253 
L 77.80329 128.364021 
L 77.886649 128.341654 
L 78.053368 127.096298 
L 78.136727 128.284081 
L 78.303445 123.832862 
L 78.386804 124.083745 
L 78.470164 125.348629 
L 78.8036 122.267586 
L 79.220396 127.939195 
L 79.303755 127.948558 
L 79.387114 128.679102 
L 79.470474 128.509401 
L 79.720551 128.089217 
L 79.80391 129.245369 
L 79.88727 126.034788 
L 79.970629 126.102143 
L 80.053988 126.163346 
L 80.220706 129.229413 
L 80.387425 127.755456 
L 80.470784 131.086063 
L 80.554143 129.408408 
L 80.637502 130.522321 
L 80.720861 126.994019 
L 80.80422 128.179299 
L 80.88758 126.953967 
L 80.970939 128.139969 
L 81.054298 126.91882 
L 81.137657 128.837558 
L 81.221016 128.641974 
L 81.304375 129.777963 
L 81.387735 128.304259 
L 81.637812 131.181032 
L 81.721171 130.86631 
L 81.88789 128.974306 
L 81.971249 130.098252 
L 82.054608 128.566029 
L 82.137967 130.504552 
L 82.221326 130.13147 
L 82.304686 131.217357 
L 82.388045 130.893622 
L 82.471404 130.602602 
L 82.554763 128.98225 
L 82.638122 130.104007 
L 82.721481 129.890298 
L 82.804841 129.696884 
L 82.8882 130.318558 
L 82.971559 129.958825 
L 83.054918 131.048049 
L 83.221637 127.110125 
L 83.304996 128.285539 
L 83.471714 126.975792 
L 83.638432 125.283936 
L 83.721792 125.390521 
L 83.805151 125.487625 
L 83.971869 123.560233 
L 84.388665 124.977038 
L 84.472024 124.151728 
L 84.555383 127.204278 
L 84.638743 124.374868 
L 84.722102 124.547572 
L 84.805461 123.119258 
L 84.88882 124.392473 
L 84.972179 123.634937 
L 85.055538 123.862857 
L 85.138898 124.072531 
L 85.222257 122.711287 
L 85.305616 125.663898 
L 85.388975 124.737632 
L 85.555693 127.990106 
L 85.805771 125.051224 
L 85.88913 125.159423 
L 86.055849 127.159502 
L 86.139208 130.472755 
L 86.222567 130.18891 
L 86.389285 131.811949 
L 86.556004 125.819624 
L 86.639363 125.856106 
L 86.722722 127.055372 
L 86.806081 125.917574 
L 86.972799 129.156756 
L 87.056159 127.700522 
L 87.139518 128.846065 
L 87.222877 127.435425 
L 87.306236 129.36257 
L 87.389595 129.056895 
L 87.472954 130.159288 
L 87.556314 126.572541 
L 87.639673 128.48976 
L 87.723032 128.268294 
L 87.806391 128.067662 
L 87.88975 129.199339 
L 88.056469 127.569735 
L 88.139828 128.715456 
L 88.223187 127.307534 
L 88.306546 128.460379 
L 88.389905 125.259794 
L 88.473265 125.326172 
L 88.556624 126.533408 
L 88.639983 125.440044 
L 88.89006 130.567286 
L 89.223497 129.445112 
L 89.390216 127.718782 
L 89.473575 128.854967 
L 89.556934 128.69319 
L 89.640293 128.545903 
L 89.723652 127.136801 
L 89.890371 130.155276 
L 90.057089 128.234314 
L 90.140448 131.690464 
L 90.307166 128.763913 
L 90.390526 130.844544 
L 90.473885 130.470631 
L 90.640603 129.833051 
L 90.807322 127.409416 
L 90.890681 126.150827 
L 90.97404 127.327139 
L 91.224117 124.401955 
L 91.307477 126.298969 
L 91.390836 126.243162 
L 91.474195 127.415098 
L 91.557554 127.364582 
L 91.724272 126.057544 
L 91.890991 125.982791 
L 91.97435 129.248893 
L 92.057709 125.754634 
L 92.224427 131.092638 
L 92.307787 129.210422 
L 92.474505 125.996369 
L 92.641223 126.116122 
L 92.724583 126.16718 
L 92.891301 122.950294 
L 92.97466 122.256356 
L 93.141378 123.780514 
L 93.308097 122.60406 
L 93.391456 122.924566 
L 93.474815 122.226362 
L 93.641533 127.230139 
L 93.724893 125.946676 
L 93.808252 127.118984 
L 94.058329 123.995183 
L 94.308407 129.120486 
L 94.475125 123.806593 
L 94.558484 125.033999 
L 94.808562 122.602356 
L 94.97528 125.694426 
L 95.058639 124.609775 
L 95.225358 125.865931 
L 95.308717 124.753076 
L 95.475435 130.026317 
L 95.558795 128.261355 
L 95.642154 129.357354 
L 95.725513 129.072273 
L 95.892231 127.245388 
L 95.97559 130.674014 
L 96.05895 130.246293 
L 96.475745 128.683192 
L 96.559105 127.122668 
L 96.725823 130.125051 
L 96.809182 128.318825 
L 96.975901 131.293949 
L 97.05926 129.275429 
L 97.142619 130.33245 
L 97.225978 128.482294 
L 97.309337 130.437969 
L 97.392696 129.886797 
L 97.476056 129.397063 
L 97.559415 130.448492 
L 97.642774 127.778189 
L 97.726133 129.857595 
L 97.809492 128.078944 
L 98.05957 133.211955 
L 98.309647 129.024792 
L 98.559725 126.198391 
L 98.643084 124.986058 
L 98.726443 126.171322 
L 98.809802 124.302223 
L 98.893162 124.44708 
L 98.976521 123.475736 
L 99.226598 126.659249 
L 99.309957 126.598456 
L 99.560035 123.597423 
L 99.643394 123.696511 
L 99.726753 123.165245 
L 99.976831 119.574299 
L 100.143549 120.500476 
L 100.310268 118.984395 
L 100.393627 120.309986 
L 100.476986 118.481318 
L 100.560345 118.951007 
L 100.727063 122.095895 
L 101.227218 123.593366 
L 101.393937 123.948685 
L 101.644014 120.006374 
L 101.810733 122.269983 
L 101.977451 121.229837 
L 102.06081 121.587275 
L 102.394247 124.070442 
L 102.727684 127.891127 
L 102.811043 125.644558 
L 102.894402 125.649653 
L 102.977761 127.699732 
L 103.06112 127.513713 
L 103.227839 125.903043 
L 103.311198 127.835818 
L 103.394557 126.744602 
L 103.477916 128.816732 
L 103.644635 125.08039 
L 103.727994 125.024489 
L 103.811353 126.199872 
L 103.894712 123.146184 
L 103.978071 123.256838 
L 104.06143 125.160492 
L 104.228149 122.774961 
L 104.311508 123.008863 
L 104.394867 123.224402 
L 104.478226 120.798128 
L 104.644945 122.365372 
L 104.728304 121.608524 
L 105.228459 129.218368 
L 105.311818 128.736013 
L 105.395177 129.792801 
L 105.478536 129.37786 
L 105.645255 127.271505 
L 105.728614 128.376762 
L 105.811973 128.108672 
L 105.978691 124.39427 
L 106.14541 125.580167 
L 106.228769 124.379806 
L 106.312128 125.570782 
L 106.395487 124.370731 
L 106.562206 125.557509 
L 106.728924 125.549133 
L 106.895642 127.408073 
L 106.979002 125.925282 
L 107.062361 127.071149 
L 107.229079 125.517347 
L 107.312438 124.710032 
L 107.395797 124.776894 
L 107.562516 124.893305 
L 107.729234 122.127683 
L 107.895953 123.551788 
L 107.979312 122.62418 
L 108.396108 129.814425 
L 108.479467 125.820445 
L 108.562826 126.968474 
L 108.646185 125.545607 
L 108.729544 126.70172 
L 108.896263 123.547129 
L 108.979622 124.759171 
L 109.062981 123.661852 
L 109.14634 123.711677 
L 109.229699 125.625502 
L 109.396418 123.692456 
L 109.479777 123.738927 
L 109.646495 124.986721 
L 109.729854 125.024117 
L 109.813214 123.886419 
L 109.896573 125.088979 
L 110.063291 122.247734 
L 110.14665 122.412911 
L 110.313369 122.703925 
L 110.396728 124.607712 
L 110.480087 124.571565 
L 110.563446 122.76842 
L 110.646805 125.898758 
L 110.896883 122.783752 
L 110.980242 122.903948 
L 111.23032 128.053945 
L 111.397038 126.235369 
L 111.480397 126.044539 
L 111.563756 127.18438 
L 111.813834 123.589537 
L 111.897193 125.503552 
L 111.980552 125.382075 
L 112.063911 126.541532 
L 112.313989 121.669101 
L 112.814144 128.579721 
L 112.897503 126.880145 
L 112.980862 130.386411 
L 113.064221 129.881801 
L 113.23094 129.033547 
L 113.481017 130.987562 
L 113.647736 127.526619 
L 113.897813 126.647532 
L 113.981172 130.132169 
L 114.147891 127.765441 
L 114.23125 131.366728 
L 114.397968 126.648115 
L 114.481327 128.599554 
L 114.648046 125.843168 
L 114.731405 125.684826 
L 114.814764 123.669709 
L 114.981482 124.914689 
L 115.064842 124.949724 
L 115.148201 123.807989 
L 115.314919 125.036892 
L 115.398278 125.060792 
L 115.564997 126.945606 
L 115.731715 123.675561 
L 115.815074 125.591528 
L 115.981793 123.634702 
L 116.065152 124.841506 
L 116.315229 121.746022 
L 116.648666 122.770768 
L 116.898743 119.464941 
L 117.065462 121.128698 
L 117.23218 121.766711 
L 117.398899 123.891088 
L 117.482258 124.008549 
L 117.565617 122.372129 
L 117.815694 124.52377 
L 118.315849 124.829426 
L 118.399209 121.986828 
L 118.482568 123.234327 
L 118.565927 120.727234 
L 118.899364 124.354788 
L 118.982723 124.429999 
L 119.066082 123.349355 
L 119.149441 124.561149 
L 119.2328 123.461361 
L 119.31616 124.669967 
L 119.399519 123.554059 
L 119.482878 124.759973 
L 119.566237 121.925152 
L 119.649596 122.099882 
L 119.899674 122.542772 
L 119.983033 121.042927 
L 120.149751 124.15301 
L 120.23311 124.241481 
L 120.31647 122.552711 
L 120.399829 122.769774 
L 120.566547 124.815793 
L 120.649906 123.672755 
L 120.733266 123.698373 
L 120.816625 124.898535 
L 120.899984 123.093941 
L 120.983343 123.266467 
L 121.066702 122.334724 
L 121.233421 123.70334 
L 121.31678 123.825267 
L 121.400139 122.816197 
L 121.483498 122.911936 
L 121.566857 124.131862 
L 121.816935 119.844139 
L 122.067012 123.919296 
L 122.150372 124.019869 
L 122.400449 121.457244 
L 122.567167 124.555946 
L 122.650527 123.436512 
L 122.733886 123.473898 
L 122.817245 123.507631 
L 122.900604 126.72245 
L 122.983963 126.568211 
L 123.067322 125.14628 
L 123.150682 126.301012 
L 123.234041 124.918924 
L 123.3174 128.260223 
L 123.484118 123.816 
L 123.567478 125.846657 
L 123.650837 125.770713 
L 123.900914 122.562412 
L 123.984273 125.703493 
L 124.067633 125.638121 
L 124.150992 125.578191 
L 124.234351 127.641625 
L 124.31771 127.38871 
L 124.401069 125.823138 
L 124.484428 126.95423 
L 124.567788 126.767559 
L 124.734506 126.444886 
L 124.901224 124.905816 
L 124.984584 124.797596 
L 125.067943 125.95782 
L 125.151302 125.861746 
L 125.31802 124.45086 
L 125.401379 125.620205 
L 125.484739 124.318325 
L 125.568098 125.491 
L 125.734816 124.157196 
L 125.818175 125.333751 
L 125.901534 122.29535 
L 126.068253 125.37075 
L 126.151612 125.321067 
L 126.31833 124.014801 
L 126.401689 125.193708 
L 126.568408 123.911249 
L 126.651767 125.829806 
L 126.818485 123.679496 
L 126.901845 124.866292 
L 126.985204 121.912562 
L 127.151922 124.991856 
L 127.235281 123.761403 
L 127.31864 124.944664 
L 127.402 124.923139 
L 127.652077 121.45439 
L 127.735436 121.71615 
L 127.818795 120.924654 
L 128.068873 124.239533 
L 128.152232 124.273444 
L 128.318951 121.591939 
L 128.40231 121.744858 
L 128.485669 122.978024 
L 128.569028 122.0125 
L 128.652387 122.129084 
L 128.902465 122.4199 
L 129.069183 125.665702 
L 129.152542 122.48319 
L 129.319261 125.545674 
L 129.902775 125.024742 
L 130.152852 127.423865 
L 130.236212 127.011966 
L 130.319571 124.574838 
L 130.486289 127.797296 
L 130.653007 125.795127 
L 130.736367 126.905894 
L 130.819726 125.3221 
L 130.903085 126.446959 
L 130.986444 126.249396 
L 131.153162 124.613731 
L 131.236522 125.758744 
L 131.319881 124.347897 
L 131.40324 125.500131 
L 131.486599 125.387361 
L 131.569958 124.02905 
L 131.736677 129.460491 
L 131.820036 128.934819 
L 131.986754 126.595866 
L 132.070113 130.175651 
L 132.153473 127.988987 
L 132.320191 133.947401 
L 132.570268 127.15081 
L 132.736987 132.995273 
L 132.820346 130.222581 
L 132.903705 131.165093 
L 133.070424 128.165321 
L 133.153783 131.935715 
L 133.320501 128.697734 
L 133.40386 130.686635 
L 133.487219 127.362984 
L 133.570579 128.409518 
L 133.653938 126.512351 
L 133.737297 127.58717 
L 133.904015 125.538053 
L 133.987374 125.275396 
L 134.070734 126.388843 
L 134.154093 124.823035 
L 134.237452 125.949838 
L 134.320811 125.760522 
L 134.40417 122.410337 
L 134.48753 122.434464 
L 134.654248 124.363812 
L 134.820966 128.250677 
L 134.904325 127.682515 
L 135.154403 132.535637 
L 135.321121 129.036313 
L 135.40448 130.012827 
L 135.571199 125.049845 
L 135.654558 126.163952 
L 135.737917 124.602006 
L 135.821276 125.729333 
L 135.904636 124.233635 
L 135.987995 125.371506 
L 136.071354 125.216471 
L 136.154713 123.79632 
L 136.238072 124.946275 
L 136.48815 121.706639 
L 136.654868 122.973686 
L 136.738227 121.874151 
L 136.821586 121.919007 
L 137.155023 126.877722 
L 137.238382 126.558294 
L 137.321741 126.270625 
L 137.405101 126.840932 
L 137.48846 126.394769 
L 137.571819 123.902027 
L 137.738537 126.912447 
L 137.988615 122.861721 
L 138.071974 122.805907 
L 138.322052 127.714671 
L 138.572129 122.624059 
L 138.655488 122.687749 
L 138.738847 121.593776 
L 138.822207 122.796889 
L 138.905566 121.684753 
L 138.988925 121.723225 
L 139.072284 122.922131 
L 139.155643 121.145785 
L 139.239003 123.153953 
L 139.322362 120.260997 
L 139.405721 121.496872 
L 139.572439 119.205097 
L 139.655798 120.465988 
L 139.739158 119.077657 
L 139.822517 119.407402 
L 139.989235 117.508752 
L 140.239313 122.785183 
L 140.322672 121.009057 
L 140.406031 120.116322 
L 140.48939 120.270956 
L 140.572749 122.164593 
L 140.656109 122.144452 
L 140.739468 122.125286 
L 140.822827 123.308178 
L 140.989545 122.072837 
L 141.239623 122.026563 
L 141.406341 125.068629 
L 141.739778 119.738988 
L 142.156574 124.67687 
L 142.239933 123.229518 
L 142.323292 124.376578 
L 142.406651 124.246276 
L 142.49001 124.127449 
L 142.656729 125.885363 
L 142.740088 124.234984 
L 142.823447 125.349984 
L 142.906806 125.120638 
L 142.990165 124.913127 
L 143.240243 119.82358 
L 143.323602 122.909846 
L 143.406961 122.904565 
L 143.57368 121.699868 
L 143.907116 121.674933 
L 143.990476 121.01209 
L 144.073835 121.161831 
L 144.157194 121.298848 
L 144.240553 123.320914 
L 144.323912 123.271408 
L 144.407271 123.225714 
L 144.57399 121.929097 
L 144.740708 121.862738 
L 144.824067 123.043349 
L 144.907426 123.014282 
L 144.990786 122.987186 
L 145.074145 121.755277 
L 145.157504 122.938232 
L 145.324222 121.691475 
L 145.490941 119.445504 
L 145.5743 117.185203 
L 145.657659 118.480729 
L 145.741018 117.838907 
L 145.824377 119.119591 
L 145.907737 118.398827 
L 146.157814 121.598209 
L 146.491251 121.901245 
L 146.57461 123.938762 
L 146.657969 123.81477 
L 146.741328 123.701849 
L 146.824688 124.366052 
L 146.908047 124.081147 
L 146.991406 125.191296 
L 147.074765 124.942596 
L 147.158124 125.535287 
L 147.241483 125.125039 
L 147.324843 123.973289 
L 147.408202 126.052085 
L 147.491561 125.712162 
L 147.57492 124.021594 
L 147.741638 129.675397 
L 147.908357 124.552969 
L 147.991716 125.646074 
L 148.075075 123.96083 
L 148.158434 125.072703 
L 148.325153 123.274616 
L 148.408512 124.407458 
L 148.491871 124.226764 
L 148.658589 122.627789 
L 148.741949 125.994715 
L 148.825308 125.651782 
L 148.992026 125.067268 
L 149.158744 126.700042 
L 149.242104 126.279161 
L 149.325463 123.694097 
L 149.408822 125.771076 
L 149.492181 122.039344 
L 149.57554 125.357269 
L 149.658899 123.703839 
L 149.742259 127.181746 
L 149.825618 126.704254 
L 150.075695 122.29631 
L 150.242414 122.100352 
L 150.409132 127.543584 
L 150.492491 127.021453 
L 150.57585 126.557423 
L 150.65921 124.689666 
L 150.825928 126.304584 
L 151.159365 119.59454 
L 151.242724 119.72366 
L 151.409442 122.804081 
L 151.492801 121.537223 
L 151.576161 122.717331 
L 151.65952 122.679253 
L 151.826238 119.782542 
L 152.076316 120.088578 
L 152.159675 121.307571 
L 152.243034 120.250953 
L 152.326393 121.465547 
L 152.409752 118.707701 
L 152.576471 120.152534 
L 152.65983 120.328343 
L 152.743189 122.348025 
L 152.826548 122.338738 
L 153.243344 116.662572 
L 153.410062 118.301839 
L 153.493422 118.616089 
L 153.576781 117.904189 
L 153.743499 121.016177 
L 153.826858 119.991274 
L 153.910217 123.15273 
L 154.160295 118.504141 
L 154.327013 121.605964 
L 154.577091 119.019849 
L 154.743809 120.425317 
L 154.910528 116.621065 
L 155.243964 120.266849 
L 155.410683 120.572222 
L 155.494042 118.989639 
L 155.577401 120.989935 
L 155.66076 119.959942 
L 155.744119 120.044992 
L 155.994197 120.258089 
L 156.160915 123.512214 
L 156.244274 123.385499 
L 156.577711 122.984456 
L 156.827789 116.973086 
L 156.911148 117.288787 
L 157.077866 120.567487 
L 157.161225 119.588343 
L 157.244584 118.065625 
L 157.494662 125.198846 
L 157.66138 121.470108 
L 157.828099 121.368916 
L 157.911458 119.545046 
L 157.994817 119.6584 
L 158.078176 121.564398 
L 158.161535 121.501609 
L 158.578331 128.744227 
L 158.74505 123.790022 
L 158.995127 126.510253 
L 159.078486 122.485651 
L 159.161845 123.630944 
L 159.245205 123.483001 
L 159.411923 121.955834 
L 159.495282 121.852321 
L 159.578641 123.015835 
L 159.662001 120.985932 
L 159.74536 121.763249 
L 159.912078 119.312634 
L 159.995437 120.168312 
L 160.162156 120.271905 
L 160.328874 118.800862 
L 160.412233 118.967193 
L 160.578951 119.259876 
L 160.74567 121.291803 
L 160.829029 120.571623 
L 160.912388 122.600639 
L 160.995747 121.311622 
L 161.079107 124.607374 
L 161.162466 124.355926 
L 161.245825 124.129233 
L 161.329184 122.600988 
L 161.495902 125.617916 
L 161.579262 125.260279 
L 161.662621 125.797331 
L 161.74598 127.781859 
L 161.829339 127.037469 
L 161.996057 128.376947 
L 162.162776 126.837577 
L 162.329494 121.576438 
L 162.412853 122.743653 
L 162.496213 122.665389 
L 162.579572 122.593919 
L 162.662931 124.660985 
L 162.74629 124.396301 
L 162.829649 120.872321 
L 162.913008 122.058633 
L 162.996368 122.040023 
L 163.079727 120.819097 
L 163.329804 125.749407 
L 163.496523 123.031398 
L 163.579882 122.920903 
L 163.829959 119.742362 
L 163.996678 119.883997 
L 164.080037 123.068068 
L 164.330114 118.426598 
L 164.413474 118.606008 
L 164.580192 120.009482 
L 164.663551 119.060063 
L 164.74691 120.291202 
L 164.996988 117.857667 
L 165.163706 119.332865 
L 165.330424 119.712464 
L 165.413784 118.796048 
L 165.580502 121.879873 
L 165.74722 118.892565 
L 165.83058 119.02672 
L 165.913939 119.149398 
L 166.164016 122.335542 
L 166.330735 120.987422 
L 166.414094 122.162932 
L 166.497453 120.891872 
L 166.580812 122.813015 
L 166.74753 119.963018 
L 166.83089 118.391723 
L 166.914249 118.652162 
L 166.997608 118.892366 
L 167.080967 118.066666 
L 167.247686 121.159343 
L 167.331045 121.193658 
L 167.497763 118.366842 
L 167.581122 118.5322 
L 167.664481 121.624991 
L 167.8312 120.409345 
L 168.081277 120.38277 
L 168.247996 124.237252 
L 168.331355 121.766412 
L 168.664792 125.386481 
L 168.748151 122.669789 
L 168.83151 126.135565 
L 169.081587 121.571801 
L 169.164947 124.93414 
L 169.248306 124.592156 
L 169.415024 124.008204 
L 169.665102 126.113701 
L 169.748461 127.110292 
L 169.998538 125.534514 
L 170.165257 122.731628 
L 170.415334 122.36768 
L 170.498693 119.190981 
L 170.582053 120.403412 
L 170.665412 119.331781 
L 170.748771 120.539964 
L 170.83213 119.446801 
L 171.082208 124.57728 
L 171.165567 122.855689 
L 171.248926 124.803531 
L 171.332285 124.323406 
L 171.415644 123.895142 
L 171.665722 127.235774 
L 172.249236 117.46062 
L 172.332595 118.71119 
L 172.415954 117.841455 
L 172.499314 119.082171 
L 172.582673 118.161314 
L 172.666032 119.393502 
L 172.749391 118.428583 
L 172.83275 118.544872 
L 172.916109 118.650752 
L 173.082828 117.323442 
L 173.166187 117.525035 
L 173.249546 118.771098 
L 173.332905 117.879588 
L 173.416265 118.034779 
L 173.499624 119.267373 
L 173.582983 118.306148 
L 173.666342 118.424221 
L 173.83306 121.492046 
L 173.91642 118.42879 
L 173.999779 121.560376 
L 174.083138 121.495778 
L 174.166497 121.436114 
L 174.249856 119.484777 
L 174.333215 121.506808 
L 174.416575 120.213859 
L 174.583293 122.075841 
L 174.666652 121.841407 
L 174.833371 125.744167 
L 175.000089 128.909245 
L 175.166807 125.579908 
L 175.333526 124.405647 
L 175.416885 125.439006 
L 175.500244 124.965544 
L 175.666962 122.736024 
L 175.750321 126.282557 
L 175.833681 124.159271 
L 175.91704 125.19896 
L 176.000399 121.157274 
L 176.083758 123.088622 
L 176.167117 120.673647 
L 176.250476 121.824196 
L 176.417195 118.677462 
L 176.500554 118.734123 
L 176.583913 120.637886 
L 176.667272 120.517313 
L 176.750632 121.67044 
L 176.833991 120.305916 
L 176.91735 121.464534 
L 177.000709 121.374153 
L 177.084068 118.245938 
L 177.167427 121.394019 
L 177.250787 121.30708 
L 177.334146 121.227119 
L 177.417505 119.918072 
L 177.500864 123.212705 
L 177.584223 122.945983 
L 177.750942 121.159142 
L 177.834301 122.288665 
L 178.001019 117.22467 
L 178.167738 118.616655 
L 178.251097 118.758188 
L 178.334456 119.556622 
L 178.417815 119.513987 
L 178.667893 117.309976 
L 178.751252 118.172456 
L 178.91797 123.398625 
L 179.168048 122.570271 
L 179.334766 117.336166 
L 179.418125 120.435249 
L 179.584844 117.571952 
L 179.751562 118.905406 
L 179.834921 119.005902 
L 179.91828 116.316464 
L 180.084999 117.774461 
L 180.168358 117.962654 
L 180.251717 116.46514 
L 180.335076 118.449562 
L 180.501794 115.5369 
L 180.668513 116.212408 
L 180.751872 115.521634 
L 180.91859 117.046795 
L 181.00195 116.248573 
L 181.085309 116.453073 
L 181.168668 117.698938 
L 181.252027 116.812674 
L 181.335386 116.970034 
L 181.418745 117.113848 
L 181.502105 115.636427 
L 181.752182 119.138882 
L 181.9189 116.410278 
L 182.00226 118.297021 
L 182.085619 116.614815 
L 182.168978 117.853509 
L 182.419055 114.335655 
L 182.502415 115.626579 
L 182.585774 114.977085 
L 183.00257 120.497058 
L 183.085929 119.184465 
L 183.252647 122.409948 
L 183.336006 122.147144 
L 183.419366 121.909577 
L 183.502725 120.368901 
L 183.669443 125.914204 
L 184.00288 119.729912 
L 184.086239 119.711694 
L 184.169598 118.494682 
L 184.252957 119.677231 
L 184.336317 118.462144 
L 184.419676 119.645035 
L 184.503035 118.431552 
L 184.669753 121.471012 
L 184.753112 121.283215 
L 184.836472 117.936622 
L 184.919831 121.144315 
L 185.086549 117.858656 
L 185.253267 121.694747 
L 185.503345 124.557679 
L 185.670063 123.569326 
L 185.836782 120.58101 
L 186.0035 123.185128 
L 186.253578 121.815708 
L 186.420296 127.595006 
L 186.670373 125.199972 
L 186.753733 125.560944 
L 186.920451 123.150189 
L 187.00381 125.279342 
L 187.170528 120.549066 
L 187.253888 120.304788 
L 187.337247 118.149069 
L 187.420606 119.331322 
L 187.503965 119.311951 
L 187.587324 119.293474 
L 187.670684 116.327158 
L 187.754043 117.556866 
L 187.920761 115.06003 
L 188.087479 118.155514 
L 188.170839 115.425023 
L 188.337557 118.514062 
L 188.420916 118.557336 
L 188.587634 115.760902 
L 188.754353 117.662745 
L 188.921071 117.680458 
L 189.00443 117.035816 
L 189.08779 117.195883 
L 189.254508 117.476336 
L 189.421226 115.096275 
L 189.504585 116.3523 
L 189.587945 115.509521 
L 189.671304 118.569044 
L 189.838022 116.799144 
L 190.0881 117.273758 
L 190.171459 116.301969 
L 190.254818 119.428149 
L 190.421536 118.101041 
L 190.504896 119.27659 
L 190.588255 117.347526 
L 190.671614 117.469681 
L 190.754973 116.463623 
L 190.838332 117.682729 
L 190.921691 116.645292 
L 191.005051 119.805604 
L 191.08841 119.709844 
L 191.171769 116.566077 
L 191.338487 121.789582 
L 191.421846 121.497456 
L 191.505206 117.918231 
L 191.588565 119.836486 
L 191.755283 117.006862 
L 191.838642 119.025657 
L 192.08872 115.970981 
L 192.255438 117.322548 
L 192.422157 117.536357 
L 192.505516 116.499158 
L 192.588875 117.713782 
L 192.672234 114.982249 
L 192.755593 116.234796 
L 192.838952 114.78047 
L 193.005671 115.826872 
L 193.08903 115.958174 
L 193.172389 115.467254 
L 193.255748 115.719586 
L 193.339107 113.384339 
L 193.589185 117.326883 
L 193.672544 115.592111 
L 194.005981 120.87253 
L 194.08934 120.649819 
L 194.172699 119.128961 
L 194.256058 122.537131 
L 194.506136 117.548425 
L 194.589495 117.626148 
L 194.672854 117.696767 
L 194.756213 114.931863 
L 194.839573 117.985737 
L 194.922932 116.857904 
L 195.006291 116.889824 
L 195.08965 118.089346 
L 195.173009 116.944019 
L 195.256369 116.966837 
L 195.339728 118.163816 
L 195.423087 115.286335 
L 195.506446 117.181147 
L 195.673164 115.591421 
L 195.839883 116.953884 
L 195.923242 114.327325 
L 196.006601 115.590297 
L 196.256679 113.71709 
L 196.423397 116.828524 
L 196.673475 117.174215 
L 196.756834 116.140791 
L 196.840193 117.357188 
L 196.923552 116.296808 
L 197.006911 116.364339 
L 197.09027 116.425634 
L 197.17363 115.846539 
L 197.256989 116.046695 
L 197.423707 116.399549 
L 197.507066 115.463768 
L 197.590425 116.696353 
L 197.923862 112.990254 
L 198.007221 113.31137 
L 198.257299 116.576368 
L 198.340658 115.609122 
L 198.424017 116.836608 
L 198.507376 115.832548 
L 198.590736 117.053988 
L 198.674095 115.395793 
L 198.840813 116.314022 
L 198.924172 116.368759 
L 199.090891 117.623428 
L 199.340968 119.394524 
L 199.424327 119.277198 
L 199.507686 117.910344 
L 199.591046 119.072866 
L 199.841123 115.453411 
L 199.924482 114.619352 
L 200.091201 116.051927 
L 200.341278 116.515104 
L 200.507997 118.49348 
L 200.591356 117.233347 
L 200.674715 120.510921 
L 200.758074 120.276641 
L 200.841433 118.738407 
L 201.091511 123.879321 
L 201.258229 119.220229 
L 201.341588 120.339534 
L 201.424948 118.056 
L 201.508307 118.77596 
L 201.758384 123.916814 
L 202.008462 116.535957 
L 202.17518 116.7613 
L 202.341898 112.765469 
L 202.508617 115.885824 
L 202.591976 114.970984 
L 202.675335 118.0718 
L 202.758694 116.851148 
L 202.842054 118.037095 
L 202.925413 118.021217 
L 203.092131 116.791588 
L 203.425568 113.913879 
L 203.508927 114.137048 
L 203.592286 113.762182 
L 203.675645 115.745064 
L 203.842364 113.524242 
L 204.092441 114.218279 
L 204.259159 115.660504 
L 204.342519 115.835479 
L 204.425878 117.852024 
L 204.592596 115.976679 
L 204.675955 116.124195 
L 204.759315 116.928001 
L 204.842674 116.891283 
L 205.25947 116.743509 
L 205.342829 117.926639 
L 205.509547 116.67641 
L 205.676265 114.427066 
L 205.759625 113.66817 
L 205.926343 115.151475 
L 206.009702 115.355728 
L 206.176421 113.188035 
L 206.25978 113.449439 
L 206.343139 114.714748 
L 206.426498 113.912565 
L 206.509857 114.116825 
L 206.593216 113.718118 
L 206.843294 114.573606 
L 206.926653 113.783724 
L 207.093371 115.244919 
L 207.176731 115.433687 
L 207.26009 113.933868 
L 207.343449 114.221401 
L 207.426808 114.486974 
L 207.676886 116.646365 
L 207.760245 116.71623 
L 207.843604 118.751725 
L 208.010322 117.263361 
L 208.093682 118.423915 
L 208.177041 118.332859 
L 208.427118 114.60306 
L 208.593837 115.042002 
L 208.677196 114.171021 
L 208.760555 115.412588 
L 208.927273 113.163541 
L 209.010632 116.165181 
L 209.093992 115.138572 
L 209.177351 117.040966 
L 209.510788 113.260643 
L 209.594147 113.580681 
L 209.677506 113.876791 
L 209.760865 113.139389 
L 209.927583 114.63522 
L 210.094302 111.107929 
L 210.344379 116.234466 
L 210.427738 116.315597 
L 210.594457 113.776023 
L 210.927894 114.415998 
L 211.011253 115.644371 
L 211.094612 114.659123 
L 211.177971 114.764688 
L 211.428049 122.073719 
L 211.511408 120.068073 
L 211.594767 121.126745 
L 211.678126 119.286106 
L 211.761485 120.370311 
L 211.844844 118.65596 
L 212.011563 122.575526 
L 212.26164 120.691126 
L 212.428359 123.625201 
L 212.511718 123.936616 
L 212.595077 123.04893 
L 212.678436 123.991338 
L 212.761795 121.592266 
L 212.928514 124.50092 
L 213.095232 119.217279 
L 213.178591 118.874196 
L 213.26195 120.824778 
L 213.34531 120.304296 
L 213.512028 119.426784 
L 213.595387 120.497954 
L 213.762106 118.423089 
L 213.845465 119.525954 
L 214.012183 116.955405 
L 214.095542 116.934608 
L 214.178901 115.053796 
L 214.262261 115.19258 
L 214.34562 117.210662 
L 214.428979 115.944217 
L 214.512338 117.859693 
L 214.595697 117.635579 
L 214.679056 118.759372 
L 214.762416 118.562036 
L 214.845775 118.382754 
L 214.929134 116.927237 
L 215.012493 120.295835 
L 215.095852 119.938033 
L 215.34593 115.921188 
L 215.512648 117.785322 
L 215.679367 117.345993 
L 215.762726 118.473778 
L 215.929444 114.46308 
L 216.096162 112.232096 
L 216.262881 113.734592 
L 216.512958 110.385265 
L 216.596317 111.688473 
L 216.679677 111.107414 
L 216.929754 114.394321 
L 217.013113 114.554918 
L 217.096473 116.567583 
L 217.179832 115.3392 
L 217.263191 116.518882 
L 217.34655 115.294077 
L 217.429909 116.474295 
L 217.679987 112.129355 
L 217.763346 111.797697 
L 217.846705 112.144188 
L 217.930064 111.48791 
L 218.263501 117.45456 
L 218.34686 116.480194 
L 218.513579 113.44871 
L 218.930374 122.598206 
L 219.180452 116.858873 
L 219.263811 116.779409 
L 219.430529 118.565268 
L 219.513889 116.974412 
L 219.597248 118.095463 
L 219.680607 116.576306 
L 219.763966 117.708722 
L 219.847325 117.541114 
L 219.930685 115.399826 
L 220.014044 115.439671 
L 220.097403 114.31088 
L 220.180762 115.506159 
L 220.264121 114.364294 
L 220.34748 117.571148 
L 220.43084 114.246613 
L 220.597558 118.077545 
L 220.764276 115.599553 
L 220.847635 116.755859 
L 220.930995 116.662309 
L 221.014354 116.576199 
L 221.097713 113.460037 
L 221.181072 113.547685 
L 221.43115 117.275216 
L 221.597868 120.475554 
L 221.681227 119.992314 
L 221.847946 117.742539 
L 222.014664 117.129864 
L 222.181382 120.110343 
L 222.43146 113.89828 
L 222.598178 117.130629 
L 222.681537 113.828399 
L 222.764896 115.025818 
L 222.931615 112.364029 
L 223.098333 113.748324 
L 223.181692 113.885188 
L 223.265052 112.29389 
L 223.43177 114.373787 
L 223.515129 111.661311 
L 223.598488 111.863919 
L 223.681847 113.108044 
L 223.765207 110.64926 
L 223.848566 110.925791 
L 223.931925 111.180742 
L 224.182002 114.667188 
L 224.265362 112.920249 
L 224.348721 113.108941 
L 224.43208 112.207244 
L 224.515439 112.355617 
L 224.598798 112.490981 
L 224.682158 115.598997 
L 225.098953 109.839859 
L 225.265672 111.439236 
L 225.349031 110.731272 
L 225.43239 110.983766 
L 225.515749 109.704493 
L 225.682468 111.310637 
L 225.765827 110.610688 
L 225.849186 111.876965 
L 225.932545 111.104045 
L 226.099263 112.570055 
L 226.182623 110.145581 
L 226.265982 113.097253 
L 226.4327 109.323921 
L 226.599419 109.98529 
L 226.682778 109.733847 
L 226.766137 108.686394 
L 226.849496 109.150413 
L 227.099574 108.144632 
L 227.182933 108.562393 
L 227.266292 109.869432 
L 227.349651 109.311917 
L 227.43301 109.646492 
L 227.599729 107.543619 
L 227.766447 109.313527 
L 227.849806 108.301616 
L 227.933165 108.780062 
L 228.016525 108.333681 
L 228.099884 108.729506 
L 228.266602 110.389679 
L 228.349961 109.754108 
L 228.43332 110.046044 
L 228.600039 113.14497 
L 228.683398 112.153625 
L 228.766757 112.254576 
L 228.933475 113.558573 
L 229.100194 113.711556 
L 229.183553 112.632181 
L 229.266912 112.686751 
L 229.350271 115.867799 
L 229.433631 115.737306 
L 229.51699 116.389442 
L 229.600349 116.087685 
L 229.683708 117.188873 
L 229.767067 116.924855 
L 230.100504 116.094799 
L 230.183863 112.770824 
L 230.267222 112.800951 
L 230.350581 114.706229 
L 230.5173 112.726644 
L 230.684018 115.773215 
L 230.767377 115.633274 
L 230.850737 117.703866 
L 230.934096 117.369688 
L 231.017455 115.689945 
L 231.100814 116.797336 
L 231.267532 113.241923 
L 231.350892 113.217009 
L 231.684328 118.10039 
L 231.767687 114.219872 
L 231.851047 116.144342 
L 231.934406 113.818864 
L 232.017765 114.978917 
L 232.101124 114.895298 
L 232.184483 114.818275 
L 232.351202 113.45192 
L 232.434561 114.62085 
L 232.51792 114.564565 
L 232.601279 113.291219 
L 232.684638 116.566395 
L 232.767998 116.32164 
L 232.851357 116.100028 
L 232.934716 114.582993 
L 233.018075 115.716475 
L 233.101434 115.550397 
L 233.268153 117.265864 
L 233.351512 115.547931 
L 233.434871 116.649708 
L 233.51823 115.030512 
L 233.684948 116.743538 
L 233.851667 120.695896 
L 233.935026 119.824348 
L 234.018385 123.833028 
L 234.101744 122.694317 
L 234.268463 118.433386 
L 234.435181 117.555404 
L 234.51854 118.05943 
L 234.601899 117.499372 
L 234.685259 118.529824 
L 234.935336 117.236465 
L 235.018695 115.485167 
L 235.102054 116.582128 
L 235.185414 116.302864 
L 235.352132 110.965711 
L 235.435491 112.860166 
L 235.51885 111.048648 
L 235.60221 111.161936 
L 235.685569 110.649288 
L 235.852287 112.721405 
L 235.935646 111.648503 
L 236.019005 111.707195 
L 236.102365 111.759996 
L 236.185724 111.171488 
L 236.269083 111.364137 
L 236.435801 111.702576 
L 236.51916 109.156522 
L 236.60252 110.422805 
L 236.685879 108.128078 
L 236.769238 108.454663 
L 236.852597 108.756901 
L 237.019315 110.304164 
L 237.102675 109.531301 
L 237.352752 111.837731 
L 237.436111 111.865155 
L 237.519471 113.060679 
L 237.686189 108.778547 
L 237.769548 109.048712 
L 237.852907 107.799828 
L 238.019626 109.425585 
L 238.102985 108.745783 
L 238.186344 109.014673 
L 238.353062 110.521752 
L 238.60314 108.637195 
L 238.686499 108.909748 
L 238.853217 112.008837 
L 238.936577 110.983398 
L 239.019936 114.134767 
L 239.186654 111.072339 
L 239.436732 113.11695 
L 239.520091 113.006985 
L 239.60345 111.081345 
L 239.686809 111.150555 
L 239.936887 111.3202 
L 240.020246 109.675784 
L 240.103605 109.855929 
L 240.186964 110.021 
L 240.270323 109.573382 
L 240.353683 109.850672 
L 240.60376 107.564644 
L 240.687119 107.981103 
L 240.770478 107.434172 
L 240.853838 107.775766 
L 240.937197 107.554013 
L 241.270633 111.729657 
L 241.353993 110.703622 
L 241.437352 112.604394 
L 241.520711 112.520352 
L 241.60407 112.443144 
L 241.770789 110.665587 
L 241.854148 111.879904 
L 242.020866 109.364375 
L 242.270944 112.63284 
L 242.354303 110.81406 
L 242.437662 110.977182 
L 242.60438 111.262833 
L 242.937817 107.782292 
L 243.021176 109.063388 
L 243.104535 106.88297 
L 243.187894 107.244263 
L 243.354613 107.88962 
L 243.521331 110.05427 
L 243.60469 108.54749 
L 243.68805 108.782805 
L 243.771409 108.999299 
L 243.854768 108.616945 
L 243.938127 106.501998 
L 244.104845 108.61053 
L 244.271564 109.044168 
L 244.521641 114.169311 
L 244.771719 113.750449 
L 244.855078 115.821177 
L 244.938437 115.500093 
L 245.021796 113.838188 
L 245.105156 114.950176 
L 245.188515 114.71445 
L 245.355233 114.307527 
L 245.521951 112.680995 
L 245.605311 116.048865 
L 245.68867 114.280742 
L 245.772029 115.375923 
L 246.105466 108.222883 
L 246.188825 108.459715 
L 246.272184 108.677594 
L 246.355543 107.333241 
L 246.438902 108.614735 
L 246.522262 107.91202 
L 246.68898 111.172686 
L 246.772339 108.481521 
L 246.855698 110.365495 
L 246.939057 108.742773 
L 247.022417 109.989385 
L 247.105776 109.10395 
L 247.272494 110.494981 
L 247.522572 110.880775 
L 247.605931 111.666112 
L 247.68929 110.922591 
L 247.772649 112.946434 
L 247.939368 111.566215 
L 248.022727 113.48452 
L 248.106086 113.239086 
L 248.189445 113.016949 
L 248.272804 116.448282 
L 248.356163 116.014739 
L 248.439523 115.626795 
L 248.522882 111.843634 
L 248.606241 113.001875 
L 248.6896 115.066273 
L 248.772959 114.772832 
L 249.023037 107.879841 
L 249.106396 110.884866 
L 249.189755 109.842787 
L 249.273114 111.053615 
L 249.439833 109.414953 
L 249.606551 111.455335 
L 249.856629 111.546845 
L 249.939988 110.397595 
L 250.106706 111.608321 
L 250.356784 111.646746 
L 250.440143 109.823182 
L 250.606861 111.823722 
L 250.69022 110.61958 
L 250.773579 111.803539 
L 250.856939 110.598919 
L 250.940298 113.839453 
L 251.023657 112.320894 
L 251.190375 115.323688 
L 251.273735 114.967595 
L 251.440453 112.987576 
L 251.523812 114.098366 
L 251.607171 113.862685 
L 251.857249 108.211889 
L 251.940608 108.480638 
L 252.023967 107.702492 
L 252.107326 107.917363 
L 252.190685 107.53353 
L 252.357404 108.139438 
L 252.690841 106.088606 
L 252.7742 105.581521 
L 252.857559 105.943858 
L 252.940918 105.749685 
L 253.274355 107.607988 
L 253.357714 108.859059 
L 253.441073 107.422417 
L 253.524432 108.32528 
L 253.607791 106.881287 
L 253.691151 108.148181 
L 253.857869 104.785791 
L 253.941228 105.191165 
L 254.024587 108.057298 
L 254.107946 107.292584 
L 254.358024 110.597772 
L 254.441383 107.800325 
L 254.691461 111.052542 
L 254.858179 109.872384 
L 254.941538 111.058282 
L 255.024897 109.217899 
L 255.108257 109.370544 
L 255.274975 111.349859 
L 255.358334 113.398338 
L 255.441693 113.173043 
L 255.525052 112.96853 
L 255.608412 111.477183 
L 255.691771 114.860313 
L 255.77513 114.479402 
L 255.941848 113.82895 
L 256.191926 108.220493 
L 256.275285 109.443679 
L 256.358644 108.450807 
L 256.442003 109.667314 
L 256.525363 108.020751 
L 256.608722 108.87487 
L 256.692081 107.26267 
L 256.77544 107.453106 
L 256.858799 110.509236 
L 256.942158 109.35421 
L 257.025518 109.368265 
L 257.275595 114.481919 
L 257.442314 110.541764 
L 257.525673 111.695512 
L 257.609032 110.348625 
L 257.77575 113.365593 
L 257.859109 111.748139 
L 257.942469 112.8633 
L 258.109187 111.138256 
L 258.192546 113.065807 
L 258.275905 112.702301 
L 258.442624 110.251413 
L 258.525983 111.408109 
L 258.609342 110.077783 
L 258.692701 111.238562 
L 258.85942 109.187604 
L 258.942779 109.288048 
L 259.026138 108.252304 
L 259.109497 109.460875 
L 259.276215 106.93 
L 259.526293 107.424777 
L 259.609652 108.652076 
L 260.026448 103.864638 
L 260.193166 105.557167 
L 260.276525 104.964676 
L 260.359885 105.27873 
L 260.443244 104.114759 
L 260.526603 106.980337 
L 260.609962 106.208601 
L 260.693321 108.085952 
L 260.776681 106.482433 
L 260.943399 109.558841 
L 261.110117 109.626827 
L 261.193476 108.487342 
L 261.276836 108.508777 
L 261.443554 106.97472 
L 261.526913 107.118483 
L 261.610272 110.213082 
L 261.693631 108.31272 
L 261.776991 110.324427 
L 261.943709 109.02444 
L 262.027068 110.196466 
L 262.277146 105.780671 
L 262.443864 107.729327 
L 262.527223 107.794742 
L 262.610582 108.996978 
L 262.693942 107.905363 
L 262.86066 109.148354 
L 263.110737 104.961334 
L 263.194097 106.23032 
L 263.444174 104.535815 
L 263.527533 105.812868 
L 263.610893 105.113117 
L 263.777611 106.625007 
L 263.944329 107.063522 
L 264.027688 109.061003 
L 264.194407 107.297834 
L 264.444484 109.301553 
L 264.611203 104.934754 
L 264.694562 106.197082 
L 264.777921 106.444084 
L 264.86128 105.634788 
L 264.944639 107.513335 
L 265.027998 105.866713 
L 265.194717 107.275002 
L 265.278076 106.347179 
L 265.361435 106.479674 
L 265.444794 107.700622 
L 265.694872 104.122111 
L 265.778231 105.397728 
L 265.86159 104.692913 
L 265.944949 107.66876 
L 266.028309 106.667566 
L 266.195027 109.719444 
L 266.278386 108.418695 
L 266.361745 109.582317 
L 266.528464 108.241775 
L 266.695182 108.141477 
L 266.778541 109.310416 
L 266.8619 107.386239 
L 266.94526 107.50465 
L 267.028619 107.611918 
L 267.111978 106.587816 
L 267.278696 107.875072 
L 267.362055 105.143028 
L 267.445415 106.386469 
L 267.528774 103.954364 
L 267.695492 107.046895 
L 267.778851 106.08037 
L 267.86221 106.192072 
L 267.94557 105.679055 
L 268.112288 108.430555 
L 268.195647 106.514456 
L 268.279006 106.58276 
L 268.445725 109.626772 
L 268.529084 109.520865 
L 268.612443 108.176514 
L 268.779161 111.188006 
L 268.862521 110.924504 
L 268.94588 111.504053 
L 269.029239 111.079213 
L 269.112598 108.626299 
L 269.195957 109.766323 
L 269.279316 109.632532 
L 269.446035 108.14021 
L 269.529394 108.041685 
L 269.612753 111.349598 
L 269.696112 109.678417 
L 269.779472 110.782534 
L 270.029549 108.084109 
L 270.112908 106.90508 
L 270.196267 108.08805 
L 270.279627 106.903383 
L 270.529704 112.007107 
L 270.696422 108.018431 
L 270.863141 109.822571 
L 270.9465 109.531774 
L 271.029859 110.63222 
L 271.113218 110.376794 
L 271.279937 108.615857 
L 271.363296 109.742535 
L 271.530014 107.41698 
L 271.613373 108.156659 
L 271.780092 113.63023 
L 271.863451 111.47476 
L 272.030169 114.642487 
L 272.196888 111.69548 
L 272.280247 112.714157 
L 272.363606 112.210452 
L 272.530324 109.918253 
L 272.697043 109.278423 
L 272.863761 106.967338 
L 272.94712 110.241987 
L 273.113839 106.496195 
L 273.197198 108.401712 
L 273.280557 108.204182 
L 273.363916 109.331097 
L 273.447275 109.156 
L 273.530634 107.709466 
L 273.613994 109.630389 
L 273.697353 109.300959 
L 273.864071 108.734901 
L 273.94743 110.669667 
L 274.030789 110.222398 
L 274.114149 109.821745 
L 274.197508 111.771787 
L 274.280867 111.194944 
L 274.364226 110.682008 
L 274.530945 116.562121 
L 274.697663 109.793659 
L 274.781022 108.205507 
L 274.864381 109.323599 
L 275.197818 104.984141 
L 275.281177 106.985801 
L 275.364536 104.087332 
L 275.447895 104.234033 
L 275.531255 105.459515 
L 275.614614 102.876 
L 275.697973 103.113572 
L 275.781332 102.759948 
L 275.864691 103.091538 
L 275.94805 102.414196 
L 276.114769 105.506039 
L 276.281487 103.117794 
L 276.364846 104.367047 
L 276.448206 101.972323 
L 276.531565 102.265515 
L 276.614924 102.535971 
L 276.781642 105.62423 
L 276.948361 103.170195 
L 277.03172 106.202515 
L 277.115079 105.090778 
L 277.198438 106.990921 
L 277.281797 106.854401 
L 277.365156 104.887087 
L 277.448516 106.086901 
L 277.531875 104.980553 
L 277.865312 111.991801 
L 277.948671 109.918275 
L 278.03203 113.590844 
L 278.198748 107.761364 
L 278.282107 107.647574 
L 278.448826 104.54149 
L 278.532185 104.60368 
L 278.615544 105.805702 
L 278.698903 103.02777 
L 278.865622 104.446431 
L 278.948981 102.932053 
L 279.03234 103.209239 
L 279.115699 103.464691 
L 279.282418 105.529838 
L 279.365777 102.785403 
L 279.449136 102.977296 
L 279.615854 103.313522 
L 279.699213 101.869262 
L 279.865932 104.002446 
L 279.949291 102.44178 
L 280.116009 103.897571 
L 280.199368 103.022561 
L 280.366087 104.415263 
L 280.449446 103.466406 
L 280.866242 110.593917 
L 280.949601 110.145975 
L 281.116319 107.970833 
L 281.283038 109.610919 
L 281.366397 106.970183 
L 281.449756 108.091003 
L 281.533115 106.578136 
L 281.616474 107.710064 
L 281.699834 104.382094 
L 281.783193 104.409586 
L 281.866552 104.433478 
L 281.949911 106.337147 
L 282.116629 104.342238 
L 282.283348 109.617581 
L 282.450066 106.939675 
L 282.616785 109.542566 
L 282.700144 109.045683 
L 282.783503 110.091417 
L 282.866862 109.662697 
L 283.03358 106.944466 
L 283.200299 105.468638 
L 283.367017 103.637773 
L 283.617095 100.853493 
L 283.950531 104.341773 
L 284.200609 101.388482 
L 284.367327 102.013099 
L 284.534046 104.117743 
L 284.700764 104.328596 
L 284.950841 101.914049 
L 285.11756 102.270397 
L 285.200919 101.830453 
L 285.284278 99.628151 
L 285.367637 99.979961 
L 285.450997 100.305839 
L 285.617715 99.543711 
L 286.034511 105.02415 
L 286.11787 103.858637 
L 286.201229 103.86732 
L 286.284588 107.086206 
L 286.367947 106.905519 
L 286.451307 106.740851 
L 286.534666 105.308159 
L 286.618025 106.453149 
L 286.701384 106.327352 
L 286.951462 106.008636 
L 287.034821 108.068665 
L 287.11818 107.777724 
L 287.284898 107.276731 
L 287.451617 103.162012 
L 287.534976 101.618822 
L 287.701694 103.713355 
L 287.785053 102.691509 
L 287.951772 105.746182 
L 288.035131 102.626915 
L 288.11849 103.838816 
L 288.201849 102.789768 
L 288.368568 104.063882 
L 288.535286 104.178161 
L 288.618645 103.071632 
L 288.702004 103.110874 
L 288.868723 105.047546 
L 288.952082 104.904544 
L 289.035441 108.257764 
L 289.1188 107.911047 
L 289.202159 110.018205 
L 289.285519 109.475814 
L 289.368878 108.99282 
L 289.535596 106.743687 
L 290.035751 112.710769 
L 290.20247 109.37259 
L 290.285829 113.231444 
L 290.369188 110.484587 
L 290.535906 111.712167 
L 290.619265 115.890943 
L 290.702625 111.460214 
L 290.785984 111.739809 
L 290.952702 109.984891 
L 291.20278 104.341518 
L 291.286139 105.489497 
L 291.369498 105.375595 
L 291.536216 103.927158 
L 291.702935 107.142141 
L 291.869653 105.256146 
L 291.953012 106.37269 
L 292.119731 102.278878 
L 292.20309 102.429385 
L 292.369808 99.968887 
L 292.536526 101.45386 
L 292.619886 101.663046 
L 292.786604 103.687684 
L 292.869963 100.831517 
L 293.036681 102.876704 
L 293.286759 101.372165 
L 293.453477 102.69566 
L 293.536837 101.668191 
L 293.703555 102.954732 
L 293.786914 101.884773 
L 293.953632 103.142385 
L 294.036992 100.355304 
L 294.120351 100.533908 
L 294.20371 100.105127 
L 294.287069 97.921469 
L 294.370428 98.277088 
L 294.537147 99.884682 
L 294.620506 99.19176 
L 294.787224 102.440698 
L 294.870583 99.767482 
L 294.953943 101.016756 
L 295.120661 98.37765 
L 295.287379 100.5864 
L 295.870893 106.175565 
L 295.954253 105.906894 
L 296.037612 106.483794 
L 296.20433 105.668776 
L 296.371049 108.851669 
L 296.454408 104.542809 
L 296.537767 105.651249 
L 296.621126 104.089398 
L 296.704485 105.210656 
L 296.787844 105.019463 
L 296.954563 103.399572 
L 297.037922 104.539232 
L 297.121281 104.405129 
L 297.20464 104.28187 
L 297.371359 102.127245 
L 297.538077 104.041372 
L 297.704795 101.929594 
L 297.954873 108.102382 
L 298.038232 107.578866 
L 298.121591 105.633085 
L 298.20495 106.693323 
L 298.371669 102.739283 
L 298.621746 105.639662 
L 298.788465 101.993932 
L 298.871824 101.947123 
L 298.955183 103.115205 
L 299.121901 101.82045 
L 299.20526 103.726074 
L 299.28862 103.507281 
L 299.371979 102.586823 
L 299.538697 98.208967 
L 299.788775 101.536001 
L 299.955493 99.017513 
L 300.122211 99.361451 
L 300.28893 98.186044 
L 300.372289 101.170018 
L 300.705726 98.37949 
L 300.789085 97.700517 
L 300.955803 99.221917 
L 301.205881 94.854734 
L 301.372599 95.733158 
L 301.455958 97.036062 
L 301.539317 95.115502 
L 301.789395 98.530642 
L 301.872754 97.799975 
L 301.956113 99.668577 
L 302.039472 98.11344 
L 302.122832 98.32243 
L 302.206191 100.196519 
L 302.28955 98.54467 
L 302.456268 101.605616 
L 302.539628 100.444136 
L 302.622987 100.45124 
L 302.789705 103.475216 
L 302.873064 102.020949 
L 302.956423 103.155892 
L 303.039783 101.744297 
L 303.123142 102.885963 
L 303.28986 101.404243 
L 303.373219 102.553669 
L 303.456578 101.216792 
L 303.539938 104.508391 
L 303.623297 104.219957 
L 303.790015 101.832689 
L 303.873374 100.586103 
L 303.956733 101.753835 
L 304.040093 101.716522 
L 304.123452 101.680444 
L 304.206811 100.442598 
L 304.29017 101.611537 
L 304.540248 98.565745 
L 304.873684 98.973162 
L 304.957044 100.859356 
L 305.040403 98.966004 
L 305.123762 100.16782 
L 305.207121 97.446027 
L 305.373839 99.354933 
L 305.540558 100.574505 
L 305.623917 100.600508 
L 305.707276 102.62494 
L 305.790635 102.460774 
L 305.873995 102.309859 
L 305.957354 100.902096 
L 306.040713 102.042561 
L 306.207431 98.74875 
L 306.29079 99.946654 
L 306.37415 97.199595 
L 306.457509 98.435187 
L 306.540868 95.990187 
L 306.624227 97.252919 
L 306.707586 95.029148 
L 306.790945 96.312038 
L 306.874305 94.254755 
L 307.207741 97.955963 
L 307.37446 98.335629 
L 307.457819 97.428881 
L 307.624537 98.785734 
L 307.707896 98.908269 
L 307.791256 100.912177 
L 307.874615 99.628181 
L 307.957974 102.888074 
L 308.124692 101.069499 
L 308.208051 102.184068 
L 308.291411 101.988785 
L 308.37477 101.809775 
L 308.458129 100.361513 
L 308.708207 105.213951 
L 308.791566 104.685064 
L 308.958284 102.340777 
L 309.041643 101.985502 
L 309.37508 109.002102 
L 309.541798 107.082698 
L 309.708517 101.904756 
L 309.875235 99.44025 
L 309.958594 99.340587 
L 310.041953 102.632224 
L 310.125312 102.334037 
L 310.292031 100.48145 
L 310.542108 99.899711 
L 310.708827 96.189348 
L 310.875545 97.564895 
L 310.958904 95.014914 
L 311.042263 97.983042 
L 311.125623 96.96705 
L 311.292341 100.177313 
L 311.3757 102.223716 
L 311.459059 101.922666 
L 311.542418 100.297266 
L 311.792496 105.373954 
L 311.875855 103.116121 
L 312.042574 106.25917 
L 312.292651 100.391578 
L 312.37601 101.483943 
L 312.459369 97.941689 
L 312.542729 101.180598 
L 312.626088 99.617657 
L 312.709447 100.730587 
L 312.792806 100.533957 
L 312.959524 100.18786 
L 313.126243 98.626595 
L 313.37632 101.49041 
L 313.543039 98.845723 
L 313.626398 100.880366 
L 313.709757 100.63939 
L 313.793116 100.419406 
L 313.959835 98.73815 
L 314.043194 102.094471 
L 314.126553 100.297086 
L 314.209912 103.813374 
L 314.37663 100.410102 
L 314.45999 102.48157 
L 314.543349 102.046302 
L 314.710067 101.301549 
L 314.793426 103.394713 
L 314.876786 102.845887 
L 314.960145 100.868285 
L 315.043504 102.812625 
L 315.126863 101.314949 
L 315.210222 97.587853 
L 315.376941 100.580563 
L 315.4603 98.963153 
L 315.543659 100.067535 
L 315.627018 99.844455 
L 315.710377 98.332431 
L 315.793736 99.453608 
L 315.877096 96.129494 
L 315.960455 96.148694 
L 316.043814 96.163903 
L 316.210532 93.044172 
L 316.293891 93.301813 
L 316.543969 90.860143 
L 316.627328 90.482439 
L 316.710687 90.909865 
L 316.960765 95.823263 
L 317.044124 94.836215 
L 317.127483 96.042703 
L 317.210842 95.018636 
L 317.294202 96.219049 
L 317.377561 95.163432 
L 317.627638 98.84412 
L 317.710997 99.930412 
L 317.794357 98.295229 
L 317.877716 99.397137 
L 318.044434 96.922896 
L 318.127793 96.916134 
L 318.294512 93.986419 
L 318.46123 95.333008 
L 318.544589 92.730889 
L 318.627948 92.955511 
L 318.794667 94.395857 
L 318.878026 93.519046 
L 319.044744 96.567135 
L 319.128103 95.383171 
L 319.211463 97.276273 
L 319.294822 97.093117 
L 319.46154 100.277661 
L 319.544899 98.489727 
L 319.628259 99.567754 
L 319.711618 99.262775 
L 319.794977 97.631525 
L 319.878336 98.73425 
L 319.961695 97.18015 
L 320.045054 100.575183 
L 320.128414 98.703401 
L 320.211773 99.768383 
L 320.378491 97.162332 
L 320.545209 95.743002 
L 320.711928 95.588631 
L 320.795287 96.743419 
L 320.878646 93.673616 
L 321.045364 94.966474 
L 321.128724 95.044752 
L 321.212083 93.981394 
L 321.295442 94.037634 
L 321.46216 97.831841 
L 321.628879 101.001769 
L 321.712238 103.141434 
L 321.795597 100.689012 
L 321.878956 102.664492 
L 322.295752 94.061466 
L 322.46247 95.26363 
L 322.54583 93.467462 
L 322.629189 93.628901 
L 322.712548 95.624104 
L 322.795907 95.600775 
L 323.045985 95.529329 
L 323.212703 92.694484 
L 323.296062 93.905957 
L 323.379421 92.904521 
L 323.462781 94.10929 
L 323.54614 91.430071 
L 323.796217 93.688965 
L 324.046295 93.714019 
L 324.129654 92.001809 
L 324.213013 92.145078 
L 324.54645 97.351127 
L 324.879887 92.063226 
L 325.296682 99.338417 
L 325.380042 97.391221 
L 325.463401 98.44474 
L 325.54676 98.064385 
L 325.713478 94.219325 
L 325.796838 95.368182 
L 325.880197 92.251019 
L 326.046915 93.526939 
L 326.130274 93.593287 
L 326.213633 92.511725 
L 326.296993 93.70316 
L 326.463711 90.507129 
L 326.630429 91.524397 
L 326.713788 91.641972 
L 326.797148 92.85173 
L 326.880507 91.22967 
L 326.963866 93.207415 
L 327.297303 88.007204 
L 327.380662 88.372242 
L 327.464021 91.247901 
L 327.54738 88.891511 
L 327.630739 89.188301 
L 327.797458 89.712311 
L 327.880817 92.689881 
L 327.964176 91.036708 
L 328.047535 91.25262 
L 328.130894 90.400757 
L 328.214254 90.568996 
L 328.380972 90.860016 
L 328.464331 92.075213 
L 328.54769 91.097408 
L 328.631049 91.1984 
L 328.714409 90.674456 
L 329.047845 94.604092 
L 329.214564 97.18151 
L 329.297923 96.675415 
L 329.464641 93.904047 
L 329.548 95.024812 
L 329.798078 91.593149 
L 329.881437 91.61657 
L 330.048155 93.523973 
L 330.131515 91.503973 
L 330.298233 94.519433 
L 330.381592 94.371234 
L 330.464951 95.006219 
L 330.548311 98.520207 
L 330.715029 93.967407 
L 330.798388 97.385051 
L 331.048466 92.704508 
L 331.131825 96.013105 
L 331.298543 94.030118 
L 331.381902 95.126271 
L 331.548621 93.340241 
L 331.715339 96.516789 
L 331.798698 96.117465 
L 331.882057 95.75707 
L 331.965416 92.05514 
L 332.048776 93.202737 
L 332.132135 93.118185 
L 332.298853 91.067223 
L 332.382212 91.159761 
L 332.465572 93.16375 
L 332.548931 93.068663 
L 332.715649 90.991219 
L 332.799008 91.756306 
L 332.965727 89.94982 
L 333.215804 93.215909 
L 333.299163 91.833832 
L 333.465882 95.016299 
L 333.549241 93.332198 
L 333.715959 94.985692 
L 333.799318 98.620851 
L 333.882678 97.892436 
L 334.132755 93.850383 
L 334.216114 93.630191 
L 334.382833 91.949118 
L 334.466192 93.071622 
L 334.63291 90.804558 
L 334.716269 92.81524 
L 334.799628 92.672227 
L 334.882988 92.539507 
L 335.049706 91.052841 
L 335.133065 92.193448 
L 335.216424 90.853888 
L 335.299784 94.131254 
L 335.466502 89.778184 
L 335.549861 88.764779 
L 335.63322 89.961951 
L 335.716579 88.914363 
L 335.799939 92.042107 
L 335.966657 90.585168 
L 336.050016 91.72795 
L 336.133375 91.635742 
L 336.216734 92.298185 
L 336.300094 92.030736 
L 336.383453 95.459058 
L 336.466812 94.978038 
L 336.550171 97.087949 
L 336.71689 94.260318 
L 336.800249 93.764373 
L 337.050326 98.556408 
L 337.133685 97.67184 
L 337.217045 95.236733 
L 337.300404 96.208733 
L 337.550481 91.147496 
L 337.63384 92.25306 
L 337.883918 88.701276 
L 337.967277 89.872828 
L 338.050636 88.701858 
L 338.217355 89.866078 
L 338.300714 88.680727 
L 338.384073 90.564689 
L 338.467432 90.37696 
L 338.550791 90.203696 
L 338.71751 95.639965 
L 338.884228 90.975494 
L 338.967587 92.067769 
L 339.134306 90.288734 
L 339.217665 91.398539 
L 339.301024 89.917927 
L 339.384383 93.261359 
L 339.551101 89.304032 
L 339.634461 90.437231 
L 339.884538 85.84805 
L 339.967897 88.869145 
L 340.051257 87.716202 
L 340.301334 95.039807 
L 340.384693 92.848407 
L 340.71813 91.072438 
L 340.884848 93.990953 
L 341.051567 89.563445 
L 341.134926 91.469761 
L 341.385003 86.841489 
L 341.468363 88.717481 
L 341.551722 88.572804 
L 341.635081 86.607716 
L 341.71844 86.644127 
L 341.801799 87.822122 
L 342.051877 83.873887 
L 342.135236 84.11224 
L 342.301954 87.152515 
L 342.385313 87.216954 
L 342.468673 84.480465 
L 342.552032 84.657341 
L 342.635391 84.817243 
L 342.71875 84.37086 
L 342.802109 84.63705 
L 342.968828 83.511542 
L 343.052187 84.408938 
L 343.135546 83.014889 
L 343.218905 83.277858 
L 343.302264 83.518323 
L 343.385624 86.480379 
L 343.468983 85.437103 
L 343.552342 85.497346 
L 343.635701 85.549063 
L 343.802419 88.729906 
L 344.052497 85.278115 
L 344.135856 85.327049 
L 344.302574 86.545596 
L 344.469293 86.603318 
L 344.552652 85.467812 
L 344.71937 86.6471 
L 344.80273 86.652061 
L 344.969448 88.473433 
L 345.052807 88.301506 
L 345.136166 86.871398 
L 345.219525 88.763959 
L 345.302885 88.432568 
L 345.469603 87.290325 
L 345.552962 87.203568 
L 345.71968 91.29209 
L 345.80304 90.790342 
L 345.886399 90.33866 
L 346.219836 83.966545 
L 346.303195 85.150851 
L 346.386554 84.083304 
L 346.469913 85.262032 
L 346.553272 82.501783 
L 346.636631 82.667893 
L 346.719991 84.520785 
L 346.80335 82.806546 
L 346.886709 84.011464 
L 346.970068 83.054526 
L 347.053427 84.250744 
L 347.136786 81.635746 
L 347.303505 83.065489 
L 347.386864 83.247878 
L 347.470223 80.79888 
L 347.553582 81.054742 
L 347.80366 83.345861 
L 347.970378 83.418994 
L 348.137097 84.613729 
L 348.220456 84.631394 
L 348.303815 83.486645 
L 348.553892 86.652606 
L 348.720611 85.012352 
L 348.80397 86.125484 
L 348.887329 85.972711 
L 348.970688 86.595873 
L 349.054047 86.270577 
L 349.137407 87.33873 
L 349.220766 85.700382 
L 349.304125 86.783027 
L 349.387484 86.538288 
L 349.554203 83.087323 
L 349.637562 84.239577 
L 349.80428 81.274678 
L 349.970998 82.577169 
L 350.304435 82.886209 
L 350.387794 83.622567 
L 350.471153 83.500306 
L 350.554513 83.384386 
L 350.637872 84.509473 
L 350.721231 82.493258 
L 350.80459 84.475169 
L 350.887949 81.328157 
L 350.971309 82.502965 
L 351.054668 81.420362 
L 351.138027 81.454004 
L 351.304745 82.644845 
L 351.388104 81.512533 
L 351.471464 82.673168 
L 351.638182 79.379704 
L 351.721541 81.318533 
L 351.8049 80.330049 
L 351.888259 81.513596 
L 351.971619 80.484029 
L 352.054978 80.544775 
L 352.221696 83.699429 
L 352.305055 82.325143 
L 352.388415 85.586134 
L 352.471774 85.26179 
L 352.638492 81.592618 
L 352.80521 81.446012 
L 352.88857 82.580066 
L 352.971929 81.304543 
L 353.055288 82.439028 
L 353.388725 78.01819 
L 353.472084 79.229039 
L 353.555443 76.818799 
L 353.638802 77.077684 
L 353.722161 78.30583 
L 353.805521 77.526575 
L 353.88888 77.719284 
L 353.972239 77.892578 
L 354.305676 81.885493 
L 354.472394 81.475917 
L 354.722471 79.417273 
L 354.805831 79.401434 
L 354.88919 80.548295 
L 354.972549 80.52704 
L 355.055908 78.686133 
L 355.305986 82.590261 
L 355.389345 81.045209 
L 355.556063 82.711807 
L 355.722782 81.965727 
L 355.972859 84.739688 
L 356.056218 84.225345 
L 356.222937 79.871801 
L 356.306296 80.971931 
L 356.389655 82.98519 
L 356.473014 82.622542 
L 356.556373 82.290117 
L 356.723092 78.606042 
L 356.806451 78.523112 
L 356.88981 76.685702 
L 356.973169 77.856865 
L 357.056528 76.813362 
L 357.389965 80.436684 
L 357.473324 80.12843 
L 357.640043 77.822201 
L 357.723402 78.945203 
L 357.89012 75.979375 
L 357.973479 76.038011 
L 358.056838 74.453358 
L 358.140198 75.65322 
L 358.306916 73.48405 
L 358.390275 73.709078 
L 358.473634 74.919003 
L 358.556994 74.094038 
L 358.723712 77.230584 
L 358.89043 73.921169 
L 358.973789 74.163975 
L 359.057149 73.378491 
L 359.140508 74.581029 
L 359.223867 73.725214 
L 359.307226 76.695163 
L 359.473944 75.522907 
L 359.557304 75.502551 
L 359.640663 76.6393 
L 359.724022 76.612596 
L 359.807381 75.4142 
L 359.89074 76.546602 
L 359.974099 76.507965 
L 360.057459 76.46596 
L 360.390895 82.067355 
L 360.557614 79.338688 
L 360.724332 78.408812 
L 360.807691 79.42386 
L 360.97441 78.66784 
L 361.057769 76.976836 
L 361.141128 78.026889 
L 361.224487 77.741622 
L 361.307846 77.476406 
L 361.391205 79.491678 
L 361.474565 79.03093 
L 361.557924 78.61042 
L 361.724642 74.527395 
L 361.808001 75.629498 
L 361.891361 75.508877 
L 361.97472 74.172923 
L 362.224797 79.782717 
L 362.308156 80.693781 
L 362.474875 79.368981 
L 362.641593 76.217481 
L 362.724952 74.658373 
L 362.808311 75.725283 
L 362.97503 73.482504 
L 363.058389 74.154355 
L 363.141748 73.942227 
L 363.308467 73.552371 
L 363.391826 74.63301 
L 363.475185 74.455531 
L 363.558544 74.286402 
L 363.725262 70.458536 
L 363.808622 69.561014 
L 363.891981 69.677354 
L 364.058699 69.862511 
L 364.142058 68.339387 
L 364.392136 71.463331 
L 364.475495 68.680554 
L 364.558854 71.635303 
L 364.642213 71.613207 
L 364.725573 70.429324 
L 364.892291 73.509507 
L 365.059009 71.800855 
L 365.142368 72.873458 
L 365.225728 72.683021 
L 365.392446 72.328225 
L 365.642523 68.971723 
L 365.892601 73.84926 
L 365.97596 73.480188 
L 366.142678 71.484246 
L 366.309397 70.939353 
L 366.392756 72.78648 
L 366.476115 72.343193 
L 366.559474 73.344741 
L 366.726193 71.213003 
L 367.059629 70.045348 
L 367.309707 74.677224 
L 367.476425 73.456923 
L 367.559784 75.50752 
L 367.726503 72.470078 
L 367.809862 73.412276 
L 367.893221 72.844988 
L 367.97658 70.870755 
L 368.05994 74.364961 
L 368.143299 73.652857 
L 368.226658 73.011428 
L 368.310017 73.354188 
L 368.393376 74.234983 
L 368.476735 73.488489 
L 368.643454 70.699032 
L 368.726813 70.183073 
L 368.810172 67.635639 
L 368.893531 68.687802 
L 369.143609 62.158818 
L 369.226968 62.353136 
L 369.560405 65.575311 
L 369.643764 64.409369 
L 369.727123 65.518836 
L 369.810482 65.480075 
L 369.893841 65.435006 
L 369.977201 62.535948 
L 370.06056 62.615887 
L 370.227278 59.79823 
L 370.310637 60.997095 
L 370.477356 59.175401 
L 370.560715 59.452317 
L 370.644074 60.647215 
L 370.727433 58.499946 
L 370.810792 58.798567 
L 371.06087 61.842625 
L 371.144229 60.900299 
L 371.227588 62.039771 
L 371.310947 61.040772 
L 371.394307 64.016599 
L 371.477666 60.974461 
L 371.644384 62.126436 
L 371.727743 62.813413 
L 371.811102 65.982501 
L 371.894462 65.625843 
L 371.977821 63.96131 
L 372.144539 66.738588 
L 372.394617 63.251273 
L 372.561335 62.891655 
L 372.728053 66.816588 
L 372.811413 66.221184 
L 372.894772 65.676543 
L 373.06149 66.944314 
L 373.228208 65.663618 
L 373.311568 63.641105 
L 373.394927 64.593334 
L 373.645004 61.336412 
L 373.728363 61.893655 
L 373.895082 61.164652 
L 374.145159 65.909797 
L 374.228519 65.147291 
L 374.311878 62.91552 
L 374.395237 63.828437 
L 374.478596 63.253316 
L 374.645314 58.959893 
L 374.728674 58.711873 
L 374.812033 59.733144 
L 374.978751 56.20489 
L 375.145469 59.173927 
L 375.228829 58.931608 
L 375.395547 55.41665 
L 375.478906 56.490363 
L 375.562265 56.429485 
L 375.645625 57.053316 
L 375.812343 56.571423 
L 375.895702 59.744634 
L 376.06242 53.961513 
L 376.14578 55.034334 
L 376.312498 54.926009 
L 376.479216 51.971364 
L 376.562575 53.069428 
L 376.645935 52.046464 
L 376.729294 52.059149 
L 376.812653 54.98969 
L 377.06273 48.872495 
L 377.14609 51.617054 
L 377.229449 49.08254 
L 377.312808 49.224676 
L 377.396167 50.337626 
L 377.479526 47.948598 
L 377.646245 49.693448 
L 377.729604 48.164789 
L 377.979681 51.212129 
L 378.1464 49.946245 
L 378.229759 49.85409 
L 378.313118 52.837262 
L 378.563196 48.977077 
L 378.646555 50.009514 
L 378.729914 48.77368 
L 378.813273 51.753121 
L 378.979992 49.924484 
L 379.14671 49.382319 
L 379.230069 52.491866 
L 379.396787 50.230783 
L 379.480147 51.155167 
L 379.646865 47.169031 
L 379.730224 50.183723 
L 379.813583 49.808305 
L 379.896942 48.158522 
L 379.980302 49.096896 
L 380.063661 48.757888 
L 380.14702 45.330092 
L 380.230379 46.323926 
L 380.647175 45.47207 
L 380.730534 44.11537 
L 380.813893 45.085374 
L 380.897253 43.712496 
L 380.980612 46.693222 
L 381.063971 45.00359 
L 381.14733 45.912852 
L 381.230689 42.41546 
L 381.314048 45.360835 
L 381.564126 40.846566 
L 381.647485 39.72805 
L 381.730844 41.36713 
L 381.897563 39.292243 
L 382.230999 43.687529 
L 382.314359 43.169958 
L 382.397718 41.340957 
L 382.481077 42.195744 
L 382.647795 41.286774 
L 382.814514 39.149549 
L 382.897873 40.012934 
L 382.981232 39.606349 
L 383.14795 37.562002 
L 383.231309 38.424748 
L 383.398028 35.905795 
L 383.481387 35.681569 
L 383.564746 33.679388 
L 383.648105 35.365829 
L 383.898183 31.351299 
L 383.981542 31.311032 
L 384.14826 28.740092 
L 384.23162 28.71717 
L 384.314979 29.652926 
L 384.481697 28.487362 
L 384.648415 29.885408 
L 384.815134 29.260813 
L 384.981852 30.461296 
L 385.148571 28.90981 
L 385.315289 28.205284 
L 385.482007 26.295252 
L 385.565366 27.078859 
L 385.815444 25.874367 
L 385.982162 23.850722 
L 386.065521 24.59597 
L 386.315599 20.616283 
L 386.398958 22.040015 
L 386.732395 19.450765 
L 386.815754 17.950775 
L 386.899113 18.657627 
L 386.982472 18.234898 
L 387.065832 16.664162 
L 387.23255 18.644506 
L 387.315909 18.76138 
L 387.315909 18.76138 
" clip-path="url(#p0e5621b960)" style="fill: none; stroke: #1f77b4; stroke-width: 1.5; stroke-linecap: square"/>
   </g>
   <g id="patch_3">
    <path d="M 53.75 139.811563 
L 53.75 10.8 
" style="fill: none; stroke: #000000; stroke-width: 0.8; stroke-linejoin: miter; stroke-linecap: square"/>
   </g>
   <g id="patch_4">
    <path d="M 403.2 139.811563 
L 403.2 10.8 
" style="fill: none; stroke: #000000; stroke-width: 0.8; stroke-linejoin: miter; stroke-linecap: square"/>
   </g>
   <g id="patch_5">
    <path d="M 53.75 139.811563 
L 403.2 139.811563 
" style="fill: none; stroke: #000000; stroke-width: 0.8; stroke-linejoin: miter; stroke-linecap: square"/>
   </g>
   <g id="patch_6">
    <path d="M 53.75 10.8 
L 403.2 10.8 
" style="fill: none; stroke: #000000; stroke-width: 0.8; stroke-linejoin: miter; stroke-linecap: square"/>
   </g>
  </g>
 </g>
 <defs>
  <clipPath id="p0e5621b960">
   <rect x="53.75" y="10.8" width="349.45" height="129.011562"/>
  </clipPath>
 </defs>
</svg>
